# Blender 5.2.0 LTS
# www.blender.org
mtllib Sword.mtl
o Cylinder.002
v 1.611661 1.722242 -1.416020
v 1.611661 1.686862 -1.357882
v 1.632915 1.685088 -1.359547
v 1.630566 1.720665 -1.417501
v 1.653351 1.679835 -1.364478
v 1.648743 1.715992 -1.421887
v 1.672186 1.671305 -1.372486
v 1.665496 1.708404 -1.429010
v 1.688695 1.659824 -1.383262
v 1.680180 1.698193 -1.438595
v 1.702243 1.645836 -1.396394
v 1.692231 1.685750 -1.450275
v 1.712310 1.629876 -1.411375
v 1.701185 1.671555 -1.463600
v 1.718510 1.612559 -1.427631
v 1.706699 1.656152 -1.478059
v 1.720603 1.594550 -1.444536
v 1.708561 1.640133 -1.493096
v 1.718510 1.576540 -1.461441
v 1.706699 1.624115 -1.508133
v 1.712310 1.559223 -1.477697
v 1.701185 1.608711 -1.522592
v 1.702243 1.543264 -1.492678
v 1.692231 1.594516 -1.535917
v 1.688695 1.529275 -1.505810
v 1.680180 1.582073 -1.547597
v 1.672186 1.517795 -1.516586
v 1.665496 1.571862 -1.557182
v 1.653351 1.509264 -1.524594
v 1.648743 1.564275 -1.564305
v 1.632915 1.504011 -1.529525
v 1.630566 1.559602 -1.568691
v 1.611661 1.502237 -1.531190
v 1.611661 1.558024 -1.570172
v 1.590408 1.504011 -1.529525
v 1.592757 1.559602 -1.568691
v 1.569971 1.509264 -1.524594
v 1.574579 1.564275 -1.564305
v 1.551137 1.517795 -1.516586
v 1.557827 1.571862 -1.557182
v 1.534628 1.529275 -1.505810
v 1.543143 1.582073 -1.547597
v 1.521080 1.543264 -1.492678
v 1.531092 1.594516 -1.535917
v 1.511012 1.559223 -1.477697
v 1.522137 1.608711 -1.522592
v 1.504813 1.576540 -1.461441
v 1.516623 1.624115 -1.508133
v 1.502720 1.594550 -1.444536
v 1.514761 1.640133 -1.493096
v 1.504813 1.612559 -1.427631
v 1.516623 1.656152 -1.478059
v 1.511012 1.629876 -1.411375
v 1.522137 1.671555 -1.463600
v 1.521080 1.645836 -1.396394
v 1.531092 1.685750 -1.450275
v 1.534628 1.659824 -1.383262
v 1.543143 1.698193 -1.438595
v 1.551137 1.671305 -1.372486
v 1.557827 1.708404 -1.429010
v 1.569971 1.679835 -1.364478
v 1.574579 1.715992 -1.421887
v 1.590408 1.685088 -1.359547
v 1.592757 1.720665 -1.417501
v 1.611661 0.868055 -0.556946
v 1.611661 0.917706 -0.574933
v 1.611661 1.062688 -0.692949
v 1.611661 0.977657 -0.616825
v 1.624719 0.866965 -0.557969
v 1.628729 0.916282 -0.576270
v 1.631254 0.976022 -0.618360
v 1.632915 1.060914 -0.694614
v 1.637274 0.863738 -0.560999
v 1.645141 0.912063 -0.580230
v 1.650093 0.971179 -0.622905
v 1.653351 1.055661 -0.699546
v 1.648846 0.858497 -0.565919
v 1.660266 0.905212 -0.586661
v 1.667455 0.963316 -0.630287
v 1.672186 1.047131 -0.707553
v 1.658988 0.851444 -0.572539
v 1.673524 0.895993 -0.595315
v 1.682674 0.952733 -0.640221
v 1.688695 1.035650 -0.718330
v 1.667312 0.842850 -0.580607
v 1.684404 0.884759 -0.605860
v 1.695163 0.939837 -0.652326
v 1.702243 1.021662 -0.731461
v 1.673497 0.833045 -0.589811
v 1.692488 0.871943 -0.617891
v 1.704444 0.925125 -0.666137
v 1.712310 1.005702 -0.746442
v 1.677306 0.822405 -0.599798
v 1.697467 0.858036 -0.630945
v 1.710158 0.909161 -0.681122
v 1.718510 0.988385 -0.762698
v 1.678592 0.811341 -0.610184
v 1.699148 0.843574 -0.644521
v 1.712088 0.892560 -0.696706
v 1.720603 0.970376 -0.779603
v 1.677306 0.800277 -0.620570
v 1.697467 0.829111 -0.658097
v 1.710158 0.875958 -0.712290
v 1.718510 0.952366 -0.796509
v 1.673497 0.789638 -0.630557
v 1.692488 0.815204 -0.671151
v 1.704444 0.859994 -0.727275
v 1.712310 0.935049 -0.812764
v 1.667312 0.779833 -0.639761
v 1.684404 0.802388 -0.683182
v 1.695163 0.845282 -0.741086
v 1.702243 0.919090 -0.827746
v 1.658988 0.771238 -0.647829
v 1.673524 0.791154 -0.693727
v 1.682674 0.832387 -0.753190
v 1.688695 0.905101 -0.840877
v 1.648846 0.764185 -0.654449
v 1.660266 0.781935 -0.702382
v 1.667455 0.821804 -0.763125
v 1.672186 0.893621 -0.851653
v 1.637274 0.758944 -0.659369
v 1.645141 0.775084 -0.708812
v 1.650093 0.813940 -0.770507
v 1.653351 0.885090 -0.859661
v 1.624719 0.755717 -0.662398
v 1.628729 0.770866 -0.712772
v 1.631254 0.809097 -0.775052
v 1.632915 0.879837 -0.864592
v 1.611661 0.754627 -0.663421
v 1.611661 0.769441 -0.714109
v 1.611661 0.807462 -0.776587
v 1.611661 0.878063 -0.866257
v 1.598604 0.755717 -0.662398
v 1.594594 0.770866 -0.712772
v 1.592069 0.809097 -0.775052
v 1.590408 0.879837 -0.864592
v 1.586048 0.758944 -0.659369
v 1.578182 0.775084 -0.708812
v 1.573230 0.813940 -0.770507
v 1.569971 0.885090 -0.859661
v 1.574477 0.764185 -0.654449
v 1.563056 0.781935 -0.702382
v 1.555867 0.821804 -0.763125
v 1.551137 0.893621 -0.851653
v 1.564334 0.771238 -0.647829
v 1.549799 0.791154 -0.693727
v 1.540649 0.832387 -0.753190
v 1.534628 0.905101 -0.840877
v 1.556011 0.779833 -0.639761
v 1.538919 0.802388 -0.683182
v 1.528159 0.845282 -0.741086
v 1.521080 0.919090 -0.827746
v 1.549826 0.789638 -0.630557
v 1.530834 0.815204 -0.671151
v 1.518879 0.859994 -0.727275
v 1.511012 0.935049 -0.812764
v 1.546017 0.800277 -0.620570
v 1.525856 0.829111 -0.658097
v 1.513164 0.875958 -0.712290
v 1.504813 0.952366 -0.796509
v 1.544731 0.811341 -0.610184
v 1.524175 0.843574 -0.644521
v 1.511234 0.892560 -0.696706
v 1.502720 0.970376 -0.779603
v 1.546017 0.822405 -0.599798
v 1.525856 0.858036 -0.630945
v 1.513164 0.909161 -0.681122
v 1.504813 0.988385 -0.762698
v 1.549826 0.833045 -0.589811
v 1.530834 0.871943 -0.617891
v 1.518879 0.925125 -0.666137
v 1.511012 1.005702 -0.746442
v 1.556011 0.842850 -0.580607
v 1.538919 0.884759 -0.605860
v 1.528159 0.939837 -0.652326
v 1.521080 1.021662 -0.731461
v 1.564334 0.851444 -0.572539
v 1.549799 0.895993 -0.595315
v 1.540649 0.952733 -0.640221
v 1.534628 1.035650 -0.718330
v 1.574477 0.858497 -0.565919
v 1.563056 0.905212 -0.586661
v 1.555867 0.963316 -0.630287
v 1.551137 1.047131 -0.707553
v 1.586048 0.863738 -0.560999
v 1.578182 0.912063 -0.580230
v 1.573230 0.971179 -0.622905
v 1.569971 1.055661 -0.699546
v 1.598604 0.866965 -0.557969
v 1.594594 0.916282 -0.576270
v 1.592069 0.976022 -0.618360
v 1.590408 1.060914 -0.694614
vn 0.1113 0.8489 0.5166
vn 0.3256 0.8116 0.4850
vn 0.5173 0.7423 0.4260
vn 0.6773 0.6492 0.3460
vn 0.8025 0.5410 0.2516
vn 0.8933 0.4243 0.1483
vn 0.9520 0.3037 0.0396
vn 0.9806 0.1819 -0.0724
vn 0.9806 0.0608 -0.1861
vn 0.9520 -0.0587 -0.3006
vn 0.8933 -0.1748 -0.4141
vn 0.8025 -0.2853 -0.5240
vn 0.6773 -0.3863 -0.6261
vn 0.5173 -0.4720 -0.7139
vn 0.3256 -0.5353 -0.7793
vn 0.1113 -0.5692 -0.8146
vn -0.1113 -0.5692 -0.8146
vn -0.3256 -0.5353 -0.7793
vn -0.5173 -0.4720 -0.7139
vn -0.6773 -0.3863 -0.6261
vn -0.8025 -0.2853 -0.5240
vn -0.8933 -0.1748 -0.4141
vn -0.9520 -0.0587 -0.3006
vn -0.9806 0.0608 -0.1861
vn -0.9806 0.1819 -0.0724
vn -0.9520 0.3037 0.0396
vn -0.8933 0.4243 0.1483
vn -0.8025 0.5410 0.2516
vn -0.6773 0.6492 0.3460
vn -0.5173 0.7423 0.4260
vn -0.3256 0.8116 0.4850
vn -0.1113 0.8489 0.5166
vn 0.1133 0.6627 0.7403
vn 0.1016 0.3388 0.9353
vn 0.3313 0.6269 0.7051
vn 0.2977 0.3108 0.9027
vn 0.5259 0.5603 0.6400
vn 0.4746 0.2577 0.8417
vn 0.6879 0.4706 0.5526
vn 0.6240 0.1846 0.7593
vn 0.8143 0.3655 0.4508
vn 0.7424 0.0967 0.6630
vn 0.9059 0.2514 0.3409
vn 0.8293 -0.0015 0.5588
vn 0.9648 0.1322 0.2271
vn 0.8859 -0.1066 0.4515
vn 0.9937 0.0105 0.1119
vn 0.9137 -0.2165 0.3438
vn 0.9937 -0.1123 -0.0034
vn 0.9137 -0.3294 0.2378
vn 0.9648 -0.2350 -0.1176
vn 0.8859 -0.4438 0.1349
vn 0.9059 -0.3561 -0.2293
vn 0.8293 -0.5576 0.0368
vn 0.8143 -0.4730 -0.3363
vn 0.7424 -0.6677 -0.0546
vn 0.6879 -0.5812 -0.4347
vn 0.6240 -0.7694 -0.1362
vn 0.5259 -0.6741 -0.5187
vn 0.4746 -0.8563 -0.2040
vn 0.3313 -0.7433 -0.5811
vn 0.2977 -0.9205 -0.2531
vn 0.1133 -0.7806 -0.6146
vn 0.1016 -0.9549 -0.2791
vn -0.1133 -0.7806 -0.6146
vn -0.1016 -0.9549 -0.2791
vn -0.3313 -0.7433 -0.5811
vn -0.2977 -0.9205 -0.2531
vn -0.5259 -0.6741 -0.5187
vn -0.4746 -0.8563 -0.2040
vn -0.6879 -0.5812 -0.4347
vn -0.6240 -0.7694 -0.1362
vn -0.8143 -0.4730 -0.3363
vn -0.7424 -0.6677 -0.0546
vn -0.9059 -0.3561 -0.2293
vn -0.8293 -0.5576 0.0368
vn -0.9648 -0.2350 -0.1176
vn -0.8859 -0.4438 0.1349
vn -0.9937 -0.1123 -0.0034
vn -0.9137 -0.3294 0.2378
vn -0.9937 0.0105 0.1119
vn -0.9137 -0.2165 0.3438
vn -0.9648 0.1322 0.2271
vn -0.8859 -0.1066 0.4515
vn -0.9059 0.2514 0.3409
vn -0.8293 -0.0015 0.5588
vn -0.8143 0.3655 0.4508
vn -0.7424 0.0967 0.6630
vn -0.6879 0.4706 0.5526
vn -0.6240 0.1846 0.7593
vn -0.5259 0.5603 0.6400
vn -0.4746 0.2577 0.8417
vn -0.3313 0.6269 0.7051
vn -0.2977 0.3108 0.9027
vn -0.1133 0.6627 0.7403
vn -0.1016 0.3388 0.9353
vn 0.1137 0.7244 0.6800
vn -0.0000 0.6844 -0.7291
vn -0.1137 0.7244 0.6800
vn 0.3325 0.6876 0.6455
vn 0.5277 0.6193 0.5814
vn 0.6902 0.5276 0.4953
vn 0.8169 0.4206 0.3948
vn 0.9085 0.3046 0.2860
vn 0.9676 0.1841 0.1728
vn 0.9964 0.0616 0.0578
vn 0.9964 -0.0616 -0.0578
vn 0.9676 -0.1841 -0.1728
vn 0.9085 -0.3046 -0.2860
vn 0.8169 -0.4206 -0.3948
vn 0.6902 -0.5276 -0.4953
vn 0.5277 -0.6193 -0.5814
vn 0.3325 -0.6876 -0.6455
vn 0.1137 -0.7244 -0.6800
vn -0.1137 -0.7244 -0.6800
vn -0.3325 -0.6876 -0.6455
vn -0.5277 -0.6193 -0.5814
vn -0.6902 -0.5276 -0.4953
vn -0.8169 -0.4206 -0.3948
vn -0.9085 -0.3046 -0.2860
vn -0.9676 -0.1841 -0.1728
vn -0.9964 -0.0616 -0.0578
vn -0.9964 0.0616 0.0578
vn -0.9676 0.1841 0.1728
vn -0.9085 0.3046 0.2860
vn -0.8169 0.4206 0.3948
vn -0.6902 0.5276 0.4953
vn -0.5277 0.6193 0.5814
vn -0.3325 0.6876 0.6455
vn -0.1113 0.5692 0.8146
vn 0.1113 0.5692 0.8146
vn -0.0000 -0.6844 0.7291
vn 0.3256 0.5353 0.7793
vn 0.5173 0.4720 0.7139
vn 0.6773 0.3863 0.6261
vn 0.8025 0.2853 0.5240
vn 0.8933 0.1748 0.4141
vn 0.9520 0.0587 0.3006
vn 0.9806 -0.0608 0.1861
vn 0.9806 -0.1819 0.0724
vn 0.9520 -0.3037 -0.0396
vn 0.8933 -0.4243 -0.1483
vn 0.8025 -0.5410 -0.2516
vn 0.6773 -0.6492 -0.3460
vn 0.5173 -0.7423 -0.4260
vn 0.3256 -0.8116 -0.4850
vn 0.1113 -0.8489 -0.5166
vn -0.1113 -0.8489 -0.5166
vn -0.3256 -0.8116 -0.4850
vn -0.5173 -0.7423 -0.4260
vn -0.6773 -0.6492 -0.3460
vn -0.8025 -0.5410 -0.2516
vn -0.8933 -0.4243 -0.1483
vn -0.9520 -0.3037 -0.0396
vn -0.9806 -0.1819 0.0724
vn -0.9806 -0.0608 0.1861
vn -0.9520 0.0587 0.3006
vn -0.8933 0.1748 0.4141
vn -0.8025 0.2853 0.5240
vn -0.6773 0.3863 0.6261
vn -0.5173 0.4720 0.7139
vn -0.3256 0.5353 0.7793
vt 0.750000 0.490000
vt 0.796822 0.485388
vt 0.791647 0.459370
vt 0.750000 0.463472
vt 0.841844 0.471731
vt 0.831693 0.447223
vt 0.883337 0.449553
vt 0.868599 0.427496
vt 0.919706 0.419706
vt 0.900948 0.400948
vt 0.949553 0.383337
vt 0.927496 0.368599
vt 0.971731 0.341844
vt 0.947223 0.331693
vt 0.985388 0.296822
vt 0.959371 0.291646
vt 0.990000 0.250000
vt 0.963473 0.250000
vt 0.985388 0.203178
vt 0.959370 0.208354
vt 0.971731 0.158156
vt 0.947223 0.168308
vt 0.949553 0.116663
vt 0.927496 0.131401
vt 0.919706 0.080294
vt 0.900948 0.099052
vt 0.883337 0.050447
vt 0.868599 0.072504
vt 0.841844 0.028269
vt 0.831692 0.052777
vt 0.796822 0.014612
vt 0.791646 0.040630
vt 0.750000 0.010000
vt 0.750000 0.036528
vt 0.703178 0.014612
vt 0.708354 0.040630
vt 0.658156 0.028269
vt 0.668308 0.052777
vt 0.616663 0.050447
vt 0.631401 0.072504
vt 0.580294 0.080294
vt 0.599052 0.099052
vt 0.550447 0.116663
vt 0.572504 0.131401
vt 0.528269 0.158156
vt 0.552777 0.168308
vt 0.514612 0.203178
vt 0.540630 0.208354
vt 0.510000 0.250000
vt 0.536528 0.250000
vt 0.514612 0.296822
vt 0.540630 0.291646
vt 0.528269 0.341844
vt 0.552777 0.331692
vt 0.550447 0.383337
vt 0.572504 0.368599
vt 0.580294 0.419706
vt 0.599052 0.400948
vt 0.616663 0.449553
vt 0.631401 0.427496
vt 0.658156 0.471731
vt 0.668308 0.447223
vt 0.703178 0.485388
vt 0.708354 0.459370
vt 0.296822 0.485388
vt 0.250000 0.490000
vt 0.250000 0.471242
vt 0.293162 0.466991
vt 0.250000 0.397449
vt 0.278766 0.394615
vt 0.287601 0.439031
vt 0.250000 0.442734
vt 0.341844 0.471731
vt 0.334666 0.454401
vt 0.306426 0.386225
vt 0.323756 0.428063
vt 0.383337 0.449553
vt 0.372916 0.433956
vt 0.331918 0.372599
vt 0.357077 0.410253
vt 0.419706 0.419706
vt 0.406442 0.406442
vt 0.354262 0.354262
vt 0.386284 0.386284
vt 0.449553 0.383337
vt 0.433956 0.372916
vt 0.372599 0.331918
vt 0.410253 0.357077
vt 0.471731 0.341844
vt 0.454401 0.334666
vt 0.386225 0.306426
vt 0.428063 0.323756
vt 0.485388 0.296822
vt 0.466991 0.293162
vt 0.394616 0.278766
vt 0.439031 0.287601
vt 0.490000 0.250000
vt 0.471242 0.250000
vt 0.397449 0.250000
vt 0.442734 0.250000
vt 0.485388 0.203178
vt 0.466991 0.206838
vt 0.394616 0.221234
vt 0.439031 0.212399
vt 0.471731 0.158156
vt 0.454401 0.165334
vt 0.386225 0.193574
vt 0.428063 0.176244
vt 0.449553 0.116663
vt 0.433956 0.127084
vt 0.372599 0.168082
vt 0.410253 0.142923
vt 0.419706 0.080294
vt 0.406442 0.093558
vt 0.354262 0.145738
vt 0.386284 0.113716
vt 0.383337 0.050447
vt 0.372916 0.066044
vt 0.331918 0.127401
vt 0.357077 0.089747
vt 0.341844 0.028269
vt 0.334666 0.045599
vt 0.306426 0.113775
vt 0.323756 0.071937
vt 0.296822 0.014612
vt 0.293162 0.033009
vt 0.278766 0.105385
vt 0.287601 0.060969
vt 0.250000 0.010000
vt 0.250000 0.028758
vt 0.250000 0.102551
vt 0.250000 0.057266
vt 0.203178 0.014612
vt 0.206838 0.033009
vt 0.221234 0.105385
vt 0.212399 0.060969
vt 0.158156 0.028269
vt 0.165334 0.045599
vt 0.193574 0.113775
vt 0.176244 0.071937
vt 0.116663 0.050447
vt 0.127084 0.066044
vt 0.168082 0.127401
vt 0.142923 0.089747
vt 0.080294 0.080294
vt 0.093558 0.093558
vt 0.145738 0.145738
vt 0.113716 0.113716
vt 0.050447 0.116663
vt 0.066044 0.127084
vt 0.127401 0.168082
vt 0.089747 0.142923
vt 0.028269 0.158156
vt 0.045599 0.165334
vt 0.113775 0.193574
vt 0.071937 0.176244
vt 0.014612 0.203178
vt 0.033009 0.206838
vt 0.105385 0.221234
vt 0.060969 0.212400
vt 0.010000 0.250000
vt 0.028758 0.250000
vt 0.102551 0.250000
vt 0.057266 0.250000
vt 0.014612 0.296822
vt 0.033009 0.293162
vt 0.105385 0.278766
vt 0.060969 0.287601
vt 0.028269 0.341844
vt 0.045599 0.334666
vt 0.113775 0.306426
vt 0.071937 0.323756
vt 0.050447 0.383337
vt 0.066044 0.372916
vt 0.127401 0.331918
vt 0.089747 0.357077
vt 0.080294 0.419706
vt 0.093558 0.406442
vt 0.145738 0.354262
vt 0.113716 0.386284
vt 0.116663 0.449553
vt 0.127085 0.433956
vt 0.168082 0.372599
vt 0.142923 0.410253
vt 0.158156 0.471731
vt 0.165334 0.454401
vt 0.193574 0.386225
vt 0.176244 0.428063
vt 0.203178 0.485388
vt 0.206838 0.466991
vt 0.221234 0.394616
vt 0.212400 0.439031
vt 1.000000 0.527500
vt 1.000000 0.904056
vt 0.968750 0.904056
vt 0.968750 0.527500
vt 0.031250 0.527500
vt 0.031250 0.904056
vt 0.000000 0.904056
vt 0.000000 0.527500
vt 0.937500 0.904056
vt 0.937500 0.527500
vt 0.906250 0.904056
vt 0.906250 0.527500
vt 0.875000 0.904056
vt 0.875000 0.527500
vt 0.843750 0.904056
vt 0.843750 0.527500
vt 0.812500 0.904056
vt 0.812500 0.527500
vt 0.781250 0.904056
vt 0.781250 0.527500
vt 0.750000 0.904056
vt 0.750000 0.527500
vt 0.718750 0.904056
vt 0.718750 0.527500
vt 0.687500 0.904056
vt 0.687500 0.527500
vt 0.656250 0.904056
vt 0.656250 0.527500
vt 0.625000 0.904056
vt 0.625000 0.527500
vt 0.593750 0.904056
vt 0.593750 0.527500
vt 0.562500 0.904056
vt 0.562500 0.527500
vt 0.531250 0.904056
vt 0.531250 0.527500
vt 0.500000 0.904056
vt 0.500000 0.527500
vt 0.468750 0.904056
vt 0.468750 0.527500
vt 0.437500 0.904056
vt 0.437500 0.527500
vt 0.406250 0.904056
vt 0.406250 0.527500
vt 0.375000 0.904056
vt 0.375000 0.527500
vt 0.343750 0.904056
vt 0.343750 0.527500
vt 0.312500 0.904056
vt 0.312500 0.527500
vt 0.281250 0.904056
vt 0.281250 0.527500
vt 0.250000 0.904056
vt 0.250000 0.527500
vt 0.218750 0.904056
vt 0.218750 0.527500
vt 0.187500 0.904056
vt 0.187500 0.527500
vt 0.156250 0.904056
vt 0.156250 0.527500
vt 0.125000 0.904056
vt 0.125000 0.527500
vt 0.093750 0.904056
vt 0.093750 0.527500
vt 0.062500 0.904056
vt 0.062500 0.527500
s 0
f 2/1/1 3/2/1 4/3/1 1/4/1
f 3/2/2 5/5/2 6/6/2 4/3/2
f 5/5/3 7/7/3 8/8/3 6/6/3
f 7/7/4 9/9/4 10/10/4 8/8/4
f 9/9/5 11/11/5 12/12/5 10/10/5
f 11/11/6 13/13/6 14/14/6 12/12/6
f 13/13/7 15/15/7 16/16/7 14/14/7
f 15/15/8 17/17/8 18/18/8 16/16/8
f 17/17/9 19/19/9 20/20/9 18/18/9
f 19/19/10 21/21/10 22/22/10 20/20/10
f 21/21/11 23/23/11 24/24/11 22/22/11
f 23/23/12 25/25/12 26/26/12 24/24/12
f 25/25/13 27/27/13 28/28/13 26/26/13
f 27/27/14 29/29/14 30/30/14 28/28/14
f 29/29/15 31/31/15 32/32/15 30/30/15
f 31/31/16 33/33/16 34/34/16 32/32/16
f 33/33/17 35/35/17 36/36/17 34/34/17
f 35/35/18 37/37/18 38/38/18 36/36/18
f 37/37/19 39/39/19 40/40/19 38/38/19
f 39/39/20 41/41/20 42/42/20 40/40/20
f 41/41/21 43/43/21 44/44/21 42/42/21
f 43/43/22 45/45/22 46/46/22 44/44/22
f 45/45/23 47/47/23 48/48/23 46/46/23
f 47/47/24 49/49/24 50/50/24 48/48/24
f 49/49/25 51/51/25 52/52/25 50/50/25
f 51/51/26 53/53/26 54/54/26 52/52/26
f 53/53/27 55/55/27 56/56/27 54/54/27
f 55/55/28 57/57/28 58/58/28 56/56/28
f 57/57/29 59/59/29 60/60/29 58/58/29
f 59/59/30 61/61/30 62/62/30 60/60/30
f 61/61/31 63/63/31 64/64/31 62/62/31
f 63/63/32 2/1/32 1/4/32 64/64/32
f 72/65/33 67/66/33 68/67/33 71/68/33
f 65/69/34 69/70/34 70/71/34 66/72/34
f 76/73/35 72/65/35 71/68/35 75/74/35
f 69/70/36 73/75/36 74/76/36 70/71/36
f 80/77/37 76/73/37 75/74/37 79/78/37
f 73/75/38 77/79/38 78/80/38 74/76/38
f 84/81/39 80/77/39 79/78/39 83/82/39
f 77/79/40 81/83/40 82/84/40 78/80/40
f 88/85/41 84/81/41 83/82/41 87/86/41
f 81/83/42 85/87/42 86/88/42 82/84/42
f 92/89/43 88/85/43 87/86/43 91/90/43
f 85/87/44 89/91/44 90/92/44 86/88/44
f 96/93/45 92/89/45 91/90/45 95/94/45
f 89/91/46 93/95/46 94/96/46 90/92/46
f 100/97/47 96/93/47 95/94/47 99/98/47
f 93/95/48 97/99/48 98/100/48 94/96/48
f 104/101/49 100/97/49 99/98/49 103/102/49
f 97/99/50 101/103/50 102/104/50 98/100/50
f 108/105/51 104/101/51 103/102/51 107/106/51
f 101/103/52 105/107/52 106/108/52 102/104/52
f 112/109/53 108/105/53 107/106/53 111/110/53
f 105/107/54 109/111/54 110/112/54 106/108/54
f 116/113/55 112/109/55 111/110/55 115/114/55
f 109/111/56 113/115/56 114/116/56 110/112/56
f 120/117/57 116/113/57 115/114/57 119/118/57
f 113/115/58 117/119/58 118/120/58 114/116/58
f 124/121/59 120/117/59 119/118/59 123/122/59
f 117/119/60 121/123/60 122/124/60 118/120/60
f 128/125/61 124/121/61 123/122/61 127/126/61
f 121/123/62 125/127/62 126/128/62 122/124/62
f 132/129/63 128/125/63 127/126/63 131/130/63
f 125/127/64 129/131/64 130/132/64 126/128/64
f 136/133/65 132/129/65 131/130/65 135/134/65
f 129/131/66 133/135/66 134/136/66 130/132/66
f 140/137/67 136/133/67 135/134/67 139/138/67
f 133/135/68 137/139/68 138/140/68 134/136/68
f 144/141/69 140/137/69 139/138/69 143/142/69
f 137/139/70 141/143/70 142/144/70 138/140/70
f 148/145/71 144/141/71 143/142/71 147/146/71
f 141/143/72 145/147/72 146/148/72 142/144/72
f 152/149/73 148/145/73 147/146/73 151/150/73
f 145/147/74 149/151/74 150/152/74 146/148/74
f 156/153/75 152/149/75 151/150/75 155/154/75
f 149/151/76 153/155/76 154/156/76 150/152/76
f 160/157/77 156/153/77 155/154/77 159/158/77
f 153/155/78 157/159/78 158/160/78 154/156/78
f 164/161/79 160/157/79 159/158/79 163/162/79
f 157/159/80 161/163/80 162/164/80 158/160/80
f 168/165/81 164/161/81 163/162/81 167/166/81
f 161/163/82 165/167/82 166/168/82 162/164/82
f 172/169/83 168/165/83 167/166/83 171/170/83
f 165/167/84 169/171/84 170/172/84 166/168/84
f 176/173/85 172/169/85 171/170/85 175/174/85
f 169/171/86 173/175/86 174/176/86 170/172/86
f 180/177/87 176/173/87 175/174/87 179/178/87
f 173/175/88 177/179/88 178/180/88 174/176/88
f 184/181/89 180/177/89 179/178/89 183/182/89
f 177/179/90 181/183/90 182/184/90 178/180/90
f 188/185/91 184/181/91 183/182/91 187/186/91
f 181/183/92 185/187/92 186/188/92 182/184/92
f 192/189/93 188/185/93 187/186/93 191/190/93
f 185/187/94 189/191/94 190/192/94 186/188/94
f 67/66/95 192/189/95 191/190/95 68/67/95
f 189/191/96 65/69/96 66/72/96 190/192/96
f 2/193/97 67/194/97 72/195/97 3/196/97
f 1/4/98 4/3/98 6/6/98 8/8/98 10/10/98 12/12/98 14/14/98 16/16/98 18/18/98 20/20/98 22/22/98 24/24/98 26/26/98 28/28/98 30/30/98 32/32/98 34/34/98 36/36/98 38/38/98 40/40/98 42/42/98 44/44/98 46/46/98 48/48/98 50/50/98 52/52/98 54/54/98 56/56/98 58/58/98 60/60/98 62/62/98 64/64/98
f 63/197/99 192/198/99 67/199/99 2/200/99
f 3/196/100 72/195/100 76/201/100 5/202/100
f 5/202/101 76/201/101 80/203/101 7/204/101
f 7/204/102 80/203/102 84/205/102 9/206/102
f 9/206/103 84/205/103 88/207/103 11/208/103
f 11/208/104 88/207/104 92/209/104 13/210/104
f 13/210/105 92/209/105 96/211/105 15/212/105
f 15/212/106 96/211/106 100/213/106 17/214/106
f 17/214/107 100/213/107 104/215/107 19/216/107
f 19/216/108 104/215/108 108/217/108 21/218/108
f 21/218/109 108/217/109 112/219/109 23/220/109
f 23/220/110 112/219/110 116/221/110 25/222/110
f 25/222/111 116/221/111 120/223/111 27/224/111
f 27/224/112 120/223/112 124/225/112 29/226/112
f 29/226/113 124/225/113 128/227/113 31/228/113
f 31/228/114 128/227/114 132/229/114 33/230/114
f 33/230/115 132/229/115 136/231/115 35/232/115
f 35/232/116 136/231/116 140/233/116 37/234/116
f 37/234/117 140/233/117 144/235/117 39/236/117
f 39/236/118 144/235/118 148/237/118 41/238/118
f 41/238/119 148/237/119 152/239/119 43/240/119
f 43/240/120 152/239/120 156/241/120 45/242/120
f 45/242/121 156/241/121 160/243/121 47/244/121
f 47/244/122 160/243/122 164/245/122 49/246/122
f 49/246/123 164/245/123 168/247/123 51/248/123
f 51/248/124 168/247/124 172/249/124 53/250/124
f 53/250/125 172/249/125 176/251/125 55/252/125
f 55/252/126 176/251/126 180/253/126 57/254/126
f 57/254/127 180/253/127 184/255/127 59/256/127
f 59/256/128 184/255/128 188/257/128 61/258/128
f 61/258/129 188/257/129 192/198/129 63/197/129
f 68/67/130 191/190/130 190/192/130 66/72/130
f 71/68/131 68/67/131 66/72/131 70/71/131
f 69/70/132 65/69/132 189/191/132 185/187/132 181/183/132 177/179/132 173/175/132 169/171/132 165/167/132 161/163/132 157/159/132 153/155/132 149/151/132 145/147/132 141/143/132 137/139/132 133/135/132 129/131/132 125/127/132 121/123/132 117/119/132 113/115/132 109/111/132 105/107/132 101/103/132 97/99/132 93/95/132 89/91/132 85/87/132 81/83/132 77/79/132 73/75/132
f 75/74/133 71/68/133 70/71/133 74/76/133
f 79/78/134 75/74/134 74/76/134 78/80/134
f 83/82/135 79/78/135 78/80/135 82/84/135
f 87/86/136 83/82/136 82/84/136 86/88/136
f 91/90/137 87/86/137 86/88/137 90/92/137
f 95/94/138 91/90/138 90/92/138 94/96/138
f 99/98/139 95/94/139 94/96/139 98/100/139
f 103/102/140 99/98/140 98/100/140 102/104/140
f 107/106/141 103/102/141 102/104/141 106/108/141
f 111/110/142 107/106/142 106/108/142 110/112/142
f 115/114/143 111/110/143 110/112/143 114/116/143
f 119/118/144 115/114/144 114/116/144 118/120/144
f 123/122/145 119/118/145 118/120/145 122/124/145
f 127/126/146 123/122/146 122/124/146 126/128/146
f 131/130/147 127/126/147 126/128/147 130/132/147
f 135/134/148 131/130/148 130/132/148 134/136/148
f 139/138/149 135/134/149 134/136/149 138/140/149
f 143/142/150 139/138/150 138/140/150 142/144/150
f 147/146/151 143/142/151 142/144/151 146/148/151
f 151/150/152 147/146/152 146/148/152 150/152/152
f 155/154/153 151/150/153 150/152/153 154/156/153
f 159/158/154 155/154/154 154/156/154 158/160/154
f 163/162/155 159/158/155 158/160/155 162/164/155
f 167/166/156 163/162/156 162/164/156 166/168/156
f 171/170/157 167/166/157 166/168/157 170/172/157
f 175/174/158 171/170/158 170/172/158 174/176/158
f 179/178/159 175/174/159 174/176/159 178/180/159
f 183/182/160 179/178/160 178/180/160 182/184/160
f 187/186/161 183/182/161 182/184/161 186/188/161
f 191/190/162 187/186/162 186/188/162 190/192/162
o Cylinder.003
v 1.611661 0.701827 -0.678371
v 1.611661 0.716293 -0.695926
v 1.634300 0.703636 -0.676880
v 1.634300 0.718102 -0.694435
v 1.656069 0.708992 -0.672467
v 1.656069 0.723458 -0.690022
v 1.676131 0.717690 -0.665299
v 1.676131 0.732156 -0.682854
v 1.693716 0.729396 -0.655653
v 1.693716 0.743862 -0.673208
v 1.708148 0.743660 -0.643900
v 1.708148 0.758125 -0.661455
v 1.718871 0.759933 -0.630491
v 1.718871 0.774399 -0.648046
v 1.725475 0.777591 -0.615941
v 1.725475 0.792056 -0.633496
v 1.727704 0.795954 -0.600809
v 1.727704 0.810419 -0.618364
v 1.725475 0.814317 -0.585678
v 1.725475 0.828782 -0.603233
v 1.718871 0.831974 -0.571128
v 1.718871 0.846440 -0.588683
v 1.708148 0.848248 -0.557718
v 1.708148 0.862713 -0.575273
v 1.693716 0.862511 -0.545965
v 1.693716 0.876977 -0.563520
v 1.676131 0.874217 -0.536319
v 1.676131 0.888682 -0.553874
v 1.656069 0.882915 -0.529152
v 1.656069 0.897381 -0.546706
v 1.634300 0.888271 -0.524738
v 1.634300 0.902737 -0.542293
v 1.611661 0.890080 -0.523247
v 1.611661 0.904546 -0.540802
v 1.589022 0.888271 -0.524738
v 1.589022 0.902737 -0.542293
v 1.567254 0.882915 -0.529152
v 1.567254 0.897381 -0.546706
v 1.547191 0.874217 -0.536319
v 1.547191 0.888682 -0.553874
v 1.529607 0.862511 -0.545965
v 1.529607 0.876977 -0.563520
v 1.515175 0.848248 -0.557718
v 1.515175 0.862713 -0.575273
v 1.504452 0.831974 -0.571128
v 1.504452 0.846440 -0.588683
v 1.497848 0.814317 -0.585678
v 1.497848 0.828782 -0.603233
v 1.495618 0.795954 -0.600809
v 1.495618 0.810419 -0.618364
v 1.497848 0.777591 -0.615941
v 1.497848 0.792056 -0.633496
v 1.504452 0.759933 -0.630491
v 1.504452 0.774399 -0.648046
v 1.515175 0.743660 -0.643900
v 1.515175 0.758125 -0.661455
v 1.529607 0.729396 -0.655653
v 1.529607 0.743862 -0.673208
v 1.547191 0.717690 -0.665299
v 1.547191 0.732156 -0.682854
v 1.567254 0.708992 -0.672467
v 1.567254 0.723458 -0.690022
v 1.589022 0.703636 -0.676880
v 1.589022 0.718102 -0.694435
vn 0.1030 -0.7676 -0.6326
vn 0.3038 -0.7353 -0.6059
vn 0.4898 -0.6728 -0.5544
vn 0.6532 -0.5844 -0.4815
vn 0.7882 -0.4750 -0.3914
vn 0.8914 -0.3498 -0.2883
vn 0.9608 -0.2140 -0.1763
vn 0.9956 -0.0720 -0.0593
vn 0.9956 0.0720 0.0593
vn 0.9608 0.2140 0.1763
vn 0.8914 0.3498 0.2883
vn 0.7882 0.4750 0.3914
vn 0.6532 0.5844 0.4815
vn 0.4898 0.6728 0.5544
vn 0.3038 0.7353 0.6059
vn 0.1030 0.7676 0.6326
vn -0.1030 0.7676 0.6326
vn -0.3038 0.7353 0.6059
vn -0.4898 0.6728 0.5544
vn -0.6532 0.5844 0.4815
vn -0.7882 0.4750 0.3914
vn -0.8914 0.3498 0.2883
vn -0.9608 0.2140 0.1763
vn -0.9956 0.0720 0.0593
vn -0.9956 -0.0720 -0.0593
vn -0.9608 -0.2140 -0.1763
vn -0.8914 -0.3498 -0.2883
vn -0.7882 -0.4750 -0.3914
vn -0.6532 -0.5844 -0.4815
vn -0.4898 -0.6728 -0.5544
vn -0.0000 0.6359 -0.7717
vn -0.3038 -0.7353 -0.6059
vn -0.1030 -0.7676 -0.6326
vn -0.0000 -0.6359 0.7717
vt 1.000000 0.500000
vt 1.000000 1.000000
vt 0.968750 1.000000
vt 0.968750 0.500000
vt 0.937500 1.000000
vt 0.937500 0.500000
vt 0.906250 1.000000
vt 0.906250 0.500000
vt 0.875000 1.000000
vt 0.875000 0.500000
vt 0.843750 1.000000
vt 0.843750 0.500000
vt 0.812500 1.000000
vt 0.812500 0.500000
vt 0.781250 1.000000
vt 0.781250 0.500000
vt 0.750000 1.000000
vt 0.750000 0.500000
vt 0.718750 1.000000
vt 0.718750 0.500000
vt 0.687500 1.000000
vt 0.687500 0.500000
vt 0.656250 1.000000
vt 0.656250 0.500000
vt 0.625000 1.000000
vt 0.625000 0.500000
vt 0.593750 1.000000
vt 0.593750 0.500000
vt 0.562500 1.000000
vt 0.562500 0.500000
vt 0.531250 1.000000
vt 0.531250 0.500000
vt 0.500000 1.000000
vt 0.500000 0.500000
vt 0.468750 1.000000
vt 0.468750 0.500000
vt 0.437500 1.000000
vt 0.437500 0.500000
vt 0.406250 1.000000
vt 0.406250 0.500000
vt 0.375000 1.000000
vt 0.375000 0.500000
vt 0.343750 1.000000
vt 0.343750 0.500000
vt 0.312500 1.000000
vt 0.312500 0.500000
vt 0.281250 1.000000
vt 0.281250 0.500000
vt 0.250000 1.000000
vt 0.250000 0.500000
vt 0.218750 1.000000
vt 0.218750 0.500000
vt 0.187500 1.000000
vt 0.187500 0.500000
vt 0.156250 1.000000
vt 0.156250 0.500000
vt 0.125000 1.000000
vt 0.125000 0.500000
vt 0.093750 1.000000
vt 0.093750 0.500000
vt 0.062500 1.000000
vt 0.062500 0.500000
vt 0.296822 0.485388
vt 0.250000 0.490000
vt 0.203178 0.485388
vt 0.158156 0.471731
vt 0.116663 0.449553
vt 0.080294 0.419706
vt 0.050447 0.383337
vt 0.028269 0.341844
vt 0.014612 0.296822
vt 0.010000 0.250000
vt 0.014612 0.203178
vt 0.028269 0.158156
vt 0.050447 0.116663
vt 0.080294 0.080294
vt 0.116663 0.050447
vt 0.158156 0.028269
vt 0.203178 0.014612
vt 0.250000 0.010000
vt 0.296822 0.014612
vt 0.341844 0.028269
vt 0.383337 0.050447
vt 0.419706 0.080294
vt 0.449553 0.116663
vt 0.471731 0.158156
vt 0.485388 0.203178
vt 0.490000 0.250000
vt 0.485388 0.296822
vt 0.471731 0.341844
vt 0.449553 0.383337
vt 0.419706 0.419706
vt 0.383337 0.449553
vt 0.341844 0.471731
vt 0.031250 1.000000
vt 0.031250 0.500000
vt 0.000000 1.000000
vt 0.000000 0.500000
vt 0.750000 0.490000
vt 0.796822 0.485388
vt 0.841844 0.471731
vt 0.883337 0.449553
vt 0.919706 0.419706
vt 0.949553 0.383337
vt 0.971731 0.341844
vt 0.985388 0.296822
vt 0.990000 0.250000
vt 0.985388 0.203178
vt 0.971731 0.158156
vt 0.949553 0.116663
vt 0.919706 0.080294
vt 0.883337 0.050447
vt 0.841844 0.028269
vt 0.796822 0.014612
vt 0.750000 0.010000
vt 0.703178 0.014612
vt 0.658156 0.028269
vt 0.616663 0.050447
vt 0.580294 0.080294
vt 0.550447 0.116663
vt 0.528269 0.158156
vt 0.514612 0.203178
vt 0.510000 0.250000
vt 0.514612 0.296822
vt 0.528269 0.341844
vt 0.550447 0.383337
vt 0.580294 0.419706
vt 0.616663 0.449553
vt 0.658156 0.471731
vt 0.703178 0.485388
s 0
f 193/259/163 194/260/163 196/261/163 195/262/163
f 195/262/164 196/261/164 198/263/164 197/264/164
f 197/264/165 198/263/165 200/265/165 199/266/165
f 199/266/166 200/265/166 202/267/166 201/268/166
f 201/268/167 202/267/167 204/269/167 203/270/167
f 203/270/168 204/269/168 206/271/168 205/272/168
f 205/272/169 206/271/169 208/273/169 207/274/169
f 207/274/170 208/273/170 210/275/170 209/276/170
f 209/276/171 210/275/171 212/277/171 211/278/171
f 211/278/172 212/277/172 214/279/172 213/280/172
f 213/280/173 214/279/173 216/281/173 215/282/173
f 215/282/174 216/281/174 218/283/174 217/284/174
f 217/284/175 218/283/175 220/285/175 219/286/175
f 219/286/176 220/285/176 222/287/176 221/288/176
f 221/288/177 222/287/177 224/289/177 223/290/177
f 223/290/178 224/289/178 226/291/178 225/292/178
f 225/292/179 226/291/179 228/293/179 227/294/179
f 227/294/180 228/293/180 230/295/180 229/296/180
f 229/296/181 230/295/181 232/297/181 231/298/181
f 231/298/182 232/297/182 234/299/182 233/300/182
f 233/300/183 234/299/183 236/301/183 235/302/183
f 235/302/184 236/301/184 238/303/184 237/304/184
f 237/304/185 238/303/185 240/305/185 239/306/185
f 239/306/186 240/305/186 242/307/186 241/308/186
f 241/308/187 242/307/187 244/309/187 243/310/187
f 243/310/188 244/309/188 246/311/188 245/312/188
f 245/312/189 246/311/189 248/313/189 247/314/189
f 247/314/190 248/313/190 250/315/190 249/316/190
f 249/316/191 250/315/191 252/317/191 251/318/191
f 251/318/192 252/317/192 254/319/192 253/320/192
f 196/321/193 194/322/193 256/323/193 254/324/193 252/325/193 250/326/193 248/327/193 246/328/193 244/329/193 242/330/193 240/331/193 238/332/193 236/333/193 234/334/193 232/335/193 230/336/193 228/337/193 226/338/193 224/339/193 222/340/193 220/341/193 218/342/193 216/343/193 214/344/193 212/345/193 210/346/193 208/347/193 206/348/193 204/349/193 202/350/193 200/351/193 198/352/193
f 253/320/194 254/319/194 256/353/194 255/354/194
f 255/354/195 256/353/195 194/355/195 193/356/195
f 193/357/196 195/358/196 197/359/196 199/360/196 201/361/196 203/362/196 205/363/196 207/364/196 209/365/196 211/366/196 213/367/196 215/368/196 217/369/196 219/370/196 221/371/196 223/372/196 225/373/196 227/374/196 229/375/196 231/376/196 233/377/196 235/378/196 237/379/196 239/380/196 241/381/196 243/382/196 245/383/196 247/384/196 249/385/196 251/386/196 253/387/196 255/388/196
o Cylinder.004
v 1.611661 0.561059 -0.468202
v 1.611661 0.722643 -0.656050
v 1.629876 0.562345 -0.467096
v 1.629876 0.723928 -0.654945
v 1.647391 0.566151 -0.463822
v 1.647391 0.727734 -0.651671
v 1.663533 0.572332 -0.458505
v 1.663533 0.733916 -0.646354
v 1.677682 0.580651 -0.451350
v 1.677682 0.742234 -0.639198
v 1.689293 0.590787 -0.442631
v 1.689293 0.752370 -0.630479
v 1.697922 0.602351 -0.432684
v 1.697922 0.763934 -0.620532
v 1.703235 0.614899 -0.421890
v 1.703235 0.776482 -0.609738
v 1.705029 0.627949 -0.410665
v 1.705029 0.789532 -0.598514
v 1.703235 0.640998 -0.399440
v 1.703235 0.802581 -0.587289
v 1.697922 0.653546 -0.388647
v 1.697922 0.815129 -0.576495
v 1.689293 0.665110 -0.378700
v 1.689293 0.826694 -0.566548
v 1.677682 0.675246 -0.369981
v 1.677682 0.836830 -0.557829
v 1.663533 0.683565 -0.362825
v 1.663533 0.845148 -0.550674
v 1.647391 0.689746 -0.357508
v 1.647391 0.851330 -0.545357
v 1.629876 0.693553 -0.354234
v 1.629876 0.855136 -0.542082
v 1.611661 0.694838 -0.353129
v 1.611661 0.856421 -0.540977
v 1.593446 0.693553 -0.354234
v 1.593446 0.855136 -0.542082
v 1.575931 0.689746 -0.357508
v 1.575931 0.851330 -0.545357
v 1.559789 0.683565 -0.362825
v 1.559789 0.845148 -0.550674
v 1.545641 0.675246 -0.369981
v 1.545641 0.836830 -0.557829
v 1.534029 0.665110 -0.378700
v 1.534029 0.826694 -0.566548
v 1.525401 0.653546 -0.388647
v 1.525401 0.815129 -0.576495
v 1.520088 0.640998 -0.399440
v 1.520088 0.802581 -0.587289
v 1.518294 0.627949 -0.410665
v 1.518294 0.789532 -0.598514
v 1.520088 0.614899 -0.421890
v 1.520088 0.776482 -0.609738
v 1.525401 0.602351 -0.432684
v 1.525401 0.763934 -0.620532
v 1.534029 0.590787 -0.442631
v 1.534029 0.752370 -0.630479
v 1.545641 0.580651 -0.451350
v 1.545641 0.742234 -0.639198
v 1.559789 0.572332 -0.458505
v 1.559789 0.733916 -0.646354
v 1.575931 0.566151 -0.463822
v 1.575931 0.727734 -0.651671
v 1.593446 0.562345 -0.467096
v 1.593446 0.723928 -0.654945
v 1.611661 0.619732 -0.581152
v 1.635900 0.621443 -0.579681
v 1.659207 0.626508 -0.575324
v 1.680686 0.634733 -0.568249
v 1.699513 0.645802 -0.558727
v 1.714964 0.659290 -0.547125
v 1.726446 0.674679 -0.533889
v 1.733516 0.691376 -0.519526
v 1.735903 0.708740 -0.504589
v 1.733516 0.726105 -0.489653
v 1.726446 0.742802 -0.475290
v 1.714964 0.758190 -0.462053
v 1.699513 0.771678 -0.450451
v 1.680686 0.782748 -0.440930
v 1.659207 0.790973 -0.433855
v 1.635900 0.796038 -0.429498
v 1.611661 0.797748 -0.428027
v 1.587423 0.796038 -0.429498
v 1.564116 0.790973 -0.433855
v 1.542636 0.782748 -0.440930
v 1.523809 0.771678 -0.450451
v 1.508358 0.758190 -0.462053
v 1.496877 0.742802 -0.475290
v 1.489807 0.726105 -0.489653
v 1.487420 0.708740 -0.504589
v 1.489807 0.691376 -0.519526
v 1.496877 0.674679 -0.533889
v 1.508358 0.659290 -0.547125
v 1.523809 0.645802 -0.558727
v 1.542636 0.634733 -0.568249
v 1.564116 0.626508 -0.575324
v 1.587423 0.621443 -0.579681
vn 0.0902 -0.5861 -0.8052
vn 0.2682 -0.5599 -0.7839
vn 0.4387 -0.5079 -0.7413
vn 0.5960 -0.4307 -0.6778
vn 0.7338 -0.3296 -0.5941
vn 0.8455 -0.2075 -0.4921
vn 0.9244 -0.0687 -0.3751
vn 0.9654 0.0806 -0.2480
vn 0.9654 0.2332 -0.1168
vn 0.9244 0.3812 0.0119
vn 0.8455 0.5176 0.1316
vn 0.7338 0.6367 0.2371
vn 0.5960 0.7345 0.3245
vn 0.4387 0.8089 0.3914
vn 0.2682 0.8588 0.4365
vn 0.0902 0.8838 0.4591
vn -0.0902 0.8838 0.4591
vn -0.2682 0.8588 0.4365
vn -0.4387 0.8089 0.3914
vn -0.5960 0.7345 0.3245
vn -0.7338 0.6367 0.2371
vn -0.8455 0.5176 0.1316
vn -0.9244 0.3812 0.0119
vn -0.9654 0.2332 -0.1168
vn -0.9654 0.0806 -0.2480
vn -0.9244 -0.0687 -0.3751
vn -0.8455 -0.2075 -0.4921
vn -0.7338 -0.3296 -0.5941
vn -0.5960 -0.4307 -0.6778
vn -0.4387 -0.5079 -0.7413
vn -0.0000 0.6521 -0.7581
vn -0.2682 -0.5599 -0.7839
vn -0.0902 -0.5861 -0.8052
vn -0.0000 -0.6521 0.7581
vn -0.0902 -0.8838 -0.4591
vn -0.2682 -0.8588 -0.4365
vn -0.4387 -0.8089 -0.3914
vn -0.5960 -0.7345 -0.3245
vn -0.7338 -0.6367 -0.2371
vn -0.8455 -0.5176 -0.1316
vn -0.9244 -0.3812 -0.0119
vn -0.9654 -0.2332 0.1168
vn -0.9654 -0.0806 0.2480
vn -0.9244 0.0687 0.3751
vn -0.8455 0.2075 0.4921
vn -0.7338 0.3296 0.5941
vn -0.5960 0.4307 0.6778
vn -0.4387 0.5079 0.7413
vn -0.2682 0.5599 0.7839
vn -0.0902 0.5861 0.8052
vn 0.0902 0.5861 0.8052
vn 0.2682 0.5599 0.7839
vn 0.4387 0.5079 0.7413
vn 0.5960 0.4307 0.6778
vn 0.7338 0.3296 0.5941
vn 0.8455 0.2075 0.4921
vn 0.9244 0.0687 0.3751
vn 0.9654 -0.0806 0.2480
vn 0.9654 -0.2332 0.1168
vn 0.9244 -0.3812 -0.0119
vn 0.8455 -0.5176 -0.1316
vn 0.7338 -0.6367 -0.2371
vn 0.5960 -0.7345 -0.3245
vn 0.4387 -0.8089 -0.3914
vn 0.2682 -0.8588 -0.4365
vn 0.0902 -0.8838 -0.4591
vt 1.000000 0.750000
vt 1.000000 1.000000
vt 0.968750 1.000000
vt 0.968750 0.750000
vt 0.937500 1.000000
vt 0.937500 0.750000
vt 0.906250 1.000000
vt 0.906250 0.750000
vt 0.875000 1.000000
vt 0.875000 0.750000
vt 0.843750 1.000000
vt 0.843750 0.750000
vt 0.812500 1.000000
vt 0.812500 0.750000
vt 0.781250 1.000000
vt 0.781250 0.750000
vt 0.750000 1.000000
vt 0.750000 0.750000
vt 0.718750 1.000000
vt 0.718750 0.750000
vt 0.687500 1.000000
vt 0.687500 0.750000
vt 0.656250 1.000000
vt 0.656250 0.750000
vt 0.625000 1.000000
vt 0.625000 0.750000
vt 0.593750 1.000000
vt 0.593750 0.750000
vt 0.562500 1.000000
vt 0.562500 0.750000
vt 0.531250 1.000000
vt 0.531250 0.750000
vt 0.500000 1.000000
vt 0.500000 0.750000
vt 0.468750 1.000000
vt 0.468750 0.750000
vt 0.437500 1.000000
vt 0.437500 0.750000
vt 0.406250 1.000000
vt 0.406250 0.750000
vt 0.375000 1.000000
vt 0.375000 0.750000
vt 0.343750 1.000000
vt 0.343750 0.750000
vt 0.312500 1.000000
vt 0.312500 0.750000
vt 0.281250 1.000000
vt 0.281250 0.750000
vt 0.250000 1.000000
vt 0.250000 0.750000
vt 0.218750 1.000000
vt 0.218750 0.750000
vt 0.187500 1.000000
vt 0.187500 0.750000
vt 0.156250 1.000000
vt 0.156250 0.750000
vt 0.125000 1.000000
vt 0.125000 0.750000
vt 0.093750 1.000000
vt 0.093750 0.750000
vt 0.062500 1.000000
vt 0.062500 0.750000
vt 0.296822 0.485388
vt 0.250000 0.490000
vt 0.203178 0.485388
vt 0.158156 0.471731
vt 0.116663 0.449553
vt 0.080294 0.419706
vt 0.050447 0.383337
vt 0.028269 0.341844
vt 0.014612 0.296822
vt 0.010000 0.250000
vt 0.014612 0.203178
vt 0.028269 0.158156
vt 0.050447 0.116663
vt 0.080294 0.080294
vt 0.116663 0.050447
vt 0.158156 0.028269
vt 0.203178 0.014612
vt 0.250000 0.010000
vt 0.296822 0.014612
vt 0.341844 0.028269
vt 0.383337 0.050447
vt 0.419706 0.080294
vt 0.449553 0.116663
vt 0.471731 0.158156
vt 0.485388 0.203178
vt 0.490000 0.250000
vt 0.485388 0.296822
vt 0.471731 0.341844
vt 0.449553 0.383337
vt 0.419706 0.419706
vt 0.383337 0.449553
vt 0.341844 0.471731
vt 0.031250 1.000000
vt 0.031250 0.750000
vt 0.000000 1.000000
vt 0.000000 0.750000
vt 0.750000 0.490000
vt 0.796822 0.485388
vt 0.841844 0.471731
vt 0.883337 0.449553
vt 0.919706 0.419706
vt 0.949553 0.383337
vt 0.971731 0.341844
vt 0.985388 0.296822
vt 0.990000 0.250000
vt 0.985388 0.203178
vt 0.971731 0.158156
vt 0.949553 0.116663
vt 0.919706 0.080294
vt 0.883337 0.050447
vt 0.841844 0.028269
vt 0.796822 0.014612
vt 0.750000 0.010000
vt 0.703178 0.014612
vt 0.658156 0.028269
vt 0.616663 0.050447
vt 0.580294 0.080294
vt 0.550447 0.116663
vt 0.528269 0.158156
vt 0.514612 0.203178
vt 0.510000 0.250000
vt 0.514612 0.296822
vt 0.528269 0.341844
vt 0.550447 0.383337
vt 0.580294 0.419706
vt 0.616663 0.449553
vt 0.658156 0.471731
vt 0.703178 0.485388
vt 0.031250 0.500000
vt 0.000000 0.500000
vt 0.062500 0.500000
vt 0.093750 0.500000
vt 0.125000 0.500000
vt 0.156250 0.500000
vt 0.187500 0.500000
vt 0.218750 0.500000
vt 0.250000 0.500000
vt 0.281250 0.500000
vt 0.312500 0.500000
vt 0.343750 0.500000
vt 0.375000 0.500000
vt 0.406250 0.500000
vt 0.437500 0.500000
vt 0.468750 0.500000
vt 0.500000 0.500000
vt 0.531250 0.500000
vt 0.562500 0.500000
vt 0.593750 0.500000
vt 0.625000 0.500000
vt 0.656250 0.500000
vt 0.687500 0.500000
vt 0.718750 0.500000
vt 0.750000 0.500000
vt 0.781250 0.500000
vt 0.812500 0.500000
vt 0.843750 0.500000
vt 0.875000 0.500000
vt 0.906250 0.500000
vt 0.937500 0.500000
vt 0.968750 0.500000
vt 1.000000 0.500000
s 0
f 321/389/197 258/390/197 260/391/197 322/392/197
f 322/392/198 260/391/198 262/393/198 323/394/198
f 323/394/199 262/393/199 264/395/199 324/396/199
f 324/396/200 264/395/200 266/397/200 325/398/200
f 325/398/201 266/397/201 268/399/201 326/400/201
f 326/400/202 268/399/202 270/401/202 327/402/202
f 327/402/203 270/401/203 272/403/203 328/404/203
f 328/404/204 272/403/204 274/405/204 329/406/204
f 329/406/205 274/405/205 276/407/205 330/408/205
f 330/408/206 276/407/206 278/409/206 331/410/206
f 331/410/207 278/409/207 280/411/207 332/412/207
f 332/412/208 280/411/208 282/413/208 333/414/208
f 333/414/209 282/413/209 284/415/209 334/416/209
f 334/416/210 284/415/210 286/417/210 335/418/210
f 335/418/211 286/417/211 288/419/211 336/420/211
f 336/420/212 288/419/212 290/421/212 337/422/212
f 337/422/213 290/421/213 292/423/213 338/424/213
f 338/424/214 292/423/214 294/425/214 339/426/214
f 339/426/215 294/425/215 296/427/215 340/428/215
f 340/428/216 296/427/216 298/429/216 341/430/216
f 341/430/217 298/429/217 300/431/217 342/432/217
f 342/432/218 300/431/218 302/433/218 343/434/218
f 343/434/219 302/433/219 304/435/219 344/436/219
f 344/436/220 304/435/220 306/437/220 345/438/220
f 345/438/221 306/437/221 308/439/221 346/440/221
f 346/440/222 308/439/222 310/441/222 347/442/222
f 347/442/223 310/441/223 312/443/223 348/444/223
f 348/444/224 312/443/224 314/445/224 349/446/224
f 349/446/225 314/445/225 316/447/225 350/448/225
f 350/448/226 316/447/226 318/449/226 351/450/226
f 260/451/227 258/452/227 320/453/227 318/454/227 316/455/227 314/456/227 312/457/227 310/458/227 308/459/227 306/460/227 304/461/227 302/462/227 300/463/227 298/464/227 296/465/227 294/466/227 292/467/227 290/468/227 288/469/227 286/470/227 284/471/227 282/472/227 280/473/227 278/474/227 276/475/227 274/476/227 272/477/227 270/478/227 268/479/227 266/480/227 264/481/227 262/482/227
f 351/450/228 318/449/228 320/483/228 352/484/228
f 352/484/229 320/483/229 258/485/229 321/486/229
f 257/487/230 259/488/230 261/489/230 263/490/230 265/491/230 267/492/230 269/493/230 271/494/230 273/495/230 275/496/230 277/497/230 279/498/230 281/499/230 283/500/230 285/501/230 287/502/230 289/503/230 291/504/230 293/505/230 295/506/230 297/507/230 299/508/230 301/509/230 303/510/230 305/511/230 307/512/230 309/513/230 311/514/230 313/515/230 315/516/230 317/517/230 319/518/230
f 319/519/231 352/484/231 321/486/231 257/520/231
f 317/521/232 351/450/232 352/484/232 319/519/232
f 315/522/233 350/448/233 351/450/233 317/521/233
f 313/523/234 349/446/234 350/448/234 315/522/234
f 311/524/235 348/444/235 349/446/235 313/523/235
f 309/525/236 347/442/236 348/444/236 311/524/236
f 307/526/237 346/440/237 347/442/237 309/525/237
f 305/527/238 345/438/238 346/440/238 307/526/238
f 303/528/239 344/436/239 345/438/239 305/527/239
f 301/529/240 343/434/240 344/436/240 303/528/240
f 299/530/241 342/432/241 343/434/241 301/529/241
f 297/531/242 341/430/242 342/432/242 299/530/242
f 295/532/243 340/428/243 341/430/243 297/531/243
f 293/533/244 339/426/244 340/428/244 295/532/244
f 291/534/245 338/424/245 339/426/245 293/533/245
f 289/535/246 337/422/246 338/424/246 291/534/246
f 287/536/247 336/420/247 337/422/247 289/535/247
f 285/537/248 335/418/248 336/420/248 287/536/248
f 283/538/249 334/416/249 335/418/249 285/537/249
f 281/539/250 333/414/250 334/416/250 283/538/250
f 279/540/251 332/412/251 333/414/251 281/539/251
f 277/541/252 331/410/252 332/412/252 279/540/252
f 275/542/253 330/408/253 331/410/253 277/541/253
f 273/543/254 329/406/254 330/408/254 275/542/254
f 271/544/255 328/404/255 329/406/255 273/543/255
f 269/545/256 327/402/256 328/404/256 271/544/256
f 267/546/257 326/400/257 327/402/257 269/545/257
f 265/547/258 325/398/258 326/400/258 267/546/258
f 263/548/259 324/396/259 325/398/259 265/547/259
f 261/549/260 323/394/260 324/396/260 263/548/260
f 259/550/261 322/392/261 323/394/261 261/549/261
f 257/551/262 321/389/262 322/392/262 259/550/262
o Cylinder
v 1.611661 1.734972 -1.760552
v 1.611661 1.726253 -1.787349
v 1.637255 1.728179 -1.785612
v 1.632626 1.736551 -1.759129
v 1.661866 1.733886 -1.780469
v 1.652785 1.741225 -1.754916
v 1.684547 1.743153 -1.772116
v 1.671364 1.748816 -1.748074
v 1.704427 1.755624 -1.760876
v 1.687648 1.759032 -1.738866
v 1.720742 1.770821 -1.747179
v 1.701013 1.771480 -1.727647
v 1.732865 1.788158 -1.731552
v 1.710943 1.785681 -1.714847
v 1.740331 1.806970 -1.714596
v 1.717058 1.801091 -1.700958
v 1.742852 1.826534 -1.696963
v 1.719123 1.817116 -1.686514
v 1.740331 1.846098 -1.679329
v 1.717058 1.833142 -1.672069
v 1.732865 1.864910 -1.662373
v 1.710943 1.848551 -1.658180
v 1.720742 1.882248 -1.646747
v 1.701013 1.862753 -1.645380
v 1.704427 1.897444 -1.633050
v 1.687648 1.875200 -1.634161
v 1.684547 1.909915 -1.621809
v 1.671364 1.885416 -1.624953
v 1.661866 1.919182 -1.613456
v 1.652785 1.893007 -1.618111
v 1.637255 1.924889 -1.608313
v 1.632626 1.897681 -1.613898
v 1.611661 1.926816 -1.606576
v 1.611661 1.899260 -1.612475
v 1.586067 1.924889 -1.608313
v 1.590697 1.897681 -1.613898
v 1.561457 1.919182 -1.613456
v 1.570537 1.893007 -1.618111
v 1.538776 1.909915 -1.621809
v 1.551959 1.885416 -1.624953
v 1.518896 1.897444 -1.633050
v 1.535674 1.875200 -1.634161
v 1.502581 1.882248 -1.646747
v 1.522310 1.862753 -1.645380
v 1.490457 1.864910 -1.662373
v 1.512380 1.848551 -1.658180
v 1.482992 1.846098 -1.679329
v 1.506264 1.833142 -1.672069
v 1.480471 1.826534 -1.696963
v 1.504200 1.817116 -1.686514
v 1.482992 1.806970 -1.714596
v 1.506264 1.801091 -1.700958
v 1.490457 1.788158 -1.731552
v 1.512380 1.785681 -1.714847
v 1.502581 1.770821 -1.747179
v 1.522310 1.771480 -1.727647
v 1.518896 1.755624 -1.760876
v 1.535674 1.759032 -1.738866
v 1.538776 1.743153 -1.772116
v 1.551959 1.748816 -1.748074
v 1.561457 1.733886 -1.780469
v 1.570537 1.741225 -1.754916
v 1.586067 1.728179 -1.785612
v 1.590697 1.736551 -1.759129
v 1.714001 1.840846 -1.665125
v 1.736598 1.855504 -1.670851
v 1.611661 1.873938 -1.845720
v 1.611661 1.836315 -1.866239
v 1.611661 1.794241 -1.862781
v 1.611661 1.823144 -1.869059
v 1.623867 1.874857 -1.844892
v 1.631769 1.837829 -1.864875
v 1.633982 1.824825 -1.867544
v 1.637255 1.796168 -1.861044
v 1.635603 1.877579 -1.842439
v 1.651105 1.842312 -1.860834
v 1.655445 1.829802 -1.863059
v 1.661866 1.801875 -1.855901
v 1.646420 1.881998 -1.838455
v 1.668924 1.849593 -1.854272
v 1.675225 1.837883 -1.855774
v 1.684547 1.811142 -1.847548
v 1.655900 1.887945 -1.833095
v 1.684543 1.859391 -1.845440
v 1.692563 1.848760 -1.845971
v 1.704427 1.823613 -1.836307
v 1.663681 1.895193 -1.826563
v 1.697361 1.871330 -1.834679
v 1.706791 1.862013 -1.834026
v 1.720742 1.838809 -1.822611
v 1.669462 1.903461 -1.819111
v 1.706886 1.884952 -1.822402
v 1.717364 1.877133 -1.820398
v 1.732865 1.856147 -1.806984
v 1.673023 1.912432 -1.811025
v 1.712751 1.899732 -1.809081
v 1.723875 1.893539 -1.805611
v 1.740331 1.874959 -1.790028
v 1.674225 1.921762 -1.802615
v 1.714732 1.915102 -1.795227
v 1.726073 1.910601 -1.790232
v 1.742852 1.894523 -1.772395
v 1.673023 1.931092 -1.794206
v 1.712751 1.930473 -1.781373
v 1.723875 1.927662 -1.774854
v 1.740331 1.914087 -1.754761
v 1.669462 1.940063 -1.786120
v 1.706886 1.945253 -1.768051
v 1.732865 1.932899 -1.737805
v 1.717364 1.944069 -1.760067
v 1.663681 1.948331 -1.778668
v 1.697361 1.958874 -1.755774
v 1.706791 1.959189 -1.746439
v 1.720742 1.950236 -1.722179
v 1.655900 1.955578 -1.772136
v 1.684543 1.970813 -1.745013
v 1.692563 1.972441 -1.734494
v 1.704427 1.965433 -1.708482
v 1.646420 1.961525 -1.766775
v 1.668924 1.980611 -1.736182
v 1.675225 1.983318 -1.724691
v 1.684547 1.977904 -1.697241
v 1.635603 1.965945 -1.762792
v 1.651105 1.987892 -1.729620
v 1.655445 1.991400 -1.717406
v 1.661866 1.987171 -1.688888
v 1.623867 1.968666 -1.760339
v 1.631769 1.992375 -1.725578
v 1.633982 1.996376 -1.712921
v 1.637255 1.992878 -1.683745
v 1.611661 1.969585 -1.759511
v 1.611661 1.993889 -1.724214
v 1.611661 1.998057 -1.711406
v 1.611661 1.994805 -1.682008
v 1.599456 1.968666 -1.760339
v 1.591553 1.992375 -1.725578
v 1.589341 1.996376 -1.712921
v 1.586067 1.992878 -1.683745
v 1.587719 1.965945 -1.762792
v 1.572218 1.987892 -1.729620
v 1.567878 1.991400 -1.717406
v 1.561457 1.987171 -1.688888
v 1.576903 1.961525 -1.766775
v 1.554398 1.980611 -1.736182
v 1.548097 1.983318 -1.724691
v 1.538776 1.977904 -1.697241
v 1.567422 1.955578 -1.772136
v 1.538779 1.970813 -1.745013
v 1.530760 1.972441 -1.734494
v 1.518896 1.965433 -1.708482
v 1.559642 1.948331 -1.778668
v 1.525961 1.958874 -1.755774
v 1.516531 1.959189 -1.746439
v 1.502581 1.950236 -1.722179
v 1.553860 1.940063 -1.786120
v 1.516437 1.945253 -1.768051
v 1.505959 1.944069 -1.760067
v 1.490457 1.932899 -1.737805
v 1.550300 1.931092 -1.794206
v 1.510571 1.930473 -1.781373
v 1.499448 1.927662 -1.774854
v 1.482992 1.914087 -1.754761
v 1.549098 1.921762 -1.802615
v 1.508591 1.915102 -1.795227
v 1.497249 1.910601 -1.790232
v 1.480471 1.894523 -1.772395
v 1.550300 1.912432 -1.811025
v 1.510571 1.899732 -1.809080
v 1.499448 1.893539 -1.805611
v 1.482992 1.874959 -1.790028
v 1.553860 1.903461 -1.819111
v 1.516437 1.884952 -1.822402
v 1.505959 1.877133 -1.820398
v 1.490457 1.856147 -1.806984
v 1.559642 1.895193 -1.826563
v 1.525961 1.871330 -1.834679
v 1.516531 1.862013 -1.834026
v 1.502581 1.838809 -1.822611
v 1.567422 1.887945 -1.833095
v 1.538779 1.859391 -1.845440
v 1.530760 1.848760 -1.845971
v 1.518896 1.823613 -1.836307
v 1.576903 1.881998 -1.838455
v 1.554398 1.849593 -1.854272
v 1.548097 1.837883 -1.855774
v 1.538776 1.811142 -1.847548
v 1.587719 1.877579 -1.842439
v 1.572218 1.842312 -1.860834
v 1.567878 1.829802 -1.863059
v 1.561457 1.801875 -1.855901
v 1.599456 1.874857 -1.844892
v 1.591553 1.837829 -1.864875
v 1.589341 1.824825 -1.867544
v 1.586067 1.796168 -1.861044
v 1.671242 1.935577 -1.790163
v 1.709819 1.937863 -1.774712
v 1.720619 1.935866 -1.767460
v 1.736598 1.923493 -1.746283
vn 0.0505 -0.9497 0.3090
vn 0.1496 -0.9350 0.3217
vn 0.2426 -0.9061 0.3465
vn 0.3261 -0.8645 0.3824
vn 0.3968 -0.8119 0.4282
vn 0.4521 -0.7505 0.4820
vn 0.4900 -0.6828 0.5418
vn 0.5094 -0.6114 0.6056
vn 0.5094 -0.5390 0.6708
vn 0.4900 -0.4682 0.7353
vn 0.4521 -0.4017 0.7964
vn 0.3968 -0.3418 0.8519
vn 0.3261 -0.2909 0.8995
vn 0.2426 -0.2508 0.9371
vn 0.1496 -0.2232 0.9632
vn 0.0505 -0.2091 0.9766
vn -0.0505 -0.2091 0.9766
vn -0.1496 -0.2232 0.9632
vn -0.2426 -0.2508 0.9371
vn -0.3261 -0.2909 0.8995
vn -0.3968 -0.3418 0.8519
vn -0.4521 -0.4017 0.7964
vn -0.4900 -0.4682 0.7353
vn -0.5094 -0.5390 0.6708
vn -0.5094 -0.6114 0.6056
vn -0.4900 -0.6828 0.5418
vn -0.4521 -0.7505 0.4820
vn -0.3968 -0.8119 0.4282
vn -0.3261 -0.8645 0.3824
vn -0.2426 -0.9061 0.3465
vn -0.1496 -0.9350 0.3217
vn -0.0505 -0.9497 0.3090
vn 0.0820 -0.2115 -0.9739
vn 0.0235 0.4787 -0.8777
vn 0.2425 -0.1882 -0.9517
vn 0.0696 0.4852 -0.8716
vn 0.3928 -0.1425 -0.9085
vn 0.1131 0.4981 -0.8597
vn 0.5268 -0.0768 -0.8465
vn 0.1521 0.5168 -0.8425
vn 0.6395 0.0063 -0.7688
vn 0.1853 0.5407 -0.8206
vn 0.7271 0.1033 -0.6787
vn 0.2114 0.5687 -0.7949
vn 0.7869 0.2105 -0.5800
vn 0.2293 0.5999 -0.7665
vn 0.8172 0.3242 -0.4765
vn 0.2384 0.6331 -0.7365
vn 0.8172 0.4404 -0.3718
vn 0.2384 0.6670 -0.7059
vn 0.7869 0.5551 -0.2694
vn 0.2293 0.7003 -0.6760
vn 0.7271 0.6644 -0.1730
vn 0.2114 0.7318 -0.6479
vn 0.6395 0.7640 -0.0858
vn 0.1853 0.7602 -0.6227
vn 0.5268 0.8499 -0.0113
vn 0.1521 0.7844 -0.6013
vn 0.3928 0.9184 0.0477
vn 0.1131 0.8035 -0.5844
vn 0.2425 0.9661 0.0886
vn 0.0696 0.8167 -0.5729
vn 0.0820 0.9906 0.1096
vn 0.0235 0.8234 -0.5670
vn -0.0820 0.9906 0.1096
vn -0.0235 0.8234 -0.5670
vn -0.2425 0.9661 0.0886
vn -0.0696 0.8167 -0.5729
vn -0.3928 0.9184 0.0477
vn -0.1131 0.8035 -0.5844
vn -0.5268 0.8499 -0.0113
vn -0.1521 0.7844 -0.6013
vn -0.6395 0.7640 -0.0858
vn -0.1853 0.7602 -0.6227
vn -0.7271 0.6644 -0.1730
vn -0.2114 0.7318 -0.6479
vn -0.7869 0.5551 -0.2694
vn -0.2293 0.7003 -0.6760
vn -0.8172 0.4404 -0.3718
vn -0.2384 0.6670 -0.7059
vn -0.8172 0.3242 -0.4765
vn -0.2384 0.6331 -0.7365
vn -0.7869 0.2105 -0.5800
vn -0.2293 0.5999 -0.7665
vn -0.7271 0.1033 -0.6787
vn -0.2114 0.5687 -0.7949
vn -0.6395 0.0063 -0.7688
vn -0.1853 0.5407 -0.8206
vn -0.5268 -0.0768 -0.8465
vn -0.1521 0.5168 -0.8425
vn -0.3928 -0.1425 -0.9085
vn -0.1131 0.4981 -0.8597
vn -0.2425 -0.1882 -0.9517
vn -0.0696 0.4852 -0.8716
vn -0.0820 -0.2115 -0.9739
vn -0.0235 0.4787 -0.8777
vn 0.1008 -0.7390 -0.6661
vn -0.0000 -0.6695 0.7428
vn -0.1008 -0.7390 -0.6661
vn 0.2980 -0.7091 -0.6391
vn 0.4820 -0.6508 -0.5866
vn 0.6452 -0.5675 -0.5115
vn 0.7818 -0.4631 -0.4174
vn 0.8874 -0.3424 -0.3086
vn 0.9592 -0.2100 -0.1893
vn 0.9955 -0.0708 -0.0638
vn 0.9955 0.0708 0.0638
vn 0.9592 0.2100 0.1893
vn 0.8874 0.3424 0.3086
vn 0.7818 0.4631 0.4174
vn 0.6452 0.5675 0.5115
vn 0.4820 0.6508 0.5866
vn 0.2980 0.7091 0.6391
vn 0.1008 0.7390 0.6661
vn -0.1008 0.7390 0.6661
vn -0.2980 0.7091 0.6391
vn -0.4820 0.6508 0.5866
vn -0.6452 0.5675 0.5115
vn -0.7818 0.4631 0.4174
vn -0.8874 0.3424 0.3086
vn -0.9592 0.2100 0.1893
vn -0.9955 0.0708 0.0638
vn -0.9955 -0.0708 -0.0638
vn -0.9592 -0.2100 -0.1893
vn -0.8874 -0.3424 -0.3086
vn -0.7818 -0.4631 -0.4174
vn -0.6452 -0.5675 -0.5115
vn -0.4820 -0.6508 -0.5866
vn -0.2980 -0.7091 -0.6391
vn -0.0505 0.2091 -0.9766
vn 0.0505 0.2091 -0.9766
vn -0.0000 0.6695 -0.7428
vn 0.1496 0.2232 -0.9632
vn 0.2426 0.2508 -0.9371
vn 0.3261 0.2909 -0.8995
vn 0.3968 0.3418 -0.8519
vn 0.4521 0.4017 -0.7964
vn 0.4900 0.4682 -0.7353
vn 0.5094 0.5390 -0.6708
vn 0.5094 0.6114 -0.6056
vn 0.4900 0.6828 -0.5418
vn 0.4521 0.7505 -0.4820
vn 0.3968 0.8119 -0.4282
vn 0.3261 0.8645 -0.3824
vn 0.2426 0.9061 -0.3465
vn 0.1496 0.9350 -0.3217
vn 0.0505 0.9497 -0.3090
vn -0.0505 0.9497 -0.3090
vn -0.1496 0.9350 -0.3217
vn -0.2426 0.9061 -0.3465
vn -0.3261 0.8645 -0.3824
vn -0.3968 0.8119 -0.4282
vn -0.4521 0.7505 -0.4820
vn -0.4900 0.6828 -0.5418
vn -0.5094 0.6114 -0.6056
vn -0.5094 0.5390 -0.6708
vn -0.4900 0.4682 -0.7353
vn -0.4521 0.4017 -0.7964
vn -0.3968 0.3418 -0.8519
vn -0.3261 0.2909 -0.8995
vn -0.2426 0.2508 -0.9371
vn -0.1496 0.2232 -0.9632
vt 0.750000 0.490000
vt 0.796822 0.485388
vt 0.788353 0.442813
vt 0.750000 0.446591
vt 0.841844 0.471731
vt 0.825232 0.431626
vt 0.883337 0.449553
vt 0.859220 0.413459
vt 0.919706 0.419706
vt 0.889011 0.389011
vt 0.949553 0.383337
vt 0.913460 0.359220
vt 0.971731 0.341844
vt 0.931626 0.325232
vt 0.985388 0.296822
vt 0.942814 0.288353
vt 0.990000 0.250000
vt 0.946591 0.250000
vt 0.985388 0.203178
vt 0.942814 0.211647
vt 0.978560 0.180667
vt 0.971731 0.158156
vt 0.931626 0.174768
vt 0.937220 0.193207
vt 0.949553 0.116663
vt 0.913459 0.140780
vt 0.919706 0.080294
vt 0.889011 0.110989
vt 0.883337 0.050447
vt 0.859220 0.086541
vt 0.841844 0.028269
vt 0.825232 0.068374
vt 0.796822 0.014612
vt 0.788353 0.057186
vt 0.750000 0.010000
vt 0.750000 0.053409
vt 0.703178 0.014612
vt 0.711647 0.057186
vt 0.658156 0.028269
vt 0.674768 0.068374
vt 0.616663 0.050447
vt 0.640780 0.086541
vt 0.580294 0.080294
vt 0.610989 0.110989
vt 0.550447 0.116663
vt 0.586541 0.140780
vt 0.528269 0.158156
vt 0.568374 0.174768
vt 0.514612 0.203178
vt 0.557186 0.211647
vt 0.510000 0.250000
vt 0.553409 0.250000
vt 0.514612 0.296822
vt 0.557187 0.288353
vt 0.528269 0.341844
vt 0.568374 0.325232
vt 0.550447 0.383337
vt 0.586541 0.359220
vt 0.580294 0.419706
vt 0.610989 0.389011
vt 0.616663 0.449553
vt 0.640780 0.413459
vt 0.658156 0.471731
vt 0.674768 0.431626
vt 0.703178 0.485388
vt 0.711647 0.442814
vt 0.296822 0.485388
vt 0.250000 0.490000
vt 0.250000 0.459305
vt 0.290833 0.455283
vt 0.250000 0.364454
vt 0.272329 0.362254
vt 0.286786 0.434934
vt 0.250000 0.438558
vt 0.341844 0.471731
vt 0.330098 0.443373
vt 0.293799 0.355741
vt 0.322158 0.424204
vt 0.383337 0.449553
vt 0.366284 0.424031
vt 0.313587 0.345165
vt 0.354757 0.406780
vt 0.419706 0.419706
vt 0.398001 0.398001
vt 0.330931 0.330931
vt 0.383330 0.383330
vt 0.449553 0.383337
vt 0.424031 0.366284
vt 0.345165 0.313587
vt 0.406780 0.354757
vt 0.471731 0.341844
vt 0.443373 0.330098
vt 0.355741 0.293800
vt 0.424204 0.322158
vt 0.485388 0.296822
vt 0.455283 0.290833
vt 0.362254 0.272329
vt 0.434934 0.286786
vt 0.490000 0.250000
vt 0.459305 0.250000
vt 0.364454 0.250000
vt 0.438557 0.250000
vt 0.485388 0.203178
vt 0.455283 0.209167
vt 0.362255 0.227671
vt 0.434934 0.213214
vt 0.478560 0.180667
vt 0.449328 0.189534
vt 0.358998 0.216936
vt 0.429569 0.195528
vt 0.449553 0.116663
vt 0.471731 0.158156
vt 0.443373 0.169902
vt 0.424031 0.133716
vt 0.355741 0.206201
vt 0.345165 0.186413
vt 0.406780 0.145243
vt 0.424204 0.177842
vt 0.419706 0.080294
vt 0.398001 0.101999
vt 0.330931 0.169069
vt 0.383330 0.116670
vt 0.383337 0.050447
vt 0.366284 0.075969
vt 0.313587 0.154835
vt 0.354757 0.093220
vt 0.341844 0.028269
vt 0.330098 0.056627
vt 0.293800 0.144259
vt 0.322158 0.075796
vt 0.296822 0.014612
vt 0.290833 0.044717
vt 0.272329 0.137746
vt 0.286786 0.065066
vt 0.250000 0.010000
vt 0.250000 0.040695
vt 0.250000 0.135546
vt 0.250000 0.061442
vt 0.203178 0.014612
vt 0.209167 0.044717
vt 0.227671 0.137746
vt 0.213214 0.065066
vt 0.158156 0.028269
vt 0.169902 0.056627
vt 0.206201 0.144259
vt 0.177842 0.075796
vt 0.116663 0.050447
vt 0.133716 0.075969
vt 0.186413 0.154835
vt 0.145243 0.093220
vt 0.080294 0.080294
vt 0.101999 0.101999
vt 0.169069 0.169069
vt 0.116670 0.116670
vt 0.050447 0.116663
vt 0.075969 0.133716
vt 0.154835 0.186413
vt 0.093220 0.145243
vt 0.028269 0.158156
vt 0.056627 0.169902
vt 0.144259 0.206201
vt 0.075796 0.177842
vt 0.014612 0.203178
vt 0.044717 0.209167
vt 0.137746 0.227671
vt 0.065066 0.213214
vt 0.010000 0.250000
vt 0.040695 0.250000
vt 0.135546 0.250000
vt 0.061442 0.250000
vt 0.014612 0.296822
vt 0.044717 0.290833
vt 0.137746 0.272329
vt 0.065066 0.286786
vt 0.028269 0.341844
vt 0.056627 0.330098
vt 0.144259 0.293800
vt 0.075796 0.322158
vt 0.050447 0.383337
vt 0.075969 0.366284
vt 0.154835 0.313587
vt 0.093220 0.354757
vt 0.080294 0.419706
vt 0.101999 0.398001
vt 0.169069 0.330931
vt 0.116670 0.383330
vt 0.116663 0.449553
vt 0.133716 0.424031
vt 0.186413 0.345165
vt 0.145243 0.406780
vt 0.158156 0.471731
vt 0.169902 0.443373
vt 0.206201 0.355741
vt 0.177842 0.424204
vt 0.203178 0.485388
vt 0.209167 0.455283
vt 0.227671 0.362254
vt 0.213214 0.434934
vt 1.000000 0.545000
vt 1.000000 0.869852
vt 0.968750 0.869852
vt 0.968750 0.545000
vt 0.031250 0.545000
vt 0.031250 0.869852
vt 0.000000 0.869852
vt 0.000000 0.545000
vt 0.937500 0.869852
vt 0.937500 0.545000
vt 0.906250 0.869852
vt 0.906250 0.545000
vt 0.875000 0.869852
vt 0.875000 0.545000
vt 0.843750 0.869852
vt 0.843750 0.545000
vt 0.812500 0.869852
vt 0.812500 0.545000
vt 0.781250 0.869852
vt 0.781250 0.545000
vt 0.750000 0.869852
vt 0.750000 0.545000
vt 0.718750 0.869852
vt 0.718750 0.545000
vt 0.703125 0.869852
vt 0.703125 0.545000
vt 0.687500 0.869852
vt 0.687500 0.545000
vt 0.656250 0.869852
vt 0.656250 0.545000
vt 0.625000 0.869852
vt 0.625000 0.545000
vt 0.593750 0.869852
vt 0.593750 0.545000
vt 0.562500 0.869852
vt 0.562500 0.545000
vt 0.531250 0.869852
vt 0.531250 0.545000
vt 0.500000 0.869852
vt 0.500000 0.545000
vt 0.468750 0.869852
vt 0.468750 0.545000
vt 0.437500 0.869852
vt 0.437500 0.545000
vt 0.406250 0.869852
vt 0.406250 0.545000
vt 0.375000 0.869852
vt 0.375000 0.545000
vt 0.343750 0.869852
vt 0.343750 0.545000
vt 0.312500 0.869852
vt 0.312500 0.545000
vt 0.281250 0.869852
vt 0.281250 0.545000
vt 0.250000 0.869852
vt 0.250000 0.545000
vt 0.218750 0.869852
vt 0.218750 0.545000
vt 0.187500 0.869852
vt 0.187500 0.545000
vt 0.156250 0.869852
vt 0.156250 0.545000
vt 0.125000 0.869852
vt 0.125000 0.545000
vt 0.093750 0.869852
vt 0.093750 0.545000
vt 0.062500 0.869852
vt 0.062500 0.545000
s 0
f 354/552/263 355/553/263 356/554/263 353/555/263
f 355/553/264 357/556/264 358/557/264 356/554/264
f 357/556/265 359/558/265 360/559/265 358/557/265
f 359/558/266 361/560/266 362/561/266 360/559/266
f 361/560/267 363/562/267 364/563/267 362/561/267
f 363/562/268 365/564/268 366/565/268 364/563/268
f 365/564/269 367/566/269 368/567/269 366/565/269
f 367/566/270 369/568/270 370/569/270 368/567/270
f 369/568/271 371/570/271 372/571/271 370/569/271
f 418/572/272 373/573/272 374/574/272 417/575/272
f 373/573/273 375/576/273 376/577/273 374/574/273
f 375/576/274 377/578/274 378/579/274 376/577/274
f 377/578/275 379/580/275 380/581/275 378/579/275
f 379/580/276 381/582/276 382/583/276 380/581/276
f 381/582/277 383/584/277 384/585/277 382/583/277
f 383/584/278 385/586/278 386/587/278 384/585/278
f 385/586/279 387/588/279 388/589/279 386/587/279
f 387/588/280 389/590/280 390/591/280 388/589/280
f 389/590/281 391/592/281 392/593/281 390/591/281
f 391/592/282 393/594/282 394/595/282 392/593/282
f 393/594/283 395/596/283 396/597/283 394/595/283
f 395/596/284 397/598/284 398/599/284 396/597/284
f 397/598/285 399/600/285 400/601/285 398/599/285
f 399/600/286 401/602/286 402/603/286 400/601/286
f 401/602/287 403/604/287 404/605/287 402/603/287
f 403/604/288 405/606/288 406/607/288 404/605/288
f 405/606/289 407/608/289 408/609/289 406/607/289
f 407/608/290 409/610/290 410/611/290 408/609/290
f 409/610/291 411/612/291 412/613/291 410/611/291
f 411/612/292 413/614/292 414/615/292 412/613/292
f 413/614/293 415/616/293 416/617/293 414/615/293
f 415/616/294 354/552/294 353/555/294 416/617/294
f 371/570/272 418/572/272 417/575/272 372/571/272
f 426/618/295 421/619/295 422/620/295 425/621/295
f 419/622/296 423/623/296 424/624/296 420/625/296
f 430/626/297 426/618/297 425/621/297 429/627/297
f 423/623/298 427/628/298 428/629/298 424/624/298
f 434/630/299 430/626/299 429/627/299 433/631/299
f 427/628/300 431/632/300 432/633/300 428/629/300
f 438/634/301 434/630/301 433/631/301 437/635/301
f 431/632/302 435/636/302 436/637/302 432/633/302
f 442/638/303 438/634/303 437/635/303 441/639/303
f 435/636/304 439/640/304 440/641/304 436/637/304
f 446/642/305 442/638/305 441/639/305 445/643/305
f 439/640/306 443/644/306 444/645/306 440/641/306
f 450/646/307 446/642/307 445/643/307 449/647/307
f 443/644/308 447/648/308 448/649/308 444/645/308
f 454/650/309 450/646/309 449/647/309 453/651/309
f 447/648/310 451/652/310 452/653/310 448/649/310
f 458/654/311 454/650/311 453/651/311 457/655/311
f 451/652/312 455/656/312 456/657/312 452/653/312
f 550/658/313 458/654/313 457/655/313 549/659/313
f 455/656/314 547/660/314 548/661/314 456/657/314
f 466/662/315 461/663/315 462/664/315 465/665/315
f 459/666/316 463/667/316 464/668/316 460/669/316
f 470/670/317 466/662/317 465/665/317 469/671/317
f 463/667/318 467/672/318 468/673/318 464/668/318
f 474/674/319 470/670/319 469/671/319 473/675/319
f 467/672/320 471/676/320 472/677/320 468/673/320
f 478/678/321 474/674/321 473/675/321 477/679/321
f 471/676/322 475/680/322 476/681/322 472/677/322
f 482/682/323 478/678/323 477/679/323 481/683/323
f 475/680/324 479/684/324 480/685/324 476/681/324
f 486/686/325 482/682/325 481/683/325 485/687/325
f 479/684/326 483/688/326 484/689/326 480/685/326
f 490/690/327 486/686/327 485/687/327 489/691/327
f 483/688/328 487/692/328 488/693/328 484/689/328
f 494/694/329 490/690/329 489/691/329 493/695/329
f 487/692/330 491/696/330 492/697/330 488/693/330
f 498/698/331 494/694/331 493/695/331 497/699/331
f 491/696/332 495/700/332 496/701/332 492/697/332
f 502/702/333 498/698/333 497/699/333 501/703/333
f 495/700/334 499/704/334 500/705/334 496/701/334
f 506/706/335 502/702/335 501/703/335 505/707/335
f 499/704/336 503/708/336 504/709/336 500/705/336
f 510/710/337 506/706/337 505/707/337 509/711/337
f 503/708/338 507/712/338 508/713/338 504/709/338
f 514/714/339 510/710/339 509/711/339 513/715/339
f 507/712/340 511/716/340 512/717/340 508/713/340
f 518/718/341 514/714/341 513/715/341 517/719/341
f 511/716/342 515/720/342 516/721/342 512/717/342
f 522/722/343 518/718/343 517/719/343 521/723/343
f 515/720/344 519/724/344 520/725/344 516/721/344
f 526/726/345 522/722/345 521/723/345 525/727/345
f 519/724/346 523/728/346 524/729/346 520/725/346
f 530/730/347 526/726/347 525/727/347 529/731/347
f 523/728/348 527/732/348 528/733/348 524/729/348
f 534/734/349 530/730/349 529/731/349 533/735/349
f 527/732/350 531/736/350 532/737/350 528/733/350
f 538/738/351 534/734/351 533/735/351 537/739/351
f 531/736/352 535/740/352 536/741/352 532/737/352
f 542/742/353 538/738/353 537/739/353 541/743/353
f 535/740/354 539/744/354 540/745/354 536/741/354
f 546/746/355 542/742/355 541/743/355 545/747/355
f 539/744/356 543/748/356 544/749/356 540/745/356
f 421/619/357 546/746/357 545/747/357 422/620/357
f 543/748/358 419/622/358 420/625/358 544/749/358
f 461/663/313 550/658/313 549/659/313 462/664/313
f 547/660/314 459/666/314 460/669/314 548/661/314
f 354/750/359 421/751/359 426/752/359 355/753/359
f 353/555/360 356/554/360 358/557/360 360/559/360 362/561/360 364/563/360 366/565/360 368/567/360 370/569/360 372/571/360 417/575/360 374/574/360 376/577/360 378/579/360 380/581/360 382/583/360 384/585/360 386/587/360 388/589/360 390/591/360 392/593/360 394/595/360 396/597/360 398/599/360 400/601/360 402/603/360 404/605/360 406/607/360 408/609/360 410/611/360 412/613/360 414/615/360 416/617/360
f 415/754/361 546/755/361 421/756/361 354/757/361
f 355/753/362 426/752/362 430/758/362 357/759/362
f 357/759/363 430/758/363 434/760/363 359/761/363
f 359/761/364 434/760/364 438/762/364 361/763/364
f 361/763/365 438/762/365 442/764/365 363/765/365
f 363/765/366 442/764/366 446/766/366 365/767/366
f 365/767/367 446/766/367 450/768/367 367/769/367
f 367/769/368 450/768/368 454/770/368 369/771/368
f 369/771/369 454/770/369 458/772/369 371/773/369
f 371/773/370 458/772/370 550/774/370 418/775/370
f 418/775/370 550/774/370 461/776/370 373/777/370
f 373/777/371 461/776/371 466/778/371 375/779/371
f 375/779/372 466/778/372 470/780/372 377/781/372
f 377/781/373 470/780/373 474/782/373 379/783/373
f 379/783/374 474/782/374 478/784/374 381/785/374
f 381/785/375 478/784/375 482/786/375 383/787/375
f 383/787/376 482/786/376 486/788/376 385/789/376
f 385/789/377 486/788/377 490/790/377 387/791/377
f 387/791/378 490/790/378 494/792/378 389/793/378
f 389/793/379 494/792/379 498/794/379 391/795/379
f 391/795/380 498/794/380 502/796/380 393/797/380
f 393/797/381 502/796/381 506/798/381 395/799/381
f 395/799/382 506/798/382 510/800/382 397/801/382
f 397/801/383 510/800/383 514/802/383 399/803/383
f 399/803/384 514/802/384 518/804/384 401/805/384
f 401/805/385 518/804/385 522/806/385 403/807/385
f 403/807/386 522/806/386 526/808/386 405/809/386
f 405/809/387 526/808/387 530/810/387 407/811/387
f 407/811/388 530/810/388 534/812/388 409/813/388
f 409/813/389 534/812/389 538/814/389 411/815/389
f 411/815/390 538/814/390 542/816/390 413/817/390
f 413/817/391 542/816/391 546/755/391 415/754/391
f 422/620/392 545/747/392 544/749/392 420/625/392
f 425/621/393 422/620/393 420/625/393 424/624/393
f 423/623/394 419/622/394 543/748/394 539/744/394 535/740/394 531/736/394 527/732/394 523/728/394 519/724/394 515/720/394 511/716/394 507/712/394 503/708/394 499/704/394 495/700/394 491/696/394 487/692/394 483/688/394 479/684/394 475/680/394 471/676/394 467/672/394 463/667/394 459/666/394 547/660/394 455/656/394 451/652/394 447/648/394 443/644/394 439/640/394 435/636/394 431/632/394 427/628/394
f 429/627/395 425/621/395 424/624/395 428/629/395
f 433/631/396 429/627/396 428/629/396 432/633/396
f 437/635/397 433/631/397 432/633/397 436/637/397
f 441/639/398 437/635/398 436/637/398 440/641/398
f 445/643/399 441/639/399 440/641/399 444/645/399
f 449/647/400 445/643/400 444/645/400 448/649/400
f 453/651/401 449/647/401 448/649/401 452/653/401
f 457/655/402 453/651/402 452/653/402 456/657/402
f 549/659/403 457/655/403 456/657/403 548/661/403
f 462/664/403 549/659/403 548/661/403 460/669/403
f 465/665/404 462/664/404 460/669/404 464/668/404
f 469/671/405 465/665/405 464/668/405 468/673/405
f 473/675/406 469/671/406 468/673/406 472/677/406
f 477/679/407 473/675/407 472/677/407 476/681/407
f 481/683/408 477/679/408 476/681/408 480/685/408
f 485/687/409 481/683/409 480/685/409 484/689/409
f 489/691/410 485/687/410 484/689/410 488/693/410
f 493/695/411 489/691/411 488/693/411 492/697/411
f 497/699/412 493/695/412 492/697/412 496/701/412
f 501/703/413 497/699/413 496/701/413 500/705/413
f 505/707/414 501/703/414 500/705/414 504/709/414
f 509/711/415 505/707/415 504/709/415 508/713/415
f 513/715/416 509/711/416 508/713/416 512/717/416
f 517/719/417 513/715/417 512/717/417 516/721/417
f 521/723/418 517/719/418 516/721/418 520/725/418
f 525/727/419 521/723/419 520/725/419 524/729/419
f 529/731/420 525/727/420 524/729/420 528/733/420
f 533/735/421 529/731/421 528/733/421 532/737/421
f 537/739/422 533/735/422 532/737/422 536/741/422
f 541/743/423 537/739/423 536/741/423 540/745/423
f 545/747/424 541/743/424 540/745/424 544/749/424
o Cylinder.001
v 1.611661 1.507534 -1.600688
v 1.644879 1.509897 -1.598493
v 1.676820 1.516895 -1.591992
v 1.706257 1.528259 -1.581436
v 1.732058 1.543552 -1.567229
v 1.753233 1.562186 -1.549918
v 1.768967 1.583447 -1.530168
v 1.778656 1.606515 -1.508738
v 1.781928 1.630506 -1.486452
v 1.778656 1.654497 -1.464165
v 1.768967 1.677565 -1.442735
v 1.753233 1.698826 -1.422985
v 1.732058 1.717460 -1.405674
v 1.706257 1.732754 -1.391468
v 1.676820 1.744117 -1.380911
v 1.644879 1.751115 -1.374410
v 1.611661 1.753478 -1.372215
v 1.578444 1.751115 -1.374410
v 1.546503 1.744117 -1.380911
v 1.517066 1.732754 -1.391468
v 1.491264 1.717460 -1.405674
v 1.470090 1.698826 -1.422985
v 1.454355 1.677565 -1.442735
v 1.444666 1.654497 -1.464165
v 1.441395 1.630506 -1.486452
v 1.444666 1.606515 -1.508738
v 1.454355 1.583447 -1.530168
v 1.470090 1.562186 -1.549918
v 1.491264 1.543552 -1.567229
v 1.517066 1.528259 -1.581436
v 1.546503 1.516895 -1.591992
v 1.578444 1.509897 -1.598493
v 1.773812 1.666031 -1.453450
v 1.611661 1.732511 -1.758468
v 1.611661 1.659279 -1.764037
v 1.633510 1.734065 -1.757024
v 1.644879 1.661642 -1.761842
v 1.654520 1.738668 -1.752748
v 1.676820 1.668640 -1.755341
v 1.673882 1.746142 -1.745805
v 1.706257 1.680004 -1.744785
v 1.690854 1.756202 -1.736460
v 1.732058 1.695297 -1.730578
v 1.704782 1.768459 -1.725074
v 1.753233 1.713932 -1.713267
v 1.715131 1.782443 -1.712083
v 1.768967 1.735192 -1.693517
v 1.721504 1.797616 -1.697987
v 1.778656 1.758261 -1.672087
v 1.723656 1.813397 -1.683328
v 1.781928 1.782251 -1.649801
v 1.721504 1.829177 -1.668669
v 1.778656 1.806242 -1.627514
v 1.715131 1.844350 -1.654573
v 1.768967 1.829311 -1.606084
v 1.704782 1.858335 -1.641582
v 1.753233 1.850571 -1.586335
v 1.690854 1.870592 -1.630196
v 1.732058 1.869205 -1.569024
v 1.673882 1.880651 -1.620851
v 1.706257 1.884499 -1.554817
v 1.654520 1.888126 -1.613907
v 1.676820 1.895862 -1.544260
v 1.633510 1.892729 -1.609632
v 1.644879 1.902860 -1.537760
v 1.611661 1.894283 -1.608188
v 1.611661 1.905223 -1.535565
v 1.589812 1.892729 -1.609632
v 1.578444 1.902860 -1.537760
v 1.568803 1.888126 -1.613907
v 1.546503 1.895862 -1.544260
v 1.549440 1.880651 -1.620851
v 1.517066 1.884499 -1.554817
v 1.532469 1.870592 -1.630196
v 1.491264 1.869205 -1.569024
v 1.518541 1.858335 -1.641582
v 1.470090 1.850571 -1.586335
v 1.508191 1.844350 -1.654573
v 1.454355 1.829311 -1.606084
v 1.501818 1.829177 -1.668669
v 1.444666 1.806242 -1.627514
v 1.499666 1.813397 -1.683328
v 1.441395 1.782251 -1.649801
v 1.501818 1.797616 -1.697987
v 1.444666 1.758261 -1.672087
v 1.508191 1.782443 -1.712083
v 1.454355 1.735192 -1.693517
v 1.518541 1.768459 -1.725074
v 1.470090 1.713932 -1.713267
v 1.532469 1.756202 -1.736460
v 1.491264 1.695297 -1.730578
v 1.549440 1.746142 -1.745805
v 1.517066 1.680004 -1.744785
v 1.568803 1.738668 -1.752748
v 1.546503 1.668640 -1.755341
v 1.589812 1.734065 -1.757024
v 1.578444 1.661642 -1.761842
v 1.718318 1.836764 -1.661621
v 1.773812 1.817776 -1.616799
vn -0.0000 -0.6806 0.7327
vn 0.0604 0.0757 -0.9953
vn 0.1789 0.0932 -0.9794
vn 0.2908 0.1277 -0.9482
vn 0.3917 0.1778 -0.9028
vn 0.4778 0.2417 -0.8446
vn 0.5456 0.3169 -0.7758
vn 0.5925 0.4005 -0.6990
vn 0.6165 0.4891 -0.6170
vn 0.6165 0.5794 -0.5332
vn 0.5925 0.6676 -0.4508
vn 0.5456 0.7504 -0.3731
vn 0.4778 0.8245 -0.3031
vn 0.3917 0.8872 -0.2437
vn 0.2908 0.9363 -0.1971
vn 0.1789 0.9699 -0.1650
vn 0.0604 0.9870 -0.1487
vn -0.0604 0.9870 -0.1487
vn -0.1789 0.9699 -0.1650
vn -0.2908 0.9363 -0.1971
vn -0.3917 0.8872 -0.2437
vn -0.4778 0.8245 -0.3031
vn -0.5456 0.7504 -0.3731
vn -0.5925 0.6676 -0.4508
vn -0.6165 0.5794 -0.5332
vn -0.6165 0.4891 -0.6170
vn -0.5925 0.4005 -0.6990
vn -0.5456 0.3169 -0.7758
vn -0.4778 0.2417 -0.8446
vn -0.3917 0.1778 -0.9028
vn -0.2908 0.1277 -0.9482
vn -0.1789 0.0932 -0.9794
vn -0.0604 0.0757 -0.9953
vn -0.0000 0.6806 -0.7327
vn 0.0966 -0.7292 -0.6774
vn -0.0966 -0.7292 -0.6774
vn 0.2865 -0.7019 -0.6521
vn 0.4662 -0.6482 -0.6021
vn 0.6290 -0.5696 -0.5291
vn 0.7685 -0.4688 -0.4355
vn 0.8791 -0.3492 -0.3244
vn 0.9558 -0.2155 -0.2002
vn 0.9950 -0.0728 -0.0677
vn 0.9950 0.0728 0.0677
vn 0.9558 0.2155 0.2002
vn 0.8791 0.3492 0.3244
vn 0.7685 0.4688 0.4355
vn 0.6290 0.5696 0.5291
vn 0.4662 0.6482 0.6021
vn 0.2865 0.7019 0.6521
vn 0.0966 0.7292 0.6774
vn -0.0966 0.7292 0.6774
vn -0.2865 0.7019 0.6521
vn -0.4662 0.6482 0.6021
vn -0.6290 0.5696 0.5291
vn -0.7685 0.4688 0.4355
vn -0.8791 0.3492 0.3244
vn -0.9558 0.2155 0.2002
vn -0.9950 0.0728 0.0677
vn -0.9950 -0.0728 -0.0677
vn -0.9558 -0.2155 -0.2002
vn -0.8791 -0.3492 -0.3244
vn -0.7685 -0.4688 -0.4355
vn -0.6290 -0.5696 -0.5291
vn -0.4662 -0.6482 -0.6021
vn -0.2865 -0.7019 -0.6521
vt 0.750000 0.490000
vt 0.796822 0.485388
vt 0.841844 0.471731
vt 0.883337 0.449553
vt 0.919706 0.419706
vt 0.949553 0.383337
vt 0.971731 0.341844
vt 0.985388 0.296822
vt 0.990000 0.250000
vt 0.985388 0.203178
vt 0.978560 0.180667
vt 0.971731 0.158156
vt 0.949553 0.116663
vt 0.919706 0.080294
vt 0.883337 0.050447
vt 0.841844 0.028269
vt 0.796822 0.014612
vt 0.750000 0.010000
vt 0.703178 0.014612
vt 0.658156 0.028269
vt 0.616663 0.050447
vt 0.580294 0.080294
vt 0.550447 0.116663
vt 0.528269 0.158156
vt 0.514612 0.203178
vt 0.510000 0.250000
vt 0.514612 0.296822
vt 0.528269 0.341844
vt 0.550447 0.383337
vt 0.580294 0.419706
vt 0.616663 0.449553
vt 0.658156 0.471731
vt 0.703178 0.485388
vt 0.296822 0.485388
vt 0.250000 0.490000
vt 0.250000 0.407863
vt 0.280797 0.404829
vt 0.341844 0.471731
vt 0.310411 0.395846
vt 0.383337 0.449553
vt 0.337704 0.381258
vt 0.419706 0.419706
vt 0.361626 0.361626
vt 0.449553 0.383337
vt 0.381258 0.337704
vt 0.471731 0.341844
vt 0.395846 0.310411
vt 0.485388 0.296822
vt 0.404829 0.280798
vt 0.490000 0.250000
vt 0.407863 0.250000
vt 0.485388 0.203178
vt 0.404829 0.219202
vt 0.478560 0.180667
vt 0.400338 0.204396
vt 0.449553 0.116663
vt 0.471731 0.158156
vt 0.395846 0.189589
vt 0.381258 0.162296
vt 0.419706 0.080294
vt 0.361626 0.138374
vt 0.383337 0.050447
vt 0.337704 0.118742
vt 0.341844 0.028269
vt 0.310411 0.104154
vt 0.296822 0.014612
vt 0.280798 0.095171
vt 0.250000 0.010000
vt 0.250000 0.092137
vt 0.203178 0.014612
vt 0.219203 0.095171
vt 0.158156 0.028269
vt 0.189589 0.104154
vt 0.116663 0.050447
vt 0.162296 0.118742
vt 0.080294 0.080294
vt 0.138374 0.138374
vt 0.050447 0.116663
vt 0.118742 0.162296
vt 0.028269 0.158156
vt 0.104154 0.189589
vt 0.014612 0.203178
vt 0.095171 0.219202
vt 0.010000 0.250000
vt 0.092137 0.250000
vt 0.014612 0.296822
vt 0.095171 0.280798
vt 0.028269 0.341844
vt 0.104154 0.310411
vt 0.050447 0.383337
vt 0.118742 0.337704
vt 0.080294 0.419706
vt 0.138374 0.361626
vt 0.116663 0.449553
vt 0.162296 0.381258
vt 0.158156 0.471731
vt 0.189589 0.395846
vt 0.203178 0.485388
vt 0.219202 0.404829
vt 1.000000 0.500000
vt 1.000000 0.914852
vt 0.968750 0.914852
vt 0.968750 0.500000
vt 0.031250 0.500000
vt 0.031250 0.914852
vt 0.000000 0.914852
vt 0.000000 0.500000
vt 0.937500 0.914852
vt 0.937500 0.500000
vt 0.906250 0.914852
vt 0.906250 0.500000
vt 0.875000 0.914852
vt 0.875000 0.500000
vt 0.843750 0.914852
vt 0.843750 0.500000
vt 0.812500 0.914852
vt 0.812500 0.500000
vt 0.781250 0.914852
vt 0.781250 0.500000
vt 0.750000 0.914852
vt 0.750000 0.500000
vt 0.718750 0.914852
vt 0.718750 0.500000
vt 0.703125 0.914852
vt 0.703125 0.500000
vt 0.687500 0.500000
vt 0.687500 0.914852
vt 0.656250 0.914852
vt 0.656250 0.500000
vt 0.625000 0.914852
vt 0.625000 0.500000
vt 0.593750 0.914852
vt 0.593750 0.500000
vt 0.562500 0.914852
vt 0.562500 0.500000
vt 0.531250 0.914852
vt 0.531250 0.500000
vt 0.500000 0.914852
vt 0.500000 0.500000
vt 0.468750 0.914852
vt 0.468750 0.500000
vt 0.437500 0.914852
vt 0.437500 0.500000
vt 0.406250 0.914852
vt 0.406250 0.500000
vt 0.375000 0.914852
vt 0.375000 0.500000
vt 0.343750 0.914852
vt 0.343750 0.500000
vt 0.312500 0.914852
vt 0.312500 0.500000
vt 0.281250 0.914852
vt 0.281250 0.500000
vt 0.250000 0.914852
vt 0.250000 0.500000
vt 0.218750 0.914852
vt 0.218750 0.500000
vt 0.187500 0.914852
vt 0.187500 0.500000
vt 0.156250 0.914852
vt 0.156250 0.500000
vt 0.125000 0.914852
vt 0.125000 0.500000
vt 0.093750 0.914852
vt 0.093750 0.500000
vt 0.062500 0.914852
vt 0.062500 0.500000
s 0
f 551/818/425 552/819/425 553/820/425 554/821/425 555/822/425 556/823/425 557/824/425 558/825/425 559/826/425 560/827/425 583/828/425 561/829/425 562/830/425 563/831/425 564/832/425 565/833/425 566/834/425 567/835/425 568/836/425 569/837/425 570/838/425 571/839/425 572/840/425 573/841/425 574/842/425 575/843/425 576/844/425 577/845/425 578/846/425 579/847/425 580/848/425 581/849/425 582/850/425
f 587/851/426 585/852/426 584/853/426 586/854/426
f 589/855/427 587/851/427 586/854/427 588/856/427
f 591/857/428 589/855/428 588/856/428 590/858/428
f 593/859/429 591/857/429 590/858/429 592/860/429
f 595/861/430 593/859/430 592/860/430 594/862/430
f 597/863/431 595/861/431 594/862/431 596/864/431
f 599/865/432 597/863/432 596/864/432 598/866/432
f 601/867/433 599/865/433 598/866/433 600/868/433
f 603/869/434 601/867/434 600/868/434 602/870/434
f 649/871/435 603/869/435 602/870/435 648/872/435
f 607/873/436 605/874/436 604/875/436 606/876/436
f 609/877/437 607/873/437 606/876/437 608/878/437
f 611/879/438 609/877/438 608/878/438 610/880/438
f 613/881/439 611/879/439 610/880/439 612/882/439
f 615/883/440 613/881/440 612/882/440 614/884/440
f 617/885/441 615/883/441 614/884/441 616/886/441
f 619/887/442 617/885/442 616/886/442 618/888/442
f 621/889/443 619/887/443 618/888/443 620/890/443
f 623/891/444 621/889/444 620/890/444 622/892/444
f 625/893/445 623/891/445 622/892/445 624/894/445
f 627/895/446 625/893/446 624/894/446 626/896/446
f 629/897/447 627/895/447 626/896/447 628/898/447
f 631/899/448 629/897/448 628/898/448 630/900/448
f 633/901/449 631/899/449 630/900/449 632/902/449
f 635/903/450 633/901/450 632/902/450 634/904/450
f 637/905/451 635/903/451 634/904/451 636/906/451
f 639/907/452 637/905/452 636/906/452 638/908/452
f 641/909/453 639/907/453 638/908/453 640/910/453
f 643/911/454 641/909/454 640/910/454 642/912/454
f 645/913/455 643/911/455 642/912/455 644/914/455
f 647/915/456 645/913/456 644/914/456 646/916/456
f 585/852/457 647/915/457 646/916/457 584/853/457
f 605/874/435 649/871/435 648/872/435 604/875/435
f 586/854/458 584/853/458 646/916/458 644/914/458 642/912/458 640/910/458 638/908/458 636/906/458 634/904/458 632/902/458 630/900/458 628/898/458 626/896/458 624/894/458 622/892/458 620/890/458 618/888/458 616/886/458 614/884/458 612/882/458 610/880/458 608/878/458 606/876/458 604/875/458 648/872/458 602/870/458 600/868/458 598/866/458 596/864/458 594/862/458 592/860/458 590/858/458 588/856/458
f 551/917/459 585/918/459 587/919/459 552/920/459
f 582/921/460 647/922/460 585/923/460 551/924/460
f 552/920/461 587/919/461 589/925/461 553/926/461
f 553/926/462 589/925/462 591/927/462 554/928/462
f 554/928/463 591/927/463 593/929/463 555/930/463
f 555/930/464 593/929/464 595/931/464 556/932/464
f 556/932/465 595/931/465 597/933/465 557/934/465
f 557/934/466 597/933/466 599/935/466 558/936/466
f 558/936/467 599/935/467 601/937/467 559/938/467
f 559/938/468 601/937/468 603/939/468 560/940/468
f 560/940/469 603/939/469 649/941/469 583/942/469
f 561/943/470 605/944/470 607/945/470 562/946/470
f 583/942/469 649/941/469 605/944/469 561/943/469
f 562/946/471 607/945/471 609/947/471 563/948/471
f 563/948/472 609/947/472 611/949/472 564/950/472
f 564/950/473 611/949/473 613/951/473 565/952/473
f 565/952/474 613/951/474 615/953/474 566/954/474
f 566/954/475 615/953/475 617/955/475 567/956/475
f 567/956/476 617/955/476 619/957/476 568/958/476
f 568/958/477 619/957/477 621/959/477 569/960/477
f 569/960/478 621/959/478 623/961/478 570/962/478
f 570/962/479 623/961/479 625/963/479 571/964/479
f 571/964/480 625/963/480 627/965/480 572/966/480
f 572/966/481 627/965/481 629/967/481 573/968/481
f 573/968/482 629/967/482 631/969/482 574/970/482
f 574/970/483 631/969/483 633/971/483 575/972/483
f 575/972/484 633/971/484 635/973/484 576/974/484
f 576/974/485 635/973/485 637/975/485 577/976/485
f 577/976/486 637/975/486 639/977/486 578/978/486
f 578/978/487 639/977/487 641/979/487 579/980/487
f 579/980/488 641/979/488 643/981/488 580/982/488
f 580/982/489 643/981/489 645/983/489 581/984/489
f 581/984/490 645/983/490 647/922/490 582/921/490
o Cube
v 1.182351 0.454943 -0.200434
v 1.185762 0.507017 -0.150726
v 1.145502 0.536611 -0.283463
v 1.148913 0.588685 -0.233755
v 2.110890 0.626455 -0.443822
v 2.114301 0.678530 -0.394114
v 2.074041 0.708124 -0.526851
v 2.077452 0.760198 -0.477143
vn -0.9522 -0.1759 0.2496
vn -0.3017 0.6686 -0.6797
vn 0.9522 0.1759 -0.2496
vn 0.3017 -0.6686 0.6797
vn -0.0473 -0.7225 -0.6897
vn 0.0473 0.7225 0.6897
vt 0.375000 0.000000
vt 0.625000 0.000000
vt 0.625000 0.250000
vt 0.375000 0.250000
vt 0.625000 0.500000
vt 0.375000 0.500000
vt 0.625000 0.750000
vt 0.375000 0.750000
vt 0.625000 1.000000
vt 0.375000 1.000000
vt 0.125000 0.500000
vt 0.125000 0.750000
vt 0.875000 0.500000
vt 0.875000 0.750000
s 0
f 650/985/491 651/986/491 653/987/491 652/988/491
f 652/988/492 653/987/492 657/989/492 656/990/492
f 656/990/493 657/989/493 655/991/493 654/992/493
f 654/992/494 655/991/494 651/993/494 650/994/494
f 652/995/495 656/990/495 654/992/495 650/996/495
f 657/989/496 653/997/496 651/998/496 655/991/496
o Cube.001
v 1.154921 0.619939 -0.371404
v 1.158331 0.672013 -0.321697
v 1.177557 0.699374 -0.456176
v 1.180967 0.751449 -0.406468
v 2.078836 0.463692 -0.271109
v 2.082246 0.515767 -0.221401
v 2.101472 0.543128 -0.355880
v 2.104882 0.595202 -0.306173
vn -0.9804 0.1658 -0.1064
vn 0.1913 0.6711 -0.7162
vn 0.9804 -0.1658 0.1064
vn -0.1913 -0.6711 0.7162
vn -0.0473 -0.7225 -0.6897
vn 0.0473 0.7225 0.6897
vt 0.375000 0.000000
vt 0.625000 0.000000
vt 0.625000 0.250000
vt 0.375000 0.250000
vt 0.625000 0.500000
vt 0.375000 0.500000
vt 0.625000 0.750000
vt 0.375000 0.750000
vt 0.625000 1.000000
vt 0.375000 1.000000
vt 0.125000 0.500000
vt 0.125000 0.750000
vt 0.875000 0.500000
vt 0.875000 0.750000
s 0
f 658/999/497 659/1000/497 661/1001/497 660/1002/497
f 660/1002/498 661/1001/498 665/1003/498 664/1004/498
f 664/1004/499 665/1003/499 663/1005/499 662/1006/499
f 662/1006/500 663/1005/500 659/1007/500 658/1008/500
f 660/1009/501 664/1004/501 662/1006/501 658/1010/501
f 665/1003/502 661/1011/502 659/1012/502 663/1005/502
o Cube.002
v 1.610231 1.156365 -1.057371
v 1.663893 1.172481 -1.043209
v 1.566830 1.234886 -0.982271
v 1.620491 1.251001 -0.968109
v 1.652436 -0.838012 1.052223
v 1.706097 -0.821897 1.066385
v 1.609034 -0.759492 1.127324
v 1.662696 -0.743376 1.141486
v 1.579354 0.234350 0.069534
v 1.650903 0.255837 0.088416
v 1.622024 0.157151 -0.004302
v 1.693573 0.178639 0.014581
v 1.581109 1.266699 -1.098421
v 1.641446 1.226543 -1.137591
v 1.646530 1.286347 -1.081156
v 1.586194 1.326503 -1.041985
v 1.565275 0.861941 -0.584558
v 1.660116 -0.362951 0.750928
v 1.631481 -0.813554 1.221705
v 1.626397 -0.873358 1.165270
v 1.691818 -0.853711 1.182535
v 1.686733 -0.913514 1.126100
v 1.639167 -0.469520 0.650598
v 1.681296 0.796508 -0.648739
v 1.591631 -0.383519 0.732854
v 1.633760 0.882509 -0.566484
v 1.612811 0.775940 -0.666813
v 1.707652 -0.448953 0.668672
v 1.685653 0.221267 0.055039
v 1.587274 0.191722 0.029075
v 1.665799 0.153421 -0.008705
v 1.607127 0.259568 0.092819
v 1.610585 1.429384 -1.251480
v 1.616833 -0.363786 0.765393
v 1.662342 -1.016396 1.335595
v 1.656094 0.776775 -0.681279
v 1.602674 -0.437568 0.695924
v 1.670253 0.850557 -0.611809
v 1.696913 -0.409266 0.720795
v 1.576014 0.822255 -0.636680
v 1.682754 -0.483048 0.651325
v 1.590173 0.896037 -0.567211
vn -0.6749 -0.4270 -0.6018
vn 0.9839 0.0712 -0.1641
vn 0.6704 0.6383 0.3784
vn -0.9884 0.1401 -0.0594
vn -0.8018 0.4311 0.4138
vn 0.1693 0.7228 0.6700
vn 0.2002 0.7017 0.6838
vn -0.8196 0.3954 0.4146
vn -0.9839 -0.0712 0.1641
vn 0.6749 0.4270 0.6018
vn 0.9884 -0.1401 0.0594
vn -0.6704 -0.6383 -0.3784
vn -0.1693 -0.7228 -0.6700
vn 0.8018 -0.4311 -0.4138
vn 0.8196 -0.3954 -0.4146
vn -0.2002 -0.7017 -0.6838
vn -0.9885 -0.1202 -0.0921
vn -0.9799 -0.1664 -0.1098
vn -0.8454 -0.4099 -0.3426
vn -0.8201 -0.4247 -0.3834
vn 0.8201 0.4247 0.3834
vn 0.8454 0.4099 0.3426
vn 0.9799 0.1664 0.1098
vn 0.9885 0.1202 0.0921
vn 0.8460 0.3819 0.3721
vn 0.8202 0.4230 0.3852
vn 0.9885 0.1184 0.0939
vn 0.9805 0.1385 0.1393
vn -0.9805 -0.1385 -0.1393
vn -0.9885 -0.1184 -0.0939
vn -0.8202 -0.4230 -0.3852
vn -0.8460 -0.3819 -0.3721
vn -0.1997 -0.7261 -0.6580
vn 0.8201 -0.4198 -0.3888
vn 0.8016 -0.4213 -0.4242
vn -0.1695 -0.7129 -0.6805
vn -0.8201 0.4198 0.3888
vn 0.1997 0.7261 0.6580
vn 0.1695 0.7129 0.6805
vn -0.8016 0.4213 0.4242
vt 0.375000 0.000000
vt 0.500000 0.000000
vt 0.500000 0.123264
vt 0.375000 0.125000
vt 0.625000 0.000000
vt 0.625000 0.125000
vt 0.625000 0.250000
vt 0.500000 0.232639
vt 0.375000 0.250000
vt 0.375000 0.375000
vt 0.500000 0.375000
vt 0.500000 0.439236
vt 0.375000 0.437500
vt 0.625000 0.375000
vt 0.625000 0.437500
vt 0.625000 0.500000
vt 0.500000 0.517361
vt 0.375000 0.500000
vt 0.500000 0.625000
vt 0.392361 0.625000
vt 0.607639 0.625000
vt 0.625000 0.750000
vt 0.500000 0.732639
vt 0.375000 0.750000
vt 0.375000 0.875000
vt 0.500000 0.875000
vt 0.500000 0.937500
vt 0.375000 0.937500
vt 0.625000 0.875000
vt 0.625000 0.937500
vt 0.625000 1.000000
vt 0.500000 1.000000
vt 0.375000 1.000000
vt 0.250000 0.500000
vt 0.312500 0.500000
vt 0.314236 0.625000
vt 0.250000 0.625000
vt 0.312500 0.750000
vt 0.250000 0.750000
vt 0.750000 0.500000
vt 0.812500 0.500000
vt 0.812500 0.625000
vt 0.750000 0.625000
vt 0.875000 0.500000
vt 0.875000 0.625000
vt 0.875000 0.750000
vt 0.812500 0.750000
vt 0.750000 0.750000
vt 0.687500 0.500000
vt 0.685764 0.625000
vt 0.687500 0.750000
vt 0.125000 0.500000
vt 0.187500 0.500000
vt 0.187500 0.625000
vt 0.125000 0.625000
vt 0.187500 0.750000
vt 0.125000 0.750000
vt 0.500000 0.810764
vt 0.375000 0.812500
vt 0.625000 0.812500
vt 0.500000 0.310764
vt 0.375000 0.312500
vt 0.625000 0.312500
s 0
f 666/1013/503 678/1016/503 698/1015/503 679/1014/503
f 679/1014/504 698/1015/504 680/1018/504 667/1017/504
f 698/1015/505 681/1020/505 669/1019/505 680/1018/505
f 678/1016/506 668/1021/506 681/1020/506 698/1015/506
f 674/1022/507 690/1025/507 699/1024/507 697/1023/507
f 697/1023/508 699/1024/508 683/1027/508 675/1026/508
f 699/1024/509 684/1029/509 673/1028/509 683/1027/509
f 690/1025/510 672/1030/510 684/1029/510 699/1024/510
f 672/1030/511 685/1032/511 700/1031/511 684/1029/511
f 684/1029/512 700/1031/512 686/1033/512 673/1028/512
f 700/1031/513 687/1035/513 671/1034/513 686/1033/513
f 685/1032/514 670/1036/514 687/1035/514 700/1031/514
f 676/1037/515 692/1040/515 701/1039/515 696/1038/515
f 696/1038/516 701/1039/516 689/1042/516 677/1041/516
f 701/1039/517 679/1044/517 667/1043/517 689/1042/517
f 692/1040/518 666/1045/518 679/1044/518 701/1039/518
f 674/1046/519 695/1049/519 702/1048/519 690/1047/519
f 690/1047/520 702/1048/520 685/1032/520 672/1030/520
f 702/1048/521 688/1050/521 670/1036/521 685/1032/521
f 695/1049/522 676/1051/522 688/1050/522 702/1048/522
f 675/1052/523 694/1055/523 703/1054/523 691/1053/523
f 691/1053/524 703/1054/524 680/1057/524 669/1056/524
f 703/1054/525 689/1059/525 667/1058/525 680/1057/525
f 694/1055/526 677/1060/526 689/1059/526 703/1054/526
f 673/1028/527 686/1033/527 704/1062/527 683/1061/527
f 683/1061/528 704/1062/528 694/1055/528 675/1052/528
f 704/1062/529 693/1063/529 677/1060/529 694/1055/529
f 686/1033/530 671/1034/530 693/1063/530 704/1062/530
f 668/1064/531 678/1067/531 705/1066/531 682/1065/531
f 682/1065/532 705/1066/532 695/1049/532 674/1046/532
f 705/1066/533 692/1068/533 676/1051/533 695/1049/533
f 678/1067/534 666/1069/534 692/1068/534 705/1066/534
f 670/1036/535 688/1071/535 706/1070/535 687/1035/535
f 687/1035/536 706/1070/536 693/1072/536 671/1034/536
f 706/1070/537 696/1038/537 677/1041/537 693/1072/537
f 688/1071/538 676/1037/538 696/1038/538 706/1070/538
f 668/1021/539 682/1074/539 707/1073/539 681/1020/539
f 681/1020/540 707/1073/540 691/1075/540 669/1019/540
f 707/1073/541 697/1023/541 675/1026/541 691/1075/541
f 682/1074/542 674/1022/542 697/1023/542 707/1073/542
