# Blender 5.2.0 LTS
# www.blender.org
mtllib temp_sword.mtl
o Cylinder
v 0.000000 -0.463788 -0.107562
v 0.000000 0.463788 -0.107562
v 0.014504 -0.463788 -0.105946
v 0.014504 0.463788 -0.105946
v 0.028450 -0.463788 -0.101162
v 0.028450 0.463788 -0.101162
v 0.041303 -0.463788 -0.093392
v 0.041303 0.463788 -0.093392
v 0.052569 -0.463788 -0.082937
v 0.052569 0.463788 -0.082937
v 0.061815 -0.463788 -0.070196
v 0.061815 0.463788 -0.070196
v 0.068685 -0.463788 -0.055661
v 0.068685 0.463788 -0.055661
v 0.072916 -0.463788 -0.039889
v 0.072916 0.463788 -0.039889
v 0.074344 -0.463788 -0.023487
v 0.074344 0.463788 -0.023487
v 0.072916 -0.463788 -0.007084
v 0.072916 0.463788 -0.007084
v 0.068685 -0.463788 0.008688
v 0.068685 0.463788 0.008688
v 0.061815 -0.463788 0.023223
v 0.061815 0.463788 0.023223
v 0.052569 -0.463788 0.035963
v 0.052569 0.463788 0.035963
v 0.041303 -0.463788 0.046419
v 0.041303 0.463788 0.046419
v 0.028450 -0.463788 0.054189
v 0.028450 0.463788 0.054189
v 0.014504 -0.463788 0.058973
v 0.014504 0.463788 0.058973
v 0.000000 -0.463788 0.060588
v 0.000000 0.463788 0.060588
v -0.014504 -0.463788 0.058973
v -0.014504 0.463788 0.058973
v -0.028450 -0.463788 0.054189
v -0.028450 0.463788 0.054189
v -0.041303 -0.463788 0.046419
v -0.041303 0.463788 0.046419
v -0.052569 -0.463788 0.035963
v -0.052569 0.463788 0.035963
v -0.061815 -0.463788 0.023223
v -0.061815 0.463788 0.023223
v -0.068685 -0.463788 0.008688
v -0.068685 0.463788 0.008688
v -0.072916 -0.463788 -0.007084
v -0.072916 0.463788 -0.007084
v -0.074344 -0.463788 -0.023487
v -0.074344 0.463788 -0.023487
v -0.072916 -0.463788 -0.039889
v -0.072916 0.463788 -0.039889
v -0.068685 -0.463788 -0.055661
v -0.068685 0.463788 -0.055661
v -0.061815 -0.463788 -0.070196
v -0.061815 0.463788 -0.070196
v -0.052569 -0.463788 -0.082937
v -0.052569 0.463788 -0.082937
v -0.041303 -0.463788 -0.093392
v -0.041303 0.463788 -0.093392
v -0.028450 -0.463788 -0.101162
v -0.028450 0.463788 -0.101162
v -0.014504 -0.463788 -0.105946
v -0.014504 0.463788 -0.105946
vn 0.1107 -0.0000 -0.9939
vn 0.3245 -0.0000 -0.9459
vn 0.5173 -0.0000 -0.8558
vn 0.6803 -0.0000 -0.7330
vn 0.8093 -0.0000 -0.5873
vn 0.9041 -0.0000 -0.4273
vn 0.9659 -0.0000 -0.2591
vn 0.9962 -0.0000 -0.0868
vn 0.9962 -0.0000 0.0868
vn 0.9659 -0.0000 0.2591
vn 0.9041 -0.0000 0.4273
vn 0.8093 -0.0000 0.5873
vn 0.6803 -0.0000 0.7330
vn 0.5173 -0.0000 0.8558
vn 0.3245 -0.0000 0.9459
vn 0.1107 -0.0000 0.9939
vn -0.1107 -0.0000 0.9939
vn -0.3245 -0.0000 0.9459
vn -0.5173 -0.0000 0.8558
vn -0.6803 -0.0000 0.7330
vn -0.8093 -0.0000 0.5873
vn -0.9041 -0.0000 0.4273
vn -0.9659 -0.0000 0.2591
vn -0.9962 -0.0000 0.0868
vn -0.9962 -0.0000 -0.0868
vn -0.9659 -0.0000 -0.2591
vn -0.9041 -0.0000 -0.4273
vn -0.8093 -0.0000 -0.5873
vn -0.6803 -0.0000 -0.7330
vn -0.5173 -0.0000 -0.8558
vn -0.0000 1.0000 -0.0000
vn -0.3245 -0.0000 -0.9459
vn -0.1107 -0.0000 -0.9939
vn -0.0000 -1.0000 -0.0000
vt 1.000000 0.500000
vt 1.000000 1.000000
vt 0.968750 1.000000
vt 0.968750 0.500000
vt 0.937500 1.000000
vt 0.937500 0.500000
vt 0.906250 1.000000
vt 0.906250 0.500000
vt 0.875000 1.000000
vt 0.875000 0.500000
vt 0.843750 1.000000
vt 0.843750 0.500000
vt 0.812500 1.000000
vt 0.812500 0.500000
vt 0.781250 1.000000
vt 0.781250 0.500000
vt 0.750000 1.000000
vt 0.750000 0.500000
vt 0.718750 1.000000
vt 0.718750 0.500000
vt 0.687500 1.000000
vt 0.687500 0.500000
vt 0.656250 1.000000
vt 0.656250 0.500000
vt 0.625000 1.000000
vt 0.625000 0.500000
vt 0.593750 1.000000
vt 0.593750 0.500000
vt 0.562500 1.000000
vt 0.562500 0.500000
vt 0.531250 1.000000
vt 0.531250 0.500000
vt 0.500000 1.000000
vt 0.500000 0.500000
vt 0.468750 1.000000
vt 0.468750 0.500000
vt 0.437500 1.000000
vt 0.437500 0.500000
vt 0.406250 1.000000
vt 0.406250 0.500000
vt 0.375000 1.000000
vt 0.375000 0.500000
vt 0.343750 1.000000
vt 0.343750 0.500000
vt 0.312500 1.000000
vt 0.312500 0.500000
vt 0.281250 1.000000
vt 0.281250 0.500000
vt 0.250000 1.000000
vt 0.250000 0.500000
vt 0.218750 1.000000
vt 0.218750 0.500000
vt 0.187500 1.000000
vt 0.187500 0.500000
vt 0.156250 1.000000
vt 0.156250 0.500000
vt 0.125000 1.000000
vt 0.125000 0.500000
vt 0.093750 1.000000
vt 0.093750 0.500000
vt 0.062500 1.000000
vt 0.062500 0.500000
vt 0.296822 0.485388
vt 0.250000 0.490000
vt 0.203178 0.485388
vt 0.158156 0.471731
vt 0.116663 0.449553
vt 0.080294 0.419706
vt 0.050447 0.383337
vt 0.028269 0.341844
vt 0.014612 0.296822
vt 0.010000 0.250000
vt 0.014612 0.203178
vt 0.028269 0.158156
vt 0.050447 0.116663
vt 0.080294 0.080294
vt 0.116663 0.050447
vt 0.158156 0.028269
vt 0.203178 0.014612
vt 0.250000 0.010000
vt 0.296822 0.014612
vt 0.341844 0.028269
vt 0.383337 0.050447
vt 0.419706 0.080294
vt 0.449553 0.116663
vt 0.471731 0.158156
vt 0.485388 0.203178
vt 0.490000 0.250000
vt 0.485388 0.296822
vt 0.471731 0.341844
vt 0.449553 0.383337
vt 0.419706 0.419706
vt 0.383337 0.449553
vt 0.341844 0.471731
vt 0.031250 1.000000
vt 0.031250 0.500000
vt 0.000000 1.000000
vt 0.000000 0.500000
vt 0.750000 0.490000
vt 0.796822 0.485388
vt 0.841844 0.471731
vt 0.883337 0.449553
vt 0.919706 0.419706
vt 0.949553 0.383337
vt 0.971731 0.341844
vt 0.985388 0.296822
vt 0.990000 0.250000
vt 0.985388 0.203178
vt 0.971731 0.158156
vt 0.949553 0.116663
vt 0.919706 0.080294
vt 0.883337 0.050447
vt 0.841844 0.028269
vt 0.796822 0.014612
vt 0.750000 0.010000
vt 0.703178 0.014612
vt 0.658156 0.028269
vt 0.616663 0.050447
vt 0.580294 0.080294
vt 0.550447 0.116663
vt 0.528269 0.158156
vt 0.514612 0.203178
vt 0.510000 0.250000
vt 0.514612 0.296822
vt 0.528269 0.341844
vt 0.550447 0.383337
vt 0.580294 0.419706
vt 0.616663 0.449553
vt 0.658156 0.471731
vt 0.703178 0.485388
s 0
f 1/1/1 2/2/1 4/3/1 3/4/1
f 3/4/2 4/3/2 6/5/2 5/6/2
f 5/6/3 6/5/3 8/7/3 7/8/3
f 7/8/4 8/7/4 10/9/4 9/10/4
f 9/10/5 10/9/5 12/11/5 11/12/5
f 11/12/6 12/11/6 14/13/6 13/14/6
f 13/14/7 14/13/7 16/15/7 15/16/7
f 15/16/8 16/15/8 18/17/8 17/18/8
f 17/18/9 18/17/9 20/19/9 19/20/9
f 19/20/10 20/19/10 22/21/10 21/22/10
f 21/22/11 22/21/11 24/23/11 23/24/11
f 23/24/12 24/23/12 26/25/12 25/26/12
f 25/26/13 26/25/13 28/27/13 27/28/13
f 27/28/14 28/27/14 30/29/14 29/30/14
f 29/30/15 30/29/15 32/31/15 31/32/15
f 31/32/16 32/31/16 34/33/16 33/34/16
f 33/34/17 34/33/17 36/35/17 35/36/17
f 35/36/18 36/35/18 38/37/18 37/38/18
f 37/38/19 38/37/19 40/39/19 39/40/19
f 39/40/20 40/39/20 42/41/20 41/42/20
f 41/42/21 42/41/21 44/43/21 43/44/21
f 43/44/22 44/43/22 46/45/22 45/46/22
f 45/46/23 46/45/23 48/47/23 47/48/23
f 47/48/24 48/47/24 50/49/24 49/50/24
f 49/50/25 50/49/25 52/51/25 51/52/25
f 51/52/26 52/51/26 54/53/26 53/54/26
f 53/54/27 54/53/27 56/55/27 55/56/27
f 55/56/28 56/55/28 58/57/28 57/58/28
f 57/58/29 58/57/29 60/59/29 59/60/29
f 59/60/30 60/59/30 62/61/30 61/62/30
f 4/63/31 2/64/31 64/65/31 62/66/31 60/67/31 58/68/31 56/69/31 54/70/31 52/71/31 50/72/31 48/73/31 46/74/31 44/75/31 42/76/31 40/77/31 38/78/31 36/79/31 34/80/31 32/81/31 30/82/31 28/83/31 26/84/31 24/85/31 22/86/31 20/87/31 18/88/31 16/89/31 14/90/31 12/91/31 10/92/31 8/93/31 6/94/31
f 61/62/32 62/61/32 64/95/32 63/96/32
f 63/96/33 64/95/33 2/97/33 1/98/33
f 1/99/34 3/100/34 5/101/34 7/102/34 9/103/34 11/104/34 13/105/34 15/106/34 17/107/34 19/108/34 21/109/34 23/110/34 25/111/34 27/112/34 29/113/34 31/114/34 33/115/34 35/116/34 37/117/34 39/118/34 41/119/34 43/120/34 45/121/34 47/122/34 49/123/34 51/124/34 53/125/34 55/126/34 57/127/34 59/128/34 61/129/34 63/130/34
o Cube
v -0.426292 0.382464 0.142117
v -0.426292 0.461089 0.142117
v -0.426292 0.382464 -0.139964
v -0.426292 0.461089 -0.139964
v 0.426292 0.382464 0.142117
v 0.426292 0.461089 0.142117
v 0.426292 0.382464 -0.139964
v 0.426292 0.461089 -0.139964
vn -1.0000 -0.0000 -0.0000
vn -0.0000 -0.0000 -1.0000
vn 1.0000 -0.0000 -0.0000
vn -0.0000 -0.0000 1.0000
vn -0.0000 -1.0000 -0.0000
vn -0.0000 1.0000 -0.0000
vt 0.375000 0.000000
vt 0.625000 0.000000
vt 0.625000 0.250000
vt 0.375000 0.250000
vt 0.625000 0.500000
vt 0.375000 0.500000
vt 0.625000 0.750000
vt 0.375000 0.750000
vt 0.625000 1.000000
vt 0.375000 1.000000
vt 0.125000 0.500000
vt 0.125000 0.750000
vt 0.875000 0.500000
vt 0.875000 0.750000
s 0
f 65/131/35 66/132/35 68/133/35 67/134/35
f 67/134/36 68/133/36 72/135/36 71/136/36
f 71/136/37 72/135/37 70/137/37 69/138/37
f 69/138/38 70/137/38 66/139/38 65/140/38
f 67/141/39 71/136/39 69/138/39 65/142/39
f 72/135/40 68/143/40 66/144/40 70/137/40
o Cube.001
v 0.409719 0.289387 0.116359
v 0.380047 0.216576 0.116359
v 0.409719 0.289387 -0.165723
v 0.380047 0.216576 -0.165723
v -0.379822 0.611140 0.116359
v -0.409494 0.538329 0.116359
v -0.379822 0.611140 -0.165723
v -0.409494 0.538329 -0.165723
vn 0.9261 -0.3774 -0.0000
vn -0.0000 -0.0000 -1.0000
vn -0.9261 0.3774 -0.0000
vn -0.0000 -0.0000 1.0000
vn 0.3774 0.9261 -0.0000
vn -0.3774 -0.9261 -0.0000
vt 0.375000 0.000000
vt 0.625000 0.000000
vt 0.625000 0.250000
vt 0.375000 0.250000
vt 0.625000 0.500000
vt 0.375000 0.500000
vt 0.625000 0.750000
vt 0.375000 0.750000
vt 0.625000 1.000000
vt 0.375000 1.000000
vt 0.125000 0.500000
vt 0.125000 0.750000
vt 0.875000 0.500000
vt 0.875000 0.750000
s 0
f 73/145/41 74/146/41 76/147/41 75/148/41
f 75/148/42 76/147/42 80/149/42 79/150/42
f 79/150/43 80/149/43 78/151/43 77/152/43
f 77/152/44 78/151/44 74/153/44 73/154/44
f 75/155/45 79/150/45 77/152/45 73/156/45
f 80/149/46 76/157/46 74/158/46 78/151/46
o Cube.002
v -0.367061 0.221960 0.111153
v -0.398494 0.294028 0.111153
v -0.367061 0.221960 -0.170928
v -0.398494 0.294028 -0.170928
v 0.414425 0.562807 0.111153
v 0.382993 0.634876 0.111153
v 0.414425 0.562807 -0.170928
v 0.382993 0.634876 -0.170928
vn -0.9166 -0.3998 -0.0000
vn -0.0000 -0.0000 -1.0000
vn 0.9166 0.3998 -0.0000
vn -0.0000 -0.0000 1.0000
vn 0.3998 -0.9166 -0.0000
vn -0.3998 0.9166 -0.0000
vt 0.375000 0.000000
vt 0.625000 0.000000
vt 0.625000 0.250000
vt 0.375000 0.250000
vt 0.625000 0.500000
vt 0.375000 0.500000
vt 0.625000 0.750000
vt 0.375000 0.750000
vt 0.625000 1.000000
vt 0.375000 1.000000
vt 0.125000 0.500000
vt 0.125000 0.750000
vt 0.875000 0.500000
vt 0.875000 0.750000
s 0
f 81/159/47 82/160/47 84/161/47 83/162/47
f 83/162/48 84/161/48 88/163/48 87/164/48
f 87/164/49 88/163/49 86/165/49 85/166/49
f 85/166/50 86/165/50 82/167/50 81/168/50
f 83/169/51 87/164/51 85/166/51 81/170/51
f 88/163/52 84/171/52 82/172/52 86/165/52
o Cube.003
v -0.033681 0.440290 0.095208
v -0.048924 2.177065 0.095208
v -0.033681 0.440290 -0.121864
v -0.048924 2.177065 -0.121864
v 0.037651 0.440916 0.095208
v 0.022407 2.177691 0.095208
v 0.037651 0.440916 -0.121864
v 0.022407 2.177691 -0.121864
vn -1.0000 -0.0088 -0.0000
vn -0.0000 -0.0000 -1.0000
vn 1.0000 0.0088 -0.0000
vn -0.0000 -0.0000 1.0000
vn 0.0088 -1.0000 -0.0000
vn -0.0088 1.0000 -0.0000
vt 0.375000 0.000000
vt 0.625000 0.000000
vt 0.625000 0.250000
vt 0.375000 0.250000
vt 0.625000 0.500000
vt 0.375000 0.500000
vt 0.625000 0.750000
vt 0.375000 0.750000
vt 0.625000 1.000000
vt 0.375000 1.000000
vt 0.125000 0.500000
vt 0.125000 0.750000
vt 0.875000 0.500000
vt 0.875000 0.750000
s 0
f 89/173/53 90/174/53 92/175/53 91/176/53
f 91/176/54 92/175/54 96/177/54 95/178/54
f 95/178/55 96/177/55 94/179/55 93/180/55
f 93/180/56 94/179/56 90/181/56 89/182/56
f 91/183/57 95/178/57 93/180/57 89/184/57
f 96/177/58 92/185/58 90/186/58 94/179/58
o Cylinder.001
v 0.130071 0.138873 -0.012333
v 1.187010 0.120259 -0.027642
v 0.129636 0.136149 -0.039064
v 1.186574 0.117535 -0.054373
v 0.129121 0.128081 -0.064767
v 1.186060 0.109467 -0.080076
v 0.128548 0.114979 -0.088453
v 1.185486 0.096365 -0.103762
v 0.127936 0.097347 -0.109213
v 1.184875 0.078733 -0.124522
v 0.127311 0.075862 -0.126248
v 1.184250 0.057249 -0.141557
v 0.126696 0.051351 -0.138904
v 1.183635 0.032737 -0.154213
v 0.126115 0.024754 -0.146694
v 1.183054 0.006140 -0.162003
v 0.125590 -0.002906 -0.149320
v 1.182528 -0.021519 -0.164629
v 0.125141 -0.030565 -0.146680
v 1.182080 -0.049179 -0.161989
v 0.124786 -0.057162 -0.138876
v 1.181724 -0.075776 -0.154185
v 0.124538 -0.081673 -0.126207
v 1.181476 -0.100287 -0.141517
v 0.124406 -0.103158 -0.109161
v 1.181345 -0.121772 -0.124470
v 0.124396 -0.120790 -0.088393
v 1.181335 -0.139404 -0.103702
v 0.124509 -0.133892 -0.064700
v 1.181447 -0.152506 -0.080009
v 0.124739 -0.141960 -0.038993
v 1.181678 -0.160574 -0.054303
v 0.125078 -0.144684 -0.012261
v 1.182017 -0.163298 -0.027570
v 0.125513 -0.141960 0.014470
v 1.182452 -0.160574 -0.000839
v 0.126028 -0.133892 0.040173
v 1.182966 -0.152506 0.024864
v 0.126602 -0.120790 0.063859
v 1.183540 -0.139404 0.048550
v 0.127213 -0.103158 0.084618
v 1.184151 -0.121772 0.069309
v 0.127838 -0.081673 0.101654
v 1.184777 -0.100287 0.086344
v 0.128453 -0.057162 0.114310
v 1.185392 -0.075776 0.099000
v 0.129034 -0.030565 0.122100
v 1.185973 -0.049179 0.106791
v 0.129559 -0.002906 0.124726
v 1.186498 -0.021519 0.109417
v 0.130008 0.024754 0.122086
v 1.186947 0.006140 0.106777
v 0.130364 0.051351 0.114282
v 1.187302 0.032737 0.098973
v 0.130612 0.075862 0.101613
v 1.187550 0.057249 0.086304
v 0.130743 0.097347 0.084567
v 1.187682 0.078733 0.069258
v 0.130753 0.114979 0.063799
v 1.187691 0.096365 0.048490
v 0.130641 0.128081 0.040106
v 1.187579 0.109467 0.024797
v 0.130410 0.136149 0.014399
v 1.187349 0.117535 -0.000910
vn 0.0160 0.9947 -0.1016
vn 0.0125 0.9540 -0.2997
vn 0.0084 0.8749 -0.4842
vn 0.0040 0.7621 -0.6474
vn -0.0004 0.6213 -0.7836
vn -0.0048 0.4589 -0.8885
vn -0.0089 0.2813 -0.9596
vn -0.0127 0.0947 -0.9954
vn -0.0161 -0.0947 -0.9954
vn -0.0189 -0.2813 -0.9594
vn -0.0209 -0.4589 -0.8883
vn -0.0223 -0.6213 -0.7833
vn -0.0228 -0.7621 -0.6470
vn -0.0224 -0.8749 -0.4837
vn -0.0211 -0.9540 -0.2992
vn -0.0190 -0.9947 -0.1011
vn -0.0160 -0.9947 0.1016
vn -0.0125 -0.9540 0.2997
vn -0.0084 -0.8749 0.4842
vn -0.0040 -0.7621 0.6474
vn 0.0004 -0.6213 0.7836
vn 0.0048 -0.4589 0.8885
vn 0.0089 -0.2813 0.9596
vn 0.0127 -0.0947 0.9954
vn 0.0161 0.0947 0.9954
vn 0.0189 0.2813 0.9594
vn 0.0209 0.4589 0.8883
vn 0.0223 0.6213 0.7833
vn 0.0228 0.7621 0.6470
vn 0.0224 0.8749 0.4837
vn 0.9997 -0.0176 -0.0145
vn 0.0211 0.9540 0.2992
vn 0.0190 0.9947 0.1011
vn -0.9997 0.0176 0.0145
vt 1.000000 0.500000
vt 1.000000 1.000000
vt 0.968750 1.000000
vt 0.968750 0.500000
vt 0.937500 1.000000
vt 0.937500 0.500000
vt 0.906250 1.000000
vt 0.906250 0.500000
vt 0.875000 1.000000
vt 0.875000 0.500000
vt 0.843750 1.000000
vt 0.843750 0.500000
vt 0.812500 1.000000
vt 0.812500 0.500000
vt 0.781250 1.000000
vt 0.781250 0.500000
vt 0.750000 1.000000
vt 0.750000 0.500000
vt 0.718750 1.000000
vt 0.718750 0.500000
vt 0.687500 1.000000
vt 0.687500 0.500000
vt 0.656250 1.000000
vt 0.656250 0.500000
vt 0.625000 1.000000
vt 0.625000 0.500000
vt 0.593750 1.000000
vt 0.593750 0.500000
vt 0.562500 1.000000
vt 0.562500 0.500000
vt 0.531250 1.000000
vt 0.531250 0.500000
vt 0.500000 1.000000
vt 0.500000 0.500000
vt 0.468750 1.000000
vt 0.468750 0.500000
vt 0.437500 1.000000
vt 0.437500 0.500000
vt 0.406250 1.000000
vt 0.406250 0.500000
vt 0.375000 1.000000
vt 0.375000 0.500000
vt 0.343750 1.000000
vt 0.343750 0.500000
vt 0.312500 1.000000
vt 0.312500 0.500000
vt 0.281250 1.000000
vt 0.281250 0.500000
vt 0.250000 1.000000
vt 0.250000 0.500000
vt 0.218750 1.000000
vt 0.218750 0.500000
vt 0.187500 1.000000
vt 0.187500 0.500000
vt 0.156250 1.000000
vt 0.156250 0.500000
vt 0.125000 1.000000
vt 0.125000 0.500000
vt 0.093750 1.000000
vt 0.093750 0.500000
vt 0.062500 1.000000
vt 0.062500 0.500000
vt 0.296822 0.485388
vt 0.250000 0.490000
vt 0.203178 0.485388
vt 0.158156 0.471731
vt 0.116663 0.449553
vt 0.080294 0.419706
vt 0.050447 0.383337
vt 0.028269 0.341844
vt 0.014612 0.296822
vt 0.010000 0.250000
vt 0.014612 0.203178
vt 0.028269 0.158156
vt 0.050447 0.116663
vt 0.080294 0.080294
vt 0.116663 0.050447
vt 0.158156 0.028269
vt 0.203178 0.014612
vt 0.250000 0.010000
vt 0.296822 0.014612
vt 0.341844 0.028269
vt 0.383337 0.050447
vt 0.419706 0.080294
vt 0.449553 0.116663
vt 0.471731 0.158156
vt 0.485388 0.203178
vt 0.490000 0.250000
vt 0.485388 0.296822
vt 0.471731 0.341844
vt 0.449553 0.383337
vt 0.419706 0.419706
vt 0.383337 0.449553
vt 0.341844 0.471731
vt 0.031250 1.000000
vt 0.031250 0.500000
vt 0.000000 1.000000
vt 0.000000 0.500000
vt 0.750000 0.490000
vt 0.796822 0.485388
vt 0.841844 0.471731
vt 0.883337 0.449553
vt 0.919706 0.419706
vt 0.949553 0.383337
vt 0.971731 0.341844
vt 0.985388 0.296822
vt 0.990000 0.250000
vt 0.985388 0.203178
vt 0.971731 0.158156
vt 0.949553 0.116663
vt 0.919706 0.080294
vt 0.883337 0.050447
vt 0.841844 0.028269
vt 0.796822 0.014612
vt 0.750000 0.010000
vt 0.703178 0.014612
vt 0.658156 0.028269
vt 0.616663 0.050447
vt 0.580294 0.080294
vt 0.550447 0.116663
vt 0.528269 0.158156
vt 0.514612 0.203178
vt 0.510000 0.250000
vt 0.514612 0.296822
vt 0.528269 0.341844
vt 0.550447 0.383337
vt 0.580294 0.419706
vt 0.616663 0.449553
vt 0.658156 0.471731
vt 0.703178 0.485388
s 0
f 97/187/59 98/188/59 100/189/59 99/190/59
f 99/190/60 100/189/60 102/191/60 101/192/60
f 101/192/61 102/191/61 104/193/61 103/194/61
f 103/194/62 104/193/62 106/195/62 105/196/62
f 105/196/63 106/195/63 108/197/63 107/198/63
f 107/198/64 108/197/64 110/199/64 109/200/64
f 109/200/65 110/199/65 112/201/65 111/202/65
f 111/202/66 112/201/66 114/203/66 113/204/66
f 113/204/67 114/203/67 116/205/67 115/206/67
f 115/206/68 116/205/68 118/207/68 117/208/68
f 117/208/69 118/207/69 120/209/69 119/210/69
f 119/210/70 120/209/70 122/211/70 121/212/70
f 121/212/71 122/211/71 124/213/71 123/214/71
f 123/214/72 124/213/72 126/215/72 125/216/72
f 125/216/73 126/215/73 128/217/73 127/218/73
f 127/218/74 128/217/74 130/219/74 129/220/74
f 129/220/75 130/219/75 132/221/75 131/222/75
f 131/222/76 132/221/76 134/223/76 133/224/76
f 133/224/77 134/223/77 136/225/77 135/226/77
f 135/226/78 136/225/78 138/227/78 137/228/78
f 137/228/79 138/227/79 140/229/79 139/230/79
f 139/230/80 140/229/80 142/231/80 141/232/80
f 141/232/81 142/231/81 144/233/81 143/234/81
f 143/234/82 144/233/82 146/235/82 145/236/82
f 145/236/83 146/235/83 148/237/83 147/238/83
f 147/238/84 148/237/84 150/239/84 149/240/84
f 149/240/85 150/239/85 152/241/85 151/242/85
f 151/242/86 152/241/86 154/243/86 153/244/86
f 153/244/87 154/243/87 156/245/87 155/246/87
f 155/246/88 156/245/88 158/247/88 157/248/88
f 100/249/89 98/250/89 160/251/89 158/252/89 156/253/89 154/254/89 152/255/89 150/256/89 148/257/89 146/258/89 144/259/89 142/260/89 140/261/89 138/262/89 136/263/89 134/264/89 132/265/89 130/266/89 128/267/89 126/268/89 124/269/89 122/270/89 120/271/89 118/272/89 116/273/89 114/274/89 112/275/89 110/276/89 108/277/89 106/278/89 104/279/89 102/280/89
f 157/248/90 158/247/90 160/281/90 159/282/90
f 159/282/91 160/281/91 98/283/91 97/284/91
f 97/285/92 99/286/92 101/287/92 103/288/92 105/289/92 107/290/92 109/291/92 111/292/92 113/293/92 115/294/92 117/295/92 119/296/92 121/297/92 123/298/92 125/299/92 127/300/92 129/301/92 131/302/92 133/303/92 135/304/92 137/305/92 139/306/92 141/307/92 143/308/92 145/309/92 147/310/92 149/311/92 151/312/92 153/313/92 155/314/92 157/315/92 159/316/92
o Sphere
v 0.047671 0.145782 0.000000
v 0.136269 0.121213 0.012520
v 0.180268 0.080992 0.018737
v 0.204080 0.028441 0.022102
v 0.207144 0.000000 0.022535
v 0.204080 -0.028441 0.022102
v 0.180268 -0.080992 0.018737
v 0.047671 -0.145782 0.000000
v 0.079412 0.142981 -0.004374
v 0.109934 0.134685 -0.008580
v 0.138062 0.121213 -0.012457
v 0.162718 0.103084 -0.015855
v 0.182952 0.080992 -0.018643
v 0.197987 0.055788 -0.020715
v 0.207245 0.028441 -0.021991
v 0.210372 0.000000 -0.022422
v 0.207245 -0.028441 -0.021991
v 0.197987 -0.055788 -0.020715
v 0.182952 -0.080992 -0.018643
v 0.162718 -0.103084 -0.015855
v 0.138062 -0.121213 -0.012457
v 0.109934 -0.134685 -0.008580
v 0.079412 -0.142981 -0.004374
v 0.078822 0.142981 -0.012977
v 0.108776 0.134685 -0.025455
v 0.136382 0.121213 -0.036955
v 0.160578 0.103084 -0.047034
v 0.180436 0.080992 -0.055307
v 0.195192 0.055788 -0.061453
v 0.204278 0.028441 -0.065239
v 0.207346 0.000000 -0.066517
v 0.204278 -0.028441 -0.065239
v 0.195192 -0.055788 -0.061453
v 0.180436 -0.080992 -0.055307
v 0.160578 -0.103084 -0.047034
v 0.136382 -0.121213 -0.036955
v 0.108776 -0.134685 -0.025455
v 0.078822 -0.142981 -0.012977
v 0.077034 0.142981 -0.021081
v 0.105270 0.134685 -0.041351
v 0.131292 0.121213 -0.060033
v 0.154100 0.103084 -0.076407
v 0.172819 0.080992 -0.089845
v 0.186728 0.055788 -0.099830
v 0.195293 0.028441 -0.105979
v 0.198185 0.000000 -0.108056
v 0.195293 -0.028441 -0.105979
v 0.186728 -0.055788 -0.099830
v 0.172819 -0.080992 -0.089845
v 0.154100 -0.103084 -0.076407
v 0.131292 -0.121213 -0.060033
v 0.105270 -0.134685 -0.041351
v 0.077034 -0.142981 -0.021081
v 0.074119 0.142981 -0.028374
v 0.099551 0.134685 -0.055658
v 0.122989 0.121213 -0.080803
v 0.143532 0.103084 -0.102843
v 0.160392 0.080992 -0.120931
v 0.172920 0.055788 -0.134371
v 0.180635 0.028441 -0.142647
v 0.183239 0.000000 -0.145442
v 0.180635 -0.028441 -0.142647
v 0.172920 -0.055788 -0.134371
v 0.160392 -0.080992 -0.120931
v 0.143532 -0.103084 -0.102843
v 0.122989 -0.121213 -0.080803
v 0.099551 -0.134685 -0.055658
v 0.074119 -0.142981 -0.028374
v 0.070187 0.142981 -0.034578
v 0.091837 0.134685 -0.067827
v 0.111791 0.121213 -0.098469
v 0.129280 0.103084 -0.125327
v 0.143633 0.080992 -0.147369
v 0.154299 0.055788 -0.163748
v 0.160866 0.028441 -0.173834
v 0.163084 0.000000 -0.177239
v 0.160866 -0.028441 -0.173834
v 0.154299 -0.055788 -0.163748
v 0.143633 -0.080992 -0.147369
v 0.129280 -0.103084 -0.125327
v 0.111791 -0.121213 -0.098469
v 0.091837 -0.134685 -0.067827
v 0.070187 -0.142981 -0.034578
v 0.065389 0.142981 -0.039452
v 0.082427 0.134685 -0.077388
v 0.098129 0.121213 -0.112350
v 0.111892 0.103084 -0.142995
v 0.123187 0.080992 -0.168144
v 0.131580 0.055788 -0.186832
v 0.136748 0.028441 -0.198339
v 0.138493 0.000000 -0.202225
v 0.136748 -0.028441 -0.198339
v 0.131580 -0.055788 -0.186832
v 0.123187 -0.080992 -0.168144
v 0.111892 -0.103084 -0.142995
v 0.098129 -0.121213 -0.112350
v 0.082427 -0.134685 -0.077388
v 0.065389 -0.142981 -0.039452
v 0.059911 0.142981 -0.042811
v 0.071681 0.134685 -0.083976
v 0.082528 0.121213 -0.121914
v 0.092036 0.103084 -0.155167
v 0.099838 0.080992 -0.182457
v 0.105636 0.055788 -0.202736
v 0.109207 0.028441 -0.215223
v 0.110412 0.000000 -0.219440
v 0.109207 -0.028441 -0.215223
v 0.105636 -0.055788 -0.202736
v 0.099838 -0.080992 -0.182457
v 0.092036 -0.103084 -0.155167
v 0.082528 -0.121213 -0.121914
v 0.071681 -0.134685 -0.083976
v 0.059911 -0.142981 -0.042811
v 0.053962 0.142981 -0.044524
v 0.060012 0.134685 -0.087336
v 0.065588 0.121213 -0.126793
v 0.070475 0.103084 -0.161377
v 0.074485 0.080992 -0.189759
v 0.077465 0.055788 -0.210849
v 0.079301 0.028441 -0.223836
v 0.079920 0.000000 -0.228221
v 0.079301 -0.028441 -0.223836
v 0.077465 -0.055788 -0.210849
v 0.074485 -0.080992 -0.189759
v 0.070475 -0.103084 -0.161377
v 0.065588 -0.121213 -0.126793
v 0.060012 -0.134685 -0.087336
v 0.053962 -0.142981 -0.044524
v 0.047772 0.142981 -0.044526
v 0.047869 0.134685 -0.087341
v 0.047958 0.121213 -0.126799
v 0.048037 0.103084 -0.161385
v 0.048101 0.080992 -0.189768
v 0.048149 0.055788 -0.210859
v 0.048179 0.028441 -0.223847
v 0.048189 0.000000 -0.228232
v 0.048179 -0.028441 -0.223847
v 0.048149 -0.055788 -0.210859
v 0.048101 -0.080992 -0.189768
v 0.048037 -0.103084 -0.161385
v 0.047958 -0.121213 -0.126799
v 0.047869 -0.134685 -0.087341
v 0.047772 -0.142981 -0.044526
v 0.041577 0.142981 -0.042817
v 0.035718 0.134685 -0.083989
v 0.030318 0.121213 -0.121932
v 0.025585 0.103084 -0.155191
v 0.021701 0.080992 -0.182485
v 0.018815 0.055788 -0.202766
v 0.017038 0.028441 -0.215256
v 0.016437 0.000000 -0.219473
v 0.017038 -0.028441 -0.215256
v 0.018815 -0.055788 -0.202766
v 0.021701 -0.080992 -0.182485
v 0.025585 -0.103084 -0.155191
v 0.030318 -0.121213 -0.121932
v 0.035718 -0.134685 -0.083989
v 0.041577 -0.142981 -0.042817
v 0.035617 0.142981 -0.039463
v 0.024027 0.134685 -0.077409
v 0.013345 0.121213 -0.112380
v 0.003983 0.103084 -0.143033
v -0.003701 0.080992 -0.168189
v -0.009411 0.055788 -0.186881
v -0.012926 0.028441 -0.198392
v -0.014114 0.000000 -0.202279
v -0.012926 -0.028441 -0.198392
v -0.009411 -0.055788 -0.186881
v -0.003701 -0.080992 -0.168189
v 0.003983 -0.103084 -0.143033
v 0.013345 -0.121213 -0.112380
v 0.024027 -0.134685 -0.077409
v 0.035617 -0.142981 -0.039463
v 0.030120 0.142981 -0.034592
v 0.013244 0.134685 -0.067854
v -0.002309 0.121213 -0.098509
v -0.015941 0.103084 -0.125378
v -0.027129 0.080992 -0.147429
v -0.035443 0.055788 -0.163814
v -0.040562 0.028441 -0.173904
v -0.042290 0.000000 -0.177311
v -0.040562 -0.028441 -0.173904
v -0.035443 -0.055788 -0.163814
v -0.027129 -0.080992 -0.147429
v -0.015941 -0.103084 -0.125378
v -0.002309 -0.121213 -0.098509
v 0.013244 -0.134685 -0.067854
v 0.030120 -0.142981 -0.034592
v 0.025297 0.142981 -0.028392
v 0.003784 0.134685 -0.055692
v -0.016043 0.121213 -0.080852
v -0.033421 0.103084 -0.102905
v -0.047683 0.080992 -0.121004
v -0.058280 0.055788 -0.134452
v -0.064806 0.028441 -0.142734
v -0.067010 0.000000 -0.145530
v -0.064806 -0.028441 -0.142734
v -0.058280 -0.055788 -0.134452
v -0.047683 -0.080992 -0.121004
v -0.033421 -0.103084 -0.102905
v -0.016043 -0.121213 -0.080852
v 0.003784 -0.134685 -0.055692
v 0.025297 -0.142981 -0.028392
v 0.021335 0.142981 -0.021100
v -0.003989 0.134685 -0.041390
v -0.027328 0.121213 -0.060088
v -0.047784 0.103084 -0.076478
v -0.064572 0.080992 -0.089929
v -0.077047 0.055788 -0.099923
v -0.084729 0.028441 -0.106078
v -0.087322 0.000000 -0.108156
v -0.084729 -0.028441 -0.106078
v -0.077047 -0.055788 -0.099923
v -0.064572 -0.080992 -0.089929
v -0.047784 -0.103084 -0.076478
v -0.027328 -0.121213 -0.060088
v -0.003989 -0.134685 -0.041390
v 0.021335 -0.142981 -0.021100
v 0.018384 0.142981 -0.012998
v -0.009777 0.134685 -0.025497
v -0.035730 0.121213 -0.037015
v -0.058479 0.103084 -0.047112
v -0.077148 0.080992 -0.055397
v -0.091020 0.055788 -0.061554
v -0.099563 0.028441 -0.065346
v -0.102447 0.000000 -0.066626
v -0.099563 -0.028441 -0.065346
v -0.091020 -0.055788 -0.061554
v -0.077148 -0.080992 -0.055397
v -0.058479 -0.103084 -0.047112
v -0.035730 -0.121213 -0.037015
v -0.009777 -0.134685 -0.025497
v 0.018384 -0.142981 -0.012998
v 0.016559 0.142981 -0.004396
v -0.013357 0.134685 -0.008624
v -0.040928 0.121213 -0.012520
v -0.065094 0.103084 -0.015935
v -0.084927 0.080992 -0.018737
v -0.099664 0.055788 -0.020820
v -0.108739 0.028441 -0.022102
v -0.111803 0.000000 -0.022535
v -0.108739 -0.028441 -0.022102
v -0.099664 -0.055788 -0.020820
v -0.084927 -0.080992 -0.018737
v -0.065094 -0.103084 -0.015935
v -0.040928 -0.121213 -0.012520
v -0.013357 -0.134685 -0.008624
v 0.016559 -0.142981 -0.004396
v 0.015929 0.142981 0.004374
v -0.014592 0.134685 0.008580
v -0.042721 0.121213 0.012457
v -0.067376 0.103084 0.015855
v -0.087610 0.080992 0.018643
v -0.102646 0.055788 0.020715
v -0.111904 0.028441 0.021991
v -0.115030 0.000000 0.022422
v -0.111904 -0.028441 0.021991
v -0.102646 -0.055788 0.020715
v -0.087610 -0.080992 0.018643
v -0.067376 -0.103084 0.015855
v -0.042721 -0.121213 0.012457
v -0.014592 -0.134685 0.008580
v 0.015929 -0.142981 0.004374
v 0.016519 0.142981 0.012977
v -0.013435 0.134685 0.025455
v -0.041041 0.121213 0.036955
v -0.065237 0.103084 0.047034
v -0.085095 0.080992 0.055307
v -0.099851 0.055788 0.061453
v -0.108937 0.028441 0.065239
v -0.112005 0.000000 0.066517
v -0.108937 -0.028441 0.065239
v -0.099851 -0.055788 0.061453
v -0.085095 -0.080992 0.055307
v -0.065237 -0.103084 0.047034
v -0.041041 -0.121213 0.036955
v -0.013435 -0.134685 0.025455
v 0.016519 -0.142981 0.012977
v 0.018307 0.142981 0.021081
v -0.009929 0.134685 0.041351
v -0.035951 0.121213 0.060033
v -0.058759 0.103084 0.076407
v -0.077478 0.080992 0.089845
v -0.091387 0.055788 0.099830
v -0.099952 0.028441 0.105979
v -0.102844 0.000000 0.108056
v -0.099952 -0.028441 0.105979
v -0.091387 -0.055788 0.099830
v -0.077478 -0.080992 0.089845
v -0.058759 -0.103084 0.076407
v -0.035951 -0.121213 0.060033
v -0.009929 -0.134685 0.041351
v 0.018307 -0.142981 0.021081
v 0.021222 0.142981 0.028374
v -0.004209 0.134685 0.055658
v -0.027647 0.121213 0.080803
v -0.048191 0.103084 0.102843
v -0.065051 0.080992 0.120931
v -0.077579 0.055788 0.134371
v -0.085293 0.028441 0.142647
v -0.087898 0.000000 0.145442
v -0.085293 -0.028441 0.142647
v -0.077579 -0.055788 0.134371
v -0.065051 -0.080992 0.120931
v -0.048191 -0.103084 0.102843
v -0.027647 -0.121213 0.080803
v -0.004209 -0.134685 0.055658
v 0.021222 -0.142981 0.028374
v 0.025155 0.142981 0.034578
v 0.003504 0.134685 0.067827
v -0.016450 0.121213 0.098469
v -0.033939 0.103084 0.125327
v -0.048292 0.080992 0.147369
v -0.058958 0.055788 0.163748
v -0.065525 0.028441 0.173834
v -0.067743 0.000000 0.177239
v -0.065525 -0.028441 0.173834
v -0.058958 -0.055788 0.163748
v -0.048292 -0.080992 0.147369
v -0.033939 -0.103084 0.125327
v -0.016450 -0.121213 0.098469
v 0.003504 -0.134685 0.067827
v 0.025155 -0.142981 0.034578
v 0.029952 0.142981 0.039452
v 0.012914 0.134685 0.077388
v -0.002788 0.121213 0.112350
v -0.016551 0.103084 0.142995
v -0.027846 0.080992 0.168144
v -0.036239 0.055788 0.186832
v -0.041407 0.028441 0.198339
v -0.043152 0.000000 0.202225
v -0.041407 -0.028441 0.198339
v -0.036239 -0.055788 0.186832
v -0.027846 -0.080992 0.168144
v -0.016551 -0.103084 0.142995
v -0.002788 -0.121213 0.112350
v 0.012914 -0.134685 0.077388
v 0.029952 -0.142981 0.039452
v 0.035430 0.142981 0.042811
v 0.023660 0.134685 0.083976
v 0.012813 0.121213 0.121914
v 0.003305 0.103084 0.155167
v -0.004497 0.080992 0.182457
v -0.010295 0.055788 0.202736
v -0.013866 0.028441 0.215223
v -0.015071 0.000000 0.219439
v -0.013866 -0.028441 0.215223
v -0.010295 -0.055788 0.202736
v -0.004497 -0.080992 0.182457
v 0.003305 -0.103084 0.155167
v 0.012813 -0.121213 0.121914
v 0.023660 -0.134685 0.083976
v 0.035430 -0.142981 0.042811
v 0.041379 0.142981 0.044524
v 0.035329 0.134685 0.087336
v 0.029754 0.121213 0.126793
v 0.024867 0.103084 0.161377
v 0.020856 0.080992 0.189759
v 0.017876 0.055788 0.210849
v 0.016041 0.028441 0.223836
v 0.015421 0.000000 0.228221
v 0.016041 -0.028441 0.223836
v 0.017876 -0.055788 0.210849
v 0.020856 -0.080992 0.189759
v 0.024867 -0.103084 0.161377
v 0.029754 -0.121213 0.126793
v 0.035329 -0.134685 0.087336
v 0.041379 -0.142981 0.044524
v 0.047569 0.142981 0.044526
v 0.047472 0.134685 0.087341
v 0.047383 0.121213 0.126799
v 0.047304 0.103084 0.161385
v 0.047240 0.080992 0.189768
v 0.047192 0.055788 0.210859
v 0.047162 0.028441 0.223847
v 0.047152 0.000000 0.228232
v 0.047162 -0.028441 0.223847
v 0.047192 -0.055788 0.210859
v 0.047240 -0.080992 0.189768
v 0.047304 -0.103084 0.161385
v 0.047383 -0.121213 0.126799
v 0.047472 -0.134685 0.087341
v 0.047569 -0.142981 0.044526
v 0.053764 0.142981 0.042817
v 0.059623 0.134685 0.083989
v 0.065023 0.121213 0.121932
v 0.069756 0.103084 0.155191
v 0.073640 0.080992 0.182485
v 0.076526 0.055788 0.202766
v 0.078304 0.028441 0.215256
v 0.078904 0.000000 0.219473
v 0.078304 -0.028441 0.215256
v 0.076526 -0.055788 0.202766
v 0.073640 -0.080992 0.182485
v 0.069756 -0.103084 0.155191
v 0.065023 -0.121213 0.121932
v 0.059623 -0.134685 0.083989
v 0.053764 -0.142981 0.042817
v 0.059724 0.142981 0.039463
v 0.071314 0.134685 0.077409
v 0.081996 0.121213 0.112380
v 0.091359 0.103084 0.143033
v 0.099042 0.080992 0.168189
v 0.104752 0.055788 0.186881
v 0.108268 0.028441 0.198392
v 0.109455 0.000000 0.202279
v 0.108268 -0.028441 0.198392
v 0.104752 -0.055788 0.186881
v 0.099042 -0.080992 0.168189
v 0.091359 -0.103084 0.143033
v 0.081996 -0.121213 0.112380
v 0.071314 -0.134685 0.077409
v 0.059724 -0.142981 0.039463
v 0.065221 0.142981 0.034592
v 0.082097 0.134685 0.067854
v 0.097650 0.121213 0.098509
v 0.111283 0.103084 0.125378
v 0.122470 0.080992 0.147429
v 0.130784 0.055788 0.163814
v 0.135903 0.028441 0.173904
v 0.137631 0.000000 0.177311
v 0.135903 -0.028441 0.173904
v 0.130784 -0.055788 0.163814
v 0.122470 -0.080992 0.147429
v 0.111283 -0.103084 0.125378
v 0.097650 -0.121213 0.098509
v 0.082097 -0.134685 0.067854
v 0.065221 -0.142981 0.034592
v 0.070044 0.142981 0.028391
v 0.091557 0.134685 0.055692
v 0.111384 0.121213 0.080852
v 0.128762 0.103084 0.102905
v 0.143024 0.080992 0.121004
v 0.153622 0.055788 0.134452
v 0.160148 0.028441 0.142734
v 0.162351 0.000000 0.145530
v 0.160148 -0.028441 0.142734
v 0.153622 -0.055788 0.134452
v 0.143024 -0.080992 0.121004
v 0.128762 -0.103084 0.102905
v 0.111384 -0.121213 0.080852
v 0.091557 -0.134685 0.055692
v 0.070044 -0.142981 0.028391
v 0.074006 0.142981 0.021100
v 0.099330 0.134685 0.041390
v 0.122669 0.121213 0.060088
v 0.143125 0.103084 0.076478
v 0.159913 0.080992 0.089928
v 0.172388 0.055788 0.099923
v 0.180070 0.028441 0.106078
v 0.182663 0.000000 0.108156
v 0.180070 -0.028441 0.106078
v 0.172388 -0.055788 0.099923
v 0.159913 -0.080992 0.089928
v 0.143125 -0.103084 0.076478
v 0.122669 -0.121213 0.060088
v 0.099330 -0.134685 0.041390
v 0.074006 -0.142981 0.021100
v 0.076957 0.142981 0.012998
v 0.105118 0.134685 0.025497
v 0.131071 0.121213 0.037015
v 0.153820 0.103084 0.047112
v 0.172489 0.080992 0.055397
v 0.186361 0.055788 0.061554
v 0.194904 0.028441 0.065346
v 0.197788 0.000000 0.066626
v 0.194904 -0.028441 0.065346
v 0.186361 -0.055788 0.061554
v 0.172489 -0.080992 0.055397
v 0.153820 -0.103084 0.047112
v 0.131071 -0.121213 0.037015
v 0.105118 -0.134685 0.025497
v 0.076957 -0.142981 0.012998
v 0.078782 0.142981 0.004396
v 0.108698 0.134685 0.008624
v 0.160435 0.103084 0.015935
v 0.195005 0.055788 0.020820
v 0.195005 -0.055788 0.020820
v 0.160435 -0.103084 0.015935
v 0.136269 -0.121213 0.012520
v 0.108698 -0.134685 0.008624
v 0.078782 -0.142981 0.004396
vn 0.7397 -0.6708 0.0531
vn 0.7397 0.6708 0.0531
vn 0.5957 -0.8021 0.0428
vn 0.8594 0.5076 0.0617
vn 0.4352 -0.8998 0.0312
vn 0.9460 0.3171 0.0679
vn 0.2647 -0.9642 0.0190
vn 0.9916 0.1079 0.0712
vn 0.0888 0.9960 0.0064
vn 0.0888 -0.9960 0.0064
vn 0.9916 -0.1079 0.0712
vn 0.2647 0.9641 0.0190
vn 0.9460 -0.3171 0.0679
vn 0.4352 0.8998 0.0312
vn 0.8594 -0.5076 0.0617
vn 0.5957 0.8021 0.0428
vn 0.8552 -0.5150 -0.0587
vn 0.5883 0.8076 -0.0404
vn 0.7333 -0.6780 -0.0503
vn 0.7333 0.6780 -0.0503
vn 0.5883 -0.8076 -0.0404
vn 0.8552 0.5150 -0.0587
vn 0.4285 -0.9031 -0.0294
vn 0.9443 0.3227 -0.0648
vn 0.2600 -0.9655 -0.0178
vn 0.9916 0.1100 -0.0680
vn 0.0871 0.9962 -0.0060
vn 0.0871 -0.9962 -0.0060
vn 0.9916 -0.1100 -0.0680
vn 0.2600 0.9655 -0.0178
vn 0.9443 -0.3227 -0.0648
vn 0.4285 0.9031 -0.0294
vn 0.2455 -0.9679 -0.0541
vn 0.9701 0.1143 -0.2140
vn 0.0821 0.9965 -0.0181
vn 0.0821 -0.9965 -0.0181
vn 0.9701 -0.1143 -0.2140
vn 0.2455 0.9679 -0.0541
vn 0.9205 -0.3339 -0.2030
vn 0.4064 0.9093 -0.0896
vn 0.8284 -0.5295 -0.1827
vn 0.5615 0.8182 -0.1238
vn 0.7050 -0.6919 -0.1555
vn 0.7050 0.6919 -0.1555
vn 0.5615 -0.8182 -0.1238
vn 0.8284 0.5295 -0.1827
vn 0.4064 -0.9093 -0.0896
vn 0.9205 0.3339 -0.2030
vn 0.5143 0.8326 -0.2056
vn 0.6525 -0.7115 -0.2608
vn 0.6525 0.7115 -0.2608
vn 0.5143 -0.8326 -0.2056
vn 0.7752 0.5506 -0.3099
vn 0.3691 -0.9176 -0.1476
vn 0.8696 0.3505 -0.3476
vn 0.2217 -0.9711 -0.0886
vn 0.9218 0.1206 -0.3685
vn 0.0739 0.9968 -0.0295
vn 0.0739 -0.9968 -0.0295
vn 0.9218 -0.1206 -0.3685
vn 0.2217 0.9711 -0.0886
vn 0.8696 -0.3505 -0.3476
vn 0.3691 0.9176 -0.1476
vn 0.7752 -0.5506 -0.3099
vn 0.8376 0.1289 -0.5309
vn 0.0629 0.9972 -0.0398
vn 0.0629 -0.9972 -0.0398
vn 0.8376 -0.1289 -0.5309
vn 0.1892 0.9746 -0.1199
vn 0.7841 -0.3716 -0.4970
vn 0.3171 0.9268 -0.2010
vn 0.6902 -0.5764 -0.4375
vn 0.4461 0.8492 -0.2827
vn 0.5730 -0.7347 -0.3632
vn 0.5730 0.7347 -0.3632
vn 0.4461 -0.8492 -0.2827
vn 0.6902 0.5764 -0.4375
vn 0.3171 -0.9268 -0.2010
vn 0.7841 0.3716 -0.4970
vn 0.1892 -0.9746 -0.1199
vn 0.4647 -0.7582 -0.4573
vn 0.4647 0.7582 -0.4573
vn 0.3572 -0.8654 -0.3515
vn 0.5681 0.6038 -0.5592
vn 0.2515 -0.9357 -0.2476
vn 0.6548 0.3949 -0.6444
vn 0.1492 -0.9778 -0.1468
vn 0.7059 0.1382 -0.6947
vn 0.0494 0.9976 -0.0486
vn 0.0494 -0.9976 -0.0486
vn 0.7059 -0.1382 -0.6947
vn 0.1492 0.9778 -0.1468
vn 0.6548 -0.3949 -0.6444
vn 0.2515 0.9357 -0.2476
vn 0.5681 -0.6038 -0.5592
vn 0.3572 0.8654 -0.3515
vn 0.0341 -0.9979 -0.0556
vn 0.5170 -0.1469 -0.8433
vn 0.1031 0.9804 -0.1681
vn 0.4753 -0.4160 -0.7753
vn 0.1746 0.9426 -0.2848
vn 0.4069 -0.6276 -0.6637
vn 0.2498 0.8784 -0.4075
vn 0.3284 -0.7779 -0.5358
vn 0.3284 0.7779 -0.5358
vn 0.2498 -0.8784 -0.4075
vn 0.4069 0.6276 -0.6637
vn 0.1746 -0.9426 -0.2848
vn 0.4753 0.4160 -0.7753
vn 0.1031 -0.9804 -0.1681
vn 0.5170 0.1469 -0.8433
vn 0.0341 0.9979 -0.0556
vn 0.1285 -0.8857 -0.4461
vn 0.2122 0.6418 -0.7370
vn 0.0894 -0.9464 -0.3105
vn 0.2500 0.4290 -0.8680
vn 0.0526 -0.9817 -0.1828
vn 0.2735 0.1524 -0.9497
vn 0.0174 0.9980 -0.0603
vn 0.0174 -0.9980 -0.0603
vn 0.2735 -0.1524 -0.9497
vn 0.0526 0.9817 -0.1828
vn 0.2500 -0.4290 -0.8680
vn 0.0894 0.9464 -0.3105
vn 0.2122 -0.6418 -0.7370
vn 0.1285 0.8857 -0.4461
vn 0.1700 -0.7891 -0.5902
vn 0.1700 0.7891 -0.5902
vn 0.0001 0.9817 -0.1902
vn 0.0003 -0.4290 -0.9033
vn 0.0001 0.9464 -0.3231
vn 0.0003 -0.6418 -0.7669
vn 0.0002 0.8857 -0.4643
vn 0.0002 -0.7891 -0.6142
vn 0.0002 0.7891 -0.6142
vn 0.0002 -0.8857 -0.4643
vn 0.0003 0.6418 -0.7669
vn 0.0001 -0.9464 -0.3231
vn 0.0003 0.4290 -0.9033
vn 0.0001 -0.9817 -0.1902
vn 0.0003 0.1524 -0.9883
vn -0.0000 0.9980 -0.0628
vn -0.0000 -0.9980 -0.0628
vn 0.0003 -0.1524 -0.9883
vn -0.2070 0.6276 -0.7505
vn -0.0888 -0.9426 -0.3220
vn -0.2418 0.4160 -0.8766
vn -0.0524 -0.9804 -0.1901
vn -0.2631 0.1469 -0.9535
vn -0.0173 0.9979 -0.0628
vn -0.0173 -0.9979 -0.0628
vn -0.2631 -0.1469 -0.9535
vn -0.0524 0.9804 -0.1901
vn -0.2418 -0.4160 -0.8766
vn -0.0888 0.9426 -0.3220
vn -0.2070 -0.6276 -0.7505
vn -0.1271 0.8784 -0.4607
vn -0.1671 -0.7779 -0.6058
vn -0.1671 0.7779 -0.6058
vn -0.1271 -0.8784 -0.4607
vn -0.4506 -0.3949 -0.8006
vn -0.1731 0.9357 -0.3076
vn -0.3910 -0.6038 -0.6947
vn -0.2458 0.8654 -0.4367
vn -0.3198 -0.7582 -0.5682
vn -0.3198 0.7582 -0.5682
vn -0.2458 -0.8654 -0.4367
vn -0.3910 0.6038 -0.6947
vn -0.1731 -0.9357 -0.3076
vn -0.4506 0.3949 -0.8006
vn -0.1027 -0.9778 -0.1824
vn -0.4857 0.1382 -0.8631
vn -0.0340 0.9976 -0.0604
vn -0.0340 -0.9976 -0.0604
vn -0.4857 -0.1382 -0.8631
vn -0.1027 0.9778 -0.1824
vn -0.2490 -0.9268 -0.2810
vn -0.6157 0.3716 -0.6948
vn -0.1486 -0.9746 -0.1677
vn -0.6577 0.1289 -0.7422
vn -0.0494 0.9972 -0.0557
vn -0.0494 -0.9972 -0.0557
vn -0.6577 -0.1289 -0.7422
vn -0.1486 0.9746 -0.1677
vn -0.6157 -0.3716 -0.6948
vn -0.2490 0.9268 -0.2810
vn -0.5420 -0.5764 -0.6116
vn -0.3502 0.8492 -0.3953
vn -0.4499 -0.7347 -0.5078
vn -0.4499 0.7347 -0.5078
vn -0.3502 -0.8492 -0.3953
vn -0.5420 0.5764 -0.6116
vn -0.3138 0.9176 -0.2441
vn -0.6589 -0.5506 -0.5125
vn -0.4372 0.8326 -0.3400
vn -0.5546 -0.7115 -0.4314
vn -0.5546 0.7115 -0.4314
vn -0.4372 -0.8326 -0.3400
vn -0.6589 0.5506 -0.5125
vn -0.3138 -0.9176 -0.2441
vn -0.7393 0.3505 -0.5750
vn -0.1885 -0.9711 -0.1466
vn -0.7836 0.1206 -0.6095
vn -0.0628 0.9968 -0.0489
vn -0.0628 -0.9968 -0.0489
vn -0.7836 -0.1206 -0.6095
vn -0.1885 0.9711 -0.1466
vn -0.7393 -0.3505 -0.5750
vn -0.8282 0.3339 -0.4501
vn -0.2209 -0.9679 -0.1200
vn -0.8729 0.1143 -0.4744
vn -0.0738 0.9965 -0.0401
vn -0.0738 -0.9965 -0.0401
vn -0.8729 -0.1143 -0.4744
vn -0.2209 0.9679 -0.1201
vn -0.8282 -0.3339 -0.4501
vn -0.3656 0.9093 -0.1987
vn -0.7453 -0.5295 -0.4051
vn -0.5052 0.8182 -0.2746
vn -0.6343 -0.6919 -0.3447
vn -0.6343 0.6919 -0.3447
vn -0.5052 -0.8182 -0.2746
vn -0.7453 0.5295 -0.4051
vn -0.3656 -0.9093 -0.1987
vn -0.8054 -0.5150 -0.2933
vn -0.5541 0.8076 -0.2018
vn -0.6907 -0.6780 -0.2515
vn -0.6907 0.6780 -0.2515
vn -0.5541 -0.8076 -0.2018
vn -0.8054 0.5150 -0.2933
vn -0.4035 -0.9031 -0.1470
vn -0.8894 0.3227 -0.3239
vn -0.2448 -0.9655 -0.0892
vn -0.9339 0.1100 -0.3401
vn -0.0820 0.9962 -0.0299
vn -0.0820 -0.9962 -0.0299
vn -0.9339 -0.1100 -0.3401
vn -0.2448 0.9655 -0.0892
vn -0.8894 -0.3227 -0.3239
vn -0.4035 0.9031 -0.1470
vn -0.2596 -0.9642 -0.0551
vn -0.9725 0.1079 -0.2064
vn -0.0871 0.9960 -0.0185
vn -0.0871 -0.9960 -0.0185
vn -0.9725 -0.1079 -0.2064
vn -0.2596 0.9641 -0.0551
vn -0.9277 -0.3171 -0.1969
vn -0.4268 0.8998 -0.0906
vn -0.8428 -0.5076 -0.1788
vn -0.5842 0.8021 -0.1240
vn -0.7255 -0.6708 -0.1539
vn -0.7255 0.6708 -0.1539
vn -0.5842 -0.8021 -0.1240
vn -0.8428 0.5076 -0.1788
vn -0.4268 -0.8998 -0.0906
vn -0.9277 0.3171 -0.1969
vn -0.7397 -0.6708 -0.0531
vn -0.7397 0.6708 -0.0531
vn -0.5957 -0.8021 -0.0428
vn -0.8594 0.5076 -0.0617
vn -0.4352 -0.8998 -0.0312
vn -0.9460 0.3171 -0.0679
vn -0.2647 -0.9642 -0.0190
vn -0.9916 0.1079 -0.0712
vn -0.0888 0.9960 -0.0064
vn -0.0888 -0.9960 -0.0064
vn -0.9916 -0.1079 -0.0712
vn -0.2647 0.9641 -0.0190
vn -0.9460 -0.3171 -0.0679
vn -0.4352 0.8998 -0.0312
vn -0.8594 -0.5076 -0.0617
vn -0.5957 0.8021 -0.0428
vn -0.0871 0.9962 0.0060
vn -0.0871 -0.9962 0.0060
vn -0.9916 -0.1100 0.0680
vn -0.2600 0.9655 0.0178
vn -0.9443 -0.3227 0.0648
vn -0.4285 0.9031 0.0294
vn -0.8552 -0.5150 0.0587
vn -0.5883 0.8076 0.0404
vn -0.7333 -0.6780 0.0503
vn -0.7333 0.6780 0.0503
vn -0.5883 -0.8076 0.0404
vn -0.8552 0.5150 0.0587
vn -0.4285 -0.9031 0.0294
vn -0.9443 0.3227 0.0648
vn -0.2600 -0.9655 0.0178
vn -0.9916 0.1100 0.0680
vn -0.7050 0.6919 0.1555
vn -0.5615 -0.8182 0.1238
vn -0.8284 0.5295 0.1827
vn -0.4064 -0.9093 0.0896
vn -0.9205 0.3339 0.2030
vn -0.2455 -0.9679 0.0541
vn -0.9701 0.1143 0.2140
vn -0.0821 0.9965 0.0181
vn -0.0821 -0.9965 0.0181
vn -0.9701 -0.1143 0.2140
vn -0.2455 0.9679 0.0541
vn -0.9205 -0.3339 0.2030
vn -0.4064 0.9093 0.0896
vn -0.8284 -0.5295 0.1827
vn -0.5615 0.8182 0.1238
vn -0.7050 -0.6919 0.1555
vn -0.9218 -0.1206 0.3685
vn -0.2217 0.9711 0.0886
vn -0.8696 -0.3505 0.3476
vn -0.3691 0.9176 0.1476
vn -0.7752 -0.5506 0.3099
vn -0.5143 0.8326 0.2056
vn -0.6525 -0.7115 0.2608
vn -0.6525 0.7115 0.2608
vn -0.5143 -0.8326 0.2056
vn -0.7752 0.5506 0.3099
vn -0.3691 -0.9176 0.1476
vn -0.8696 0.3505 0.3476
vn -0.2217 -0.9711 0.0886
vn -0.9218 0.1206 0.3685
vn -0.0739 0.9968 0.0295
vn -0.0739 -0.9968 0.0295
vn -0.4461 -0.8492 0.2827
vn -0.6902 0.5764 0.4375
vn -0.3171 -0.9268 0.2010
vn -0.7841 0.3716 0.4970
vn -0.1892 -0.9746 0.1199
vn -0.8376 0.1289 0.5309
vn -0.0629 0.9972 0.0398
vn -0.0629 -0.9972 0.0398
vn -0.8376 -0.1289 0.5309
vn -0.1892 0.9746 0.1199
vn -0.7841 -0.3716 0.4970
vn -0.3171 0.9268 0.2010
vn -0.6902 -0.5764 0.4375
vn -0.4461 0.8492 0.2827
vn -0.5730 -0.7347 0.3632
vn -0.5730 0.7347 0.3632
vn -0.1492 0.9778 0.1468
vn -0.6548 -0.3949 0.6444
vn -0.2515 0.9357 0.2476
vn -0.5681 -0.6038 0.5592
vn -0.3572 0.8654 0.3515
vn -0.4647 -0.7582 0.4573
vn -0.4647 0.7582 0.4573
vn -0.3572 -0.8654 0.3515
vn -0.5681 0.6038 0.5592
vn -0.2515 -0.9357 0.2476
vn -0.6548 0.3949 0.6444
vn -0.1492 -0.9778 0.1468
vn -0.7059 0.1382 0.6947
vn -0.0494 0.9976 0.0486
vn -0.0494 -0.9976 0.0486
vn -0.7059 -0.1382 0.6947
vn -0.4069 0.6276 0.6637
vn -0.1746 -0.9426 0.2848
vn -0.4753 0.4160 0.7753
vn -0.1031 -0.9804 0.1681
vn -0.5170 0.1469 0.8433
vn -0.0341 0.9979 0.0556
vn -0.0341 -0.9979 0.0556
vn -0.5170 -0.1469 0.8433
vn -0.1031 0.9804 0.1681
vn -0.4753 -0.4160 0.7753
vn -0.1746 0.9426 0.2848
vn -0.4069 -0.6276 0.6637
vn -0.2498 0.8784 0.4075
vn -0.3284 -0.7779 0.5358
vn -0.3284 0.7779 0.5358
vn -0.2498 -0.8784 0.4075
vn -0.2500 -0.4290 0.8680
vn -0.0894 0.9464 0.3105
vn -0.2122 -0.6418 0.7370
vn -0.1285 0.8857 0.4461
vn -0.1700 -0.7891 0.5902
vn -0.1700 0.7891 0.5902
vn -0.1285 -0.8857 0.4461
vn -0.2122 0.6418 0.7370
vn -0.0894 -0.9464 0.3105
vn -0.2500 0.4290 0.8680
vn -0.0526 -0.9817 0.1828
vn -0.2735 0.1524 0.9497
vn -0.0174 0.9980 0.0603
vn -0.0174 -0.9980 0.0603
vn -0.2735 -0.1524 0.9497
vn -0.0526 0.9817 0.1828
vn -0.0001 -0.9464 0.3231
vn -0.0003 0.4290 0.9033
vn -0.0001 -0.9817 0.1902
vn -0.0003 0.1524 0.9883
vn -0.0000 0.9980 0.0628
vn -0.0000 -0.9980 0.0628
vn -0.0003 -0.1524 0.9883
vn -0.0001 0.9817 0.1902
vn -0.0003 -0.4290 0.9033
vn -0.0001 0.9464 0.3231
vn -0.0003 -0.6418 0.7669
vn -0.0002 0.8857 0.4643
vn -0.0002 -0.7891 0.6142
vn -0.0002 0.7891 0.6142
vn -0.0002 -0.8857 0.4643
vn -0.0003 0.6418 0.7669
vn 0.2070 -0.6276 0.7505
vn 0.1271 0.8784 0.4607
vn 0.1671 -0.7779 0.6058
vn 0.1671 0.7779 0.6058
vn 0.1271 -0.8784 0.4607
vn 0.2070 0.6276 0.7505
vn 0.0888 -0.9426 0.3220
vn 0.2418 0.4160 0.8766
vn 0.0524 -0.9804 0.1901
vn 0.2631 0.1469 0.9535
vn 0.0173 0.9979 0.0628
vn 0.0173 -0.9979 0.0628
vn 0.2631 -0.1469 0.9535
vn 0.0524 0.9804 0.1901
vn 0.2418 -0.4160 0.8766
vn 0.0888 0.9426 0.3220
vn 0.1027 -0.9778 0.1824
vn 0.4857 0.1382 0.8631
vn 0.0340 0.9976 0.0604
vn 0.0340 -0.9976 0.0604
vn 0.4857 -0.1382 0.8631
vn 0.1027 0.9778 0.1824
vn 0.4506 -0.3949 0.8006
vn 0.1731 0.9357 0.3076
vn 0.3910 -0.6038 0.6947
vn 0.2458 0.8654 0.4367
vn 0.3198 -0.7582 0.5682
vn 0.3198 0.7582 0.5682
vn 0.2458 -0.8654 0.4367
vn 0.3910 0.6038 0.6947
vn 0.1731 -0.9357 0.3076
vn 0.4506 0.3949 0.8006
vn 0.3502 0.8492 0.3953
vn 0.4499 -0.7347 0.5078
vn 0.4499 0.7347 0.5078
vn 0.3502 -0.8492 0.3953
vn 0.5420 0.5764 0.6116
vn 0.2490 -0.9268 0.2810
vn 0.6157 0.3716 0.6948
vn 0.1486 -0.9746 0.1677
vn 0.6577 0.1289 0.7422
vn 0.0494 0.9972 0.0557
vn 0.0494 -0.9972 0.0557
vn 0.6577 -0.1289 0.7422
vn 0.1486 0.9746 0.1677
vn 0.6157 -0.3716 0.6948
vn 0.2490 0.9268 0.2810
vn 0.5420 -0.5764 0.6116
vn 0.7836 0.1206 0.6095
vn 0.0628 0.9968 0.0489
vn 0.0628 -0.9968 0.0489
vn 0.7836 -0.1206 0.6095
vn 0.1885 0.9711 0.1466
vn 0.7393 -0.3505 0.5750
vn 0.3138 0.9176 0.2441
vn 0.6589 -0.5506 0.5125
vn 0.4372 0.8326 0.3400
vn 0.5547 -0.7115 0.4314
vn 0.5547 0.7115 0.4314
vn 0.4372 -0.8326 0.3400
vn 0.6589 0.5506 0.5125
vn 0.3138 -0.9176 0.2441
vn 0.7393 0.3505 0.5750
vn 0.1885 -0.9711 0.1466
vn 0.6343 -0.6919 0.3447
vn 0.6343 0.6919 0.3447
vn 0.5052 -0.8182 0.2746
vn 0.7453 0.5295 0.4051
vn 0.3657 -0.9093 0.1987
vn 0.8282 0.3339 0.4501
vn 0.2209 -0.9679 0.1201
vn 0.8729 0.1143 0.4744
vn 0.0738 0.9965 0.0401
vn 0.0738 -0.9965 0.0401
vn 0.8729 -0.1143 0.4744
vn 0.2209 0.9679 0.1201
vn 0.8282 -0.3339 0.4501
vn 0.3657 0.9093 0.1987
vn 0.7453 -0.5295 0.4051
vn 0.5052 0.8182 0.2746
vn 0.0820 0.9962 0.0299
vn 0.0820 -0.9962 0.0299
vn 0.9339 -0.1100 0.3401
vn 0.2448 0.9655 0.0892
vn 0.8894 -0.3227 0.3239
vn 0.4035 0.9031 0.1470
vn 0.8054 -0.5150 0.2933
vn 0.5541 0.8076 0.2018
vn 0.6907 -0.6780 0.2515
vn 0.6907 0.6780 0.2515
vn 0.5541 -0.8076 0.2018
vn 0.8054 0.5150 0.2933
vn 0.4035 -0.9031 0.1470
vn 0.8894 0.3227 0.3239
vn 0.2448 -0.9655 0.0892
vn 0.9339 0.1100 0.3401
vn 0.7255 0.6708 0.1539
vn 0.5842 -0.8021 0.1240
vn 0.8428 0.5076 0.1788
vn 0.4269 -0.8998 0.0906
vn 0.9277 0.3171 0.1969
vn 0.2596 -0.9642 0.0551
vn 0.9725 0.1079 0.2064
vn 0.0871 0.9960 0.0185
vn 0.0871 -0.9960 0.0185
vn 0.9725 -0.1079 0.2064
vn 0.2596 0.9641 0.0551
vn 0.9277 -0.3171 0.1969
vn 0.4268 0.8998 0.0906
vn 0.8428 -0.5076 0.1788
vn 0.5842 0.8021 0.1240
vn 0.7255 -0.6708 0.1539
vt 0.750000 0.250000
vt 0.750000 0.312500
vt 0.718750 0.312500
vt 0.718750 0.250000
vt 0.750000 0.687500
vt 0.750000 0.750000
vt 0.718750 0.750000
vt 0.718750 0.687500
vt 0.750000 0.187500
vt 0.718750 0.187500
vt 0.750000 0.625000
vt 0.718750 0.625000
vt 0.750000 0.125000
vt 0.718750 0.125000
vt 0.750000 0.562500
vt 0.718750 0.562500
vt 0.750000 0.062500
vt 0.718750 0.062500
vt 0.750000 0.500000
vt 0.718750 0.500000
vt 0.750000 0.937500
vt 0.734375 1.000000
vt 0.718750 0.937500
vt 0.734375 0.000000
vt 0.750000 0.437500
vt 0.718750 0.437500
vt 0.750000 0.875000
vt 0.718750 0.875000
vt 0.750000 0.375000
vt 0.718750 0.375000
vt 0.750000 0.812500
vt 0.718750 0.812500
vt 0.687500 0.375000
vt 0.687500 0.312500
vt 0.687500 0.812500
vt 0.687500 0.750000
vt 0.687500 0.250000
vt 0.687500 0.687500
vt 0.687500 0.187500
vt 0.687500 0.625000
vt 0.687500 0.125000
vt 0.687500 0.562500
vt 0.687500 0.062500
vt 0.687500 0.500000
vt 0.703125 1.000000
vt 0.687500 0.937500
vt 0.703125 0.000000
vt 0.687500 0.437500
vt 0.687500 0.875000
vt 0.656250 0.125000
vt 0.656250 0.062500
vt 0.656250 0.562500
vt 0.656250 0.500000
vt 0.671875 1.000000
vt 0.656250 0.937500
vt 0.671875 0.000000
vt 0.656250 0.437500
vt 0.656250 0.875000
vt 0.656250 0.375000
vt 0.656250 0.812500
vt 0.656250 0.312500
vt 0.656250 0.750000
vt 0.656250 0.250000
vt 0.656250 0.687500
vt 0.656250 0.187500
vt 0.656250 0.625000
vt 0.625000 0.812500
vt 0.625000 0.750000
vt 0.625000 0.312500
vt 0.625000 0.250000
vt 0.625000 0.687500
vt 0.625000 0.187500
vt 0.625000 0.625000
vt 0.625000 0.125000
vt 0.625000 0.562500
vt 0.625000 0.062500
vt 0.625000 0.500000
vt 0.640625 1.000000
vt 0.625000 0.937500
vt 0.640625 0.000000
vt 0.625000 0.437500
vt 0.625000 0.875000
vt 0.625000 0.375000
vt 0.593750 0.562500
vt 0.593750 0.500000
vt 0.609375 1.000000
vt 0.593750 0.937500
vt 0.609375 0.000000
vt 0.593750 0.062500
vt 0.593750 0.437500
vt 0.593750 0.875000
vt 0.593750 0.375000
vt 0.593750 0.812500
vt 0.593750 0.312500
vt 0.593750 0.750000
vt 0.593750 0.250000
vt 0.593750 0.687500
vt 0.593750 0.187500
vt 0.593750 0.625000
vt 0.593750 0.125000
vt 0.562500 0.312500
vt 0.562500 0.250000
vt 0.562500 0.750000
vt 0.562500 0.687500
vt 0.562500 0.187500
vt 0.562500 0.625000
vt 0.562500 0.125000
vt 0.562500 0.562500
vt 0.562500 0.062500
vt 0.562500 0.500000
vt 0.578125 1.000000
vt 0.562500 0.937500
vt 0.578125 0.000000
vt 0.562500 0.437500
vt 0.562500 0.875000
vt 0.562500 0.375000
vt 0.562500 0.812500
vt 0.546875 0.000000
vt 0.531250 0.062500
vt 0.531250 0.500000
vt 0.531250 0.437500
vt 0.531250 0.937500
vt 0.531250 0.875000
vt 0.531250 0.375000
vt 0.531250 0.812500
vt 0.531250 0.312500
vt 0.531250 0.750000
vt 0.531250 0.250000
vt 0.531250 0.687500
vt 0.531250 0.187500
vt 0.531250 0.625000
vt 0.531250 0.125000
vt 0.531250 0.562500
vt 0.546875 1.000000
vt 0.500000 0.250000
vt 0.500000 0.187500
vt 0.500000 0.687500
vt 0.500000 0.625000
vt 0.500000 0.125000
vt 0.500000 0.562500
vt 0.500000 0.062500
vt 0.500000 0.500000
vt 0.515625 1.000000
vt 0.500000 0.937500
vt 0.515625 0.000000
vt 0.500000 0.437500
vt 0.500000 0.875000
vt 0.500000 0.375000
vt 0.500000 0.812500
vt 0.500000 0.312500
vt 0.500000 0.750000
vt 0.468750 0.937500
vt 0.468750 0.875000
vt 0.468750 0.437500
vt 0.468750 0.375000
vt 0.468750 0.812500
vt 0.468750 0.312500
vt 0.468750 0.750000
vt 0.468750 0.250000
vt 0.468750 0.687500
vt 0.468750 0.187500
vt 0.468750 0.625000
vt 0.468750 0.125000
vt 0.468750 0.562500
vt 0.468750 0.062500
vt 0.468750 0.500000
vt 0.484375 1.000000
vt 0.484375 0.000000
vt 0.437500 0.687500
vt 0.437500 0.625000
vt 0.437500 0.187500
vt 0.437500 0.125000
vt 0.437500 0.562500
vt 0.437500 0.062500
vt 0.437500 0.500000
vt 0.453125 1.000000
vt 0.437500 0.937500
vt 0.453125 0.000000
vt 0.437500 0.437500
vt 0.437500 0.875000
vt 0.437500 0.375000
vt 0.437500 0.812500
vt 0.437500 0.312500
vt 0.437500 0.750000
vt 0.437500 0.250000
vt 0.406250 0.437500
vt 0.406250 0.375000
vt 0.406250 0.875000
vt 0.406250 0.812500
vt 0.406250 0.312500
vt 0.406250 0.750000
vt 0.406250 0.250000
vt 0.406250 0.687500
vt 0.406250 0.187500
vt 0.406250 0.625000
vt 0.406250 0.125000
vt 0.406250 0.562500
vt 0.406250 0.062500
vt 0.406250 0.500000
vt 0.421875 1.000000
vt 0.406250 0.937500
vt 0.421875 0.000000
vt 0.375000 0.187500
vt 0.375000 0.125000
vt 0.375000 0.625000
vt 0.375000 0.562500
vt 0.375000 0.062500
vt 0.375000 0.500000
vt 0.390625 1.000000
vt 0.375000 0.937500
vt 0.390625 0.000000
vt 0.375000 0.437500
vt 0.375000 0.875000
vt 0.375000 0.375000
vt 0.375000 0.812500
vt 0.375000 0.312500
vt 0.375000 0.750000
vt 0.375000 0.250000
vt 0.375000 0.687500
vt 0.343750 0.875000
vt 0.343750 0.812500
vt 0.343750 0.375000
vt 0.343750 0.312500
vt 0.343750 0.750000
vt 0.343750 0.250000
vt 0.343750 0.687500
vt 0.343750 0.187500
vt 0.343750 0.625000
vt 0.343750 0.125000
vt 0.343750 0.562500
vt 0.343750 0.062500
vt 0.343750 0.500000
vt 0.359375 1.000000
vt 0.343750 0.937500
vt 0.359375 0.000000
vt 0.343750 0.437500
vt 0.312500 0.625000
vt 0.312500 0.562500
vt 0.312500 0.125000
vt 0.312500 0.062500
vt 0.312500 0.500000
vt 0.328125 1.000000
vt 0.312500 0.937500
vt 0.328125 0.000000
vt 0.312500 0.437500
vt 0.312500 0.875000
vt 0.312500 0.375000
vt 0.312500 0.812500
vt 0.312500 0.312500
vt 0.312500 0.750000
vt 0.312500 0.250000
vt 0.312500 0.687500
vt 0.312500 0.187500
vt 0.281250 0.375000
vt 0.281250 0.312500
vt 0.281250 0.812500
vt 0.281250 0.750000
vt 0.281250 0.250000
vt 0.281250 0.687500
vt 0.281250 0.187500
vt 0.281250 0.625000
vt 0.281250 0.125000
vt 0.281250 0.562500
vt 0.281250 0.062500
vt 0.281250 0.500000
vt 0.296875 1.000000
vt 0.281250 0.937500
vt 0.296875 0.000000
vt 0.281250 0.437500
vt 0.281250 0.875000
vt 0.250000 0.125000
vt 0.250000 0.062500
vt 0.250000 0.562500
vt 0.250000 0.500000
vt 0.265625 1.000000
vt 0.250000 0.937500
vt 0.265625 0.000000
vt 0.250000 0.437500
vt 0.250000 0.875000
vt 0.250000 0.375000
vt 0.250000 0.812500
vt 0.250000 0.312500
vt 0.250000 0.750000
vt 0.250000 0.250000
vt 0.250000 0.687500
vt 0.250000 0.187500
vt 0.250000 0.625000
vt 0.218750 0.312500
vt 0.218750 0.250000
vt 0.218750 0.750000
vt 0.218750 0.687500
vt 0.218750 0.187500
vt 0.218750 0.625000
vt 0.218750 0.125000
vt 0.218750 0.562500
vt 0.218750 0.062500
vt 0.218750 0.500000
vt 0.234375 1.000000
vt 0.218750 0.937500
vt 0.234375 0.000000
vt 0.218750 0.437500
vt 0.218750 0.875000
vt 0.218750 0.375000
vt 0.218750 0.812500
vt 0.203125 1.000000
vt 0.187500 0.937500
vt 0.203125 0.000000
vt 0.187500 0.062500
vt 0.187500 0.500000
vt 0.187500 0.437500
vt 0.187500 0.875000
vt 0.187500 0.375000
vt 0.187500 0.812500
vt 0.187500 0.312500
vt 0.187500 0.750000
vt 0.187500 0.250000
vt 0.187500 0.687500
vt 0.187500 0.187500
vt 0.187500 0.625000
vt 0.187500 0.125000
vt 0.187500 0.562500
vt 0.156250 0.750000
vt 0.156250 0.687500
vt 0.156250 0.250000
vt 0.156250 0.187500
vt 0.156250 0.625000
vt 0.156250 0.125000
vt 0.156250 0.562500
vt 0.156250 0.062500
vt 0.156250 0.500000
vt 0.171875 1.000000
vt 0.156250 0.937500
vt 0.171875 0.000000
vt 0.156250 0.437500
vt 0.156250 0.875000
vt 0.156250 0.375000
vt 0.156250 0.812500
vt 0.156250 0.312500
vt 0.125000 0.500000
vt 0.125000 0.437500
vt 0.125000 0.937500
vt 0.125000 0.875000
vt 0.125000 0.375000
vt 0.125000 0.812500
vt 0.125000 0.312500
vt 0.125000 0.750000
vt 0.125000 0.250000
vt 0.125000 0.687500
vt 0.125000 0.187500
vt 0.125000 0.625000
vt 0.125000 0.125000
vt 0.125000 0.562500
vt 0.125000 0.062500
vt 0.140625 1.000000
vt 0.140625 0.000000
vt 0.093750 0.250000
vt 0.093750 0.187500
vt 0.093750 0.687500
vt 0.093750 0.625000
vt 0.093750 0.125000
vt 0.093750 0.562500
vt 0.093750 0.062500
vt 0.093750 0.500000
vt 0.109375 1.000000
vt 0.093750 0.937500
vt 0.109375 0.000000
vt 0.093750 0.437500
vt 0.093750 0.875000
vt 0.093750 0.375000
vt 0.093750 0.812500
vt 0.093750 0.312500
vt 0.093750 0.750000
vt 0.062500 0.937500
vt 0.062500 0.875000
vt 0.062500 0.437500
vt 0.062500 0.375000
vt 0.062500 0.812500
vt 0.062500 0.312500
vt 0.062500 0.750000
vt 0.062500 0.250000
vt 0.062500 0.687500
vt 0.062500 0.187500
vt 0.062500 0.625000
vt 0.062500 0.125000
vt 0.062500 0.562500
vt 0.062500 0.062500
vt 0.062500 0.500000
vt 0.078125 1.000000
vt 0.078125 0.000000
vt 0.031250 0.687500
vt 0.031250 0.625000
vt 0.031250 0.187500
vt 0.031250 0.125000
vt 0.031250 0.562500
vt 0.031250 0.062500
vt 0.031250 0.500000
vt 0.046875 1.000000
vt 0.031250 0.937500
vt 0.046875 0.000000
vt 0.031250 0.437500
vt 0.031250 0.875000
vt 0.031250 0.375000
vt 0.031250 0.812500
vt 0.031250 0.312500
vt 0.031250 0.750000
vt 0.031250 0.250000
vt 0.000000 0.437500
vt 0.000000 0.375000
vt 0.000000 0.875000
vt 0.000000 0.812500
vt 0.000000 0.312500
vt 0.000000 0.750000
vt 0.000000 0.250000
vt 0.000000 0.687500
vt 0.000000 0.187500
vt 0.000000 0.625000
vt 0.000000 0.125000
vt 0.000000 0.562500
vt 0.000000 0.062500
vt 0.000000 0.500000
vt 0.015625 1.000000
vt 0.000000 0.937500
vt 0.015625 0.000000
vt 1.000000 0.125000
vt 1.000000 0.187500
vt 0.968750 0.187500
vt 0.968750 0.125000
vt 1.000000 0.562500
vt 1.000000 0.625000
vt 0.968750 0.625000
vt 0.968750 0.562500
vt 1.000000 0.062500
vt 0.968750 0.062500
vt 1.000000 0.500000
vt 0.968750 0.500000
vt 1.000000 0.937500
vt 0.984375 1.000000
vt 0.968750 0.937500
vt 0.984375 0.000000
vt 1.000000 0.437500
vt 0.968750 0.437500
vt 1.000000 0.875000
vt 0.968750 0.875000
vt 1.000000 0.375000
vt 0.968750 0.375000
vt 1.000000 0.812500
vt 0.968750 0.812500
vt 1.000000 0.312500
vt 0.968750 0.312500
vt 1.000000 0.750000
vt 0.968750 0.750000
vt 1.000000 0.250000
vt 0.968750 0.250000
vt 1.000000 0.687500
vt 0.968750 0.687500
vt 0.937500 0.375000
vt 0.937500 0.312500
vt 0.937500 0.812500
vt 0.937500 0.750000
vt 0.937500 0.250000
vt 0.937500 0.687500
vt 0.937500 0.187500
vt 0.937500 0.625000
vt 0.937500 0.125000
vt 0.937500 0.562500
vt 0.937500 0.062500
vt 0.937500 0.500000
vt 0.953125 1.000000
vt 0.937500 0.937500
vt 0.953125 0.000000
vt 0.937500 0.437500
vt 0.937500 0.875000
vt 0.906250 0.125000
vt 0.906250 0.062500
vt 0.906250 0.562500
vt 0.906250 0.500000
vt 0.921875 1.000000
vt 0.906250 0.937500
vt 0.921875 0.000000
vt 0.906250 0.437500
vt 0.906250 0.875000
vt 0.906250 0.375000
vt 0.906250 0.812500
vt 0.906250 0.312500
vt 0.906250 0.750000
vt 0.906250 0.250000
vt 0.906250 0.687500
vt 0.906250 0.187500
vt 0.906250 0.625000
vt 0.875000 0.812500
vt 0.875000 0.750000
vt 0.875000 0.312500
vt 0.875000 0.250000
vt 0.875000 0.687500
vt 0.875000 0.187500
vt 0.875000 0.625000
vt 0.875000 0.125000
vt 0.875000 0.562500
vt 0.875000 0.062500
vt 0.875000 0.500000
vt 0.890625 1.000000
vt 0.875000 0.937500
vt 0.890625 0.000000
vt 0.875000 0.437500
vt 0.875000 0.875000
vt 0.875000 0.375000
vt 0.843750 0.562500
vt 0.843750 0.500000
vt 0.859375 1.000000
vt 0.843750 0.937500
vt 0.859375 0.000000
vt 0.843750 0.062500
vt 0.843750 0.437500
vt 0.843750 0.875000
vt 0.843750 0.375000
vt 0.843750 0.812500
vt 0.843750 0.312500
vt 0.843750 0.750000
vt 0.843750 0.250000
vt 0.843750 0.687500
vt 0.843750 0.187500
vt 0.843750 0.625000
vt 0.843750 0.125000
vt 0.812500 0.312500
vt 0.812500 0.250000
vt 0.812500 0.750000
vt 0.812500 0.687500
vt 0.812500 0.187500
vt 0.812500 0.625000
vt 0.812500 0.125000
vt 0.812500 0.562500
vt 0.812500 0.062500
vt 0.812500 0.500000
vt 0.828125 1.000000
vt 0.812500 0.937500
vt 0.828125 0.000000
vt 0.812500 0.437500
vt 0.812500 0.875000
vt 0.812500 0.375000
vt 0.812500 0.812500
vt 0.796875 1.000000
vt 0.781250 0.937500
vt 0.796875 0.000000
vt 0.781250 0.062500
vt 0.781250 0.500000
vt 0.781250 0.437500
vt 0.781250 0.875000
vt 0.781250 0.375000
vt 0.781250 0.812500
vt 0.781250 0.312500
vt 0.781250 0.750000
vt 0.781250 0.250000
vt 0.781250 0.687500
vt 0.781250 0.187500
vt 0.781250 0.625000
vt 0.781250 0.125000
vt 0.781250 0.562500
vt 0.765625 1.000000
vt 0.765625 0.000000
s 0
f 639/317/93 180/320/93 179/319/93 167/318/93
f 163/321/94 173/324/94 172/323/94 636/322/94
f 640/325/95 181/326/95 180/320/95 639/317/95
f 637/327/96 174/328/96 173/324/96 163/321/96
f 641/329/97 182/330/97 181/326/97 640/325/97
f 164/331/98 175/332/98 174/328/98 637/327/98
f 642/333/99 183/334/99 182/330/99 641/329/99
f 165/335/100 176/336/100 175/332/100 164/331/100
f 634/337/101 169/339/101 161/338/101
f 168/340/102 183/334/102 642/333/102
f 166/341/103 177/342/103 176/336/103 165/335/103
f 635/343/104 170/344/104 169/339/104 634/337/104
f 638/345/105 178/346/105 177/342/105 166/341/105
f 162/347/106 171/348/106 170/344/106 635/343/106
f 167/318/107 179/319/107 178/346/107 638/345/107
f 636/322/108 172/323/108 171/348/108 162/347/108
f 179/319/109 194/350/109 193/349/109 178/346/109
f 172/323/110 187/352/110 186/351/110 171/348/110
f 180/320/111 195/353/111 194/350/111 179/319/111
f 173/324/112 188/354/112 187/352/112 172/323/112
f 181/326/113 196/355/113 195/353/113 180/320/113
f 174/328/114 189/356/114 188/354/114 173/324/114
f 182/330/115 197/357/115 196/355/115 181/326/115
f 175/332/116 190/358/116 189/356/116 174/328/116
f 183/334/117 198/359/117 197/357/117 182/330/117
f 176/336/118 191/360/118 190/358/118 175/332/118
f 169/339/119 184/362/119 161/361/119
f 168/363/120 198/359/120 183/334/120
f 177/342/121 192/364/121 191/360/121 176/336/121
f 170/344/122 185/365/122 184/362/122 169/339/122
f 178/346/123 193/349/123 192/364/123 177/342/123
f 171/348/124 186/351/124 185/365/124 170/344/124
f 198/359/125 213/367/125 212/366/125 197/357/125
f 191/360/126 206/369/126 205/368/126 190/358/126
f 184/362/127 199/371/127 161/370/127
f 168/372/128 213/367/128 198/359/128
f 192/364/129 207/373/129 206/369/129 191/360/129
f 185/365/130 200/374/130 199/371/130 184/362/130
f 193/349/131 208/375/131 207/373/131 192/364/131
f 186/351/132 201/376/132 200/374/132 185/365/132
f 194/350/133 209/377/133 208/375/133 193/349/133
f 187/352/134 202/378/134 201/376/134 186/351/134
f 195/353/135 210/379/135 209/377/135 194/350/135
f 188/354/136 203/380/136 202/378/136 187/352/136
f 196/355/137 211/381/137 210/379/137 195/353/137
f 189/356/138 204/382/138 203/380/138 188/354/138
f 197/357/139 212/366/139 211/381/139 196/355/139
f 190/358/140 205/368/140 204/382/140 189/356/140
f 202/378/141 217/384/141 216/383/141 201/376/141
f 210/379/142 225/386/142 224/385/142 209/377/142
f 203/380/143 218/387/143 217/384/143 202/378/143
f 211/381/144 226/388/144 225/386/144 210/379/144
f 204/382/145 219/389/145 218/387/145 203/380/145
f 212/366/146 227/390/146 226/388/146 211/381/146
f 205/368/147 220/391/147 219/389/147 204/382/147
f 213/367/148 228/392/148 227/390/148 212/366/148
f 206/369/149 221/393/149 220/391/149 205/368/149
f 199/371/150 214/395/150 161/394/150
f 168/396/151 228/392/151 213/367/151
f 207/373/152 222/397/152 221/393/152 206/369/152
f 200/374/153 215/398/153 214/395/153 199/371/153
f 208/375/154 223/399/154 222/397/154 207/373/154
f 201/376/155 216/383/155 215/398/155 200/374/155
f 209/377/156 224/385/156 223/399/156 208/375/156
f 221/393/157 236/401/157 235/400/157 220/391/157
f 214/395/158 229/403/158 161/402/158
f 168/404/159 243/405/159 228/392/159
f 222/397/160 237/406/160 236/401/160 221/393/160
f 215/398/161 230/407/161 229/403/161 214/395/161
f 223/399/162 238/408/162 237/406/162 222/397/162
f 216/383/163 231/409/163 230/407/163 215/398/163
f 224/385/164 239/410/164 238/408/164 223/399/164
f 217/384/165 232/411/165 231/409/165 216/383/165
f 225/386/166 240/412/166 239/410/166 224/385/166
f 218/387/167 233/413/167 232/411/167 217/384/167
f 226/388/168 241/414/168 240/412/168 225/386/168
f 219/389/169 234/415/169 233/413/169 218/387/169
f 227/390/170 242/416/170 241/414/170 226/388/170
f 220/391/171 235/400/171 234/415/171 219/389/171
f 228/392/172 243/405/172 242/416/172 227/390/172
f 240/412/173 255/418/173 254/417/173 239/410/173
f 233/413/174 248/420/174 247/419/174 232/411/174
f 241/414/175 256/421/175 255/418/175 240/412/175
f 234/415/176 249/422/176 248/420/176 233/413/176
f 242/416/177 257/423/177 256/421/177 241/414/177
f 235/400/178 250/424/178 249/422/178 234/415/178
f 243/405/179 258/425/179 257/423/179 242/416/179
f 236/401/180 251/426/180 250/424/180 235/400/180
f 229/403/181 244/428/181 161/427/181
f 168/429/182 258/425/182 243/405/182
f 237/406/183 252/430/183 251/426/183 236/401/183
f 230/407/184 245/431/184 244/428/184 229/403/184
f 238/408/185 253/432/185 252/430/185 237/406/185
f 231/409/186 246/433/186 245/431/186 230/407/186
f 239/410/187 254/417/187 253/432/187 238/408/187
f 232/411/188 247/419/188 246/433/188 231/409/188
f 168/434/189 273/435/189 258/425/189
f 252/430/190 267/437/190 266/436/190 251/426/190
f 245/431/191 260/439/191 259/438/191 244/428/191
f 253/432/192 268/440/192 267/437/192 252/430/192
f 246/433/193 261/441/193 260/439/193 245/431/193
f 254/417/194 269/442/194 268/440/194 253/432/194
f 247/419/195 262/443/195 261/441/195 246/433/195
f 255/418/196 270/444/196 269/442/196 254/417/196
f 248/420/197 263/445/197 262/443/197 247/419/197
f 256/421/198 271/446/198 270/444/198 255/418/198
f 249/422/199 264/447/199 263/445/199 248/420/199
f 257/423/200 272/448/200 271/446/200 256/421/200
f 250/424/201 265/449/201 264/447/201 249/422/201
f 258/425/202 273/435/202 272/448/202 257/423/202
f 251/426/203 266/436/203 265/449/203 250/424/203
f 244/428/204 259/438/204 161/450/204
f 271/446/205 286/452/205 285/451/205 270/444/205
f 264/447/206 279/454/206 278/453/206 263/445/206
f 272/448/207 287/455/207 286/452/207 271/446/207
f 265/449/208 280/456/208 279/454/208 264/447/208
f 273/435/209 288/457/209 287/455/209 272/448/209
f 266/436/210 281/458/210 280/456/210 265/449/210
f 259/438/211 274/460/211 161/459/211
f 168/461/212 288/457/212 273/435/212
f 267/437/213 282/462/213 281/458/213 266/436/213
f 260/439/214 275/463/214 274/460/214 259/438/214
f 268/440/215 283/464/215 282/462/215 267/437/215
f 261/441/216 276/465/216 275/463/216 260/439/216
f 269/442/217 284/466/217 283/464/217 268/440/217
f 262/443/218 277/467/218 276/465/218 261/441/218
f 270/444/219 285/451/219 284/466/219 269/442/219
f 263/445/220 278/453/220 277/467/220 262/443/220
f 275/463/221 290/469/221 289/468/221 274/460/221
f 283/464/222 298/471/222 297/470/222 282/462/222
f 276/465/223 291/472/223 290/469/223 275/463/223
f 284/466/224 299/473/224 298/471/224 283/464/224
f 277/467/225 292/474/225 291/472/225 276/465/225
f 285/451/226 300/475/226 299/473/226 284/466/226
f 278/453/227 293/476/227 292/474/227 277/467/227
f 286/452/228 301/477/228 300/475/228 285/451/228
f 279/454/229 294/478/229 293/476/229 278/453/229
f 287/455/230 302/479/230 301/477/230 286/452/230
f 280/456/231 295/480/231 294/478/231 279/454/231
f 288/457/232 303/481/232 302/479/232 287/455/232
f 281/458/233 296/482/233 295/480/233 280/456/233
f 274/460/234 289/468/234 161/483/234
f 168/484/235 303/481/235 288/457/235
f 282/462/236 297/470/236 296/482/236 281/458/236
f 294/478/237 309/486/237 308/485/237 293/476/237
f 302/479/238 317/488/238 316/487/238 301/477/238
f 295/480/239 310/489/239 309/486/239 294/478/239
f 303/481/240 318/490/240 317/488/240 302/479/240
f 296/482/241 311/491/241 310/489/241 295/480/241
f 289/468/242 304/493/242 161/492/242
f 168/494/243 318/490/243 303/481/243
f 297/470/244 312/495/244 311/491/244 296/482/244
f 290/469/245 305/496/245 304/493/245 289/468/245
f 298/471/246 313/497/246 312/495/246 297/470/246
f 291/472/247 306/498/247 305/496/247 290/469/247
f 299/473/248 314/499/248 313/497/248 298/471/248
f 292/474/249 307/500/249 306/498/249 291/472/249
f 300/475/250 315/501/250 314/499/250 299/473/250
f 293/476/251 308/485/251 307/500/251 292/474/251
f 301/477/252 316/487/252 315/501/252 300/475/252
f 313/497/253 328/503/253 327/502/253 312/495/253
f 306/498/254 321/505/254 320/504/254 305/496/254
f 314/499/255 329/506/255 328/503/255 313/497/255
f 307/500/256 322/507/256 321/505/256 306/498/256
f 315/501/257 330/508/257 329/506/257 314/499/257
f 308/485/258 323/509/258 322/507/258 307/500/258
f 316/487/259 331/510/259 330/508/259 315/501/259
f 309/486/260 324/511/260 323/509/260 308/485/260
f 317/488/261 332/512/261 331/510/261 316/487/261
f 310/489/262 325/513/262 324/511/262 309/486/262
f 318/490/263 333/514/263 332/512/263 317/488/263
f 311/491/264 326/515/264 325/513/264 310/489/264
f 304/493/265 319/517/265 161/516/265
f 168/518/266 333/514/266 318/490/266
f 312/495/267 327/502/267 326/515/267 311/491/267
f 305/496/268 320/504/268 319/517/268 304/493/268
f 332/512/269 347/520/269 346/519/269 331/510/269
f 325/513/270 340/522/270 339/521/270 324/511/270
f 333/514/271 348/523/271 347/520/271 332/512/271
f 326/515/272 341/524/272 340/522/272 325/513/272
f 319/517/273 334/526/273 161/525/273
f 168/527/274 348/523/274 333/514/274
f 327/502/275 342/528/275 341/524/275 326/515/275
f 320/504/276 335/529/276 334/526/276 319/517/276
f 328/503/277 343/530/277 342/528/277 327/502/277
f 321/505/278 336/531/278 335/529/278 320/504/278
f 329/506/279 344/532/279 343/530/279 328/503/279
f 322/507/280 337/533/280 336/531/280 321/505/280
f 330/508/281 345/534/281 344/532/281 329/506/281
f 323/509/282 338/535/282 337/533/282 322/507/282
f 331/510/283 346/519/283 345/534/283 330/508/283
f 324/511/284 339/521/284 338/535/284 323/509/284
f 336/531/285 351/537/285 350/536/285 335/529/285
f 344/532/286 359/539/286 358/538/286 343/530/286
f 337/533/287 352/540/287 351/537/287 336/531/287
f 345/534/288 360/541/288 359/539/288 344/532/288
f 338/535/289 353/542/289 352/540/289 337/533/289
f 346/519/290 361/543/290 360/541/290 345/534/290
f 339/521/291 354/544/291 353/542/291 338/535/291
f 347/520/292 362/545/292 361/543/292 346/519/292
f 340/522/293 355/546/293 354/544/293 339/521/293
f 348/523/294 363/547/294 362/545/294 347/520/294
f 341/524/295 356/548/295 355/546/295 340/522/295
f 334/526/296 349/550/296 161/549/296
f 168/551/297 363/547/297 348/523/297
f 342/528/298 357/552/298 356/548/298 341/524/298
f 335/529/299 350/536/299 349/550/299 334/526/299
f 343/530/300 358/538/300 357/552/300 342/528/300
f 355/546/301 370/554/301 369/553/301 354/544/301
f 363/547/302 378/556/302 377/555/302 362/545/302
f 356/548/303 371/557/303 370/554/303 355/546/303
f 349/550/304 364/559/304 161/558/304
f 168/560/305 378/556/305 363/547/305
f 357/552/306 372/561/306 371/557/306 356/548/306
f 350/536/307 365/562/307 364/559/307 349/550/307
f 358/538/308 373/563/308 372/561/308 357/552/308
f 351/537/309 366/564/309 365/562/309 350/536/309
f 359/539/310 374/565/310 373/563/310 358/538/310
f 352/540/311 367/566/311 366/564/311 351/537/311
f 360/541/312 375/567/312 374/565/312 359/539/312
f 353/542/313 368/568/313 367/566/313 352/540/313
f 361/543/314 376/569/314 375/567/314 360/541/314
f 354/544/315 369/553/315 368/568/315 353/542/315
f 362/545/316 377/555/316 376/569/316 361/543/316
f 374/565/317 389/571/317 388/570/317 373/563/317
f 367/566/318 382/573/318 381/572/318 366/564/318
f 375/567/319 390/574/319 389/571/319 374/565/319
f 368/568/320 383/575/320 382/573/320 367/566/320
f 376/569/321 391/576/321 390/574/321 375/567/321
f 369/553/322 384/577/322 383/575/322 368/568/322
f 377/555/323 392/578/323 391/576/323 376/569/323
f 370/554/324 385/579/324 384/577/324 369/553/324
f 378/556/325 393/580/325 392/578/325 377/555/325
f 371/557/326 386/581/326 385/579/326 370/554/326
f 364/559/327 379/583/327 161/582/327
f 168/584/328 393/580/328 378/556/328
f 372/561/329 387/585/329 386/581/329 371/557/329
f 365/562/330 380/586/330 379/583/330 364/559/330
f 373/563/331 388/570/331 387/585/331 372/561/331
f 366/564/332 381/572/332 380/586/332 365/562/332
f 393/580/333 408/588/333 407/587/333 392/578/333
f 386/581/334 401/590/334 400/589/334 385/579/334
f 379/583/335 394/592/335 161/591/335
f 168/593/336 408/588/336 393/580/336
f 387/585/337 402/594/337 401/590/337 386/581/337
f 380/586/338 395/595/338 394/592/338 379/583/338
f 388/570/339 403/596/339 402/594/339 387/585/339
f 381/572/340 396/597/340 395/595/340 380/586/340
f 389/571/341 404/598/341 403/596/341 388/570/341
f 382/573/342 397/599/342 396/597/342 381/572/342
f 390/574/343 405/600/343 404/598/343 389/571/343
f 383/575/344 398/601/344 397/599/344 382/573/344
f 391/576/345 406/602/345 405/600/345 390/574/345
f 384/577/346 399/603/346 398/601/346 383/575/346
f 392/578/347 407/587/347 406/602/347 391/576/347
f 385/579/348 400/589/348 399/603/348 384/577/348
f 405/600/349 420/605/349 419/604/349 404/598/349
f 398/601/350 413/607/350 412/606/350 397/599/350
f 406/602/351 421/608/351 420/605/351 405/600/351
f 399/603/352 414/609/352 413/607/352 398/601/352
f 407/587/353 422/610/353 421/608/353 406/602/353
f 400/589/354 415/611/354 414/609/354 399/603/354
f 408/588/355 423/612/355 422/610/355 407/587/355
f 401/590/356 416/613/356 415/611/356 400/589/356
f 394/592/357 409/615/357 161/614/357
f 168/616/358 423/612/358 408/588/358
f 402/594/359 417/617/359 416/613/359 401/590/359
f 395/595/360 410/618/360 409/615/360 394/592/360
f 403/596/361 418/619/361 417/617/361 402/594/361
f 396/597/362 411/620/362 410/618/362 395/595/362
f 404/598/363 419/604/363 418/619/363 403/596/363
f 397/599/364 412/606/364 411/620/364 396/597/364
f 409/615/365 424/622/365 161/621/365
f 168/623/366 438/624/366 423/612/366
f 417/617/367 432/626/367 431/625/367 416/613/367
f 410/618/368 425/627/368 424/622/368 409/615/368
f 418/619/369 433/628/369 432/626/369 417/617/369
f 411/620/370 426/629/370 425/627/370 410/618/370
f 419/604/371 434/630/371 433/628/371 418/619/371
f 412/606/372 427/631/372 426/629/372 411/620/372
f 420/605/373 435/632/373 434/630/373 419/604/373
f 413/607/374 428/633/374 427/631/374 412/606/374
f 421/608/375 436/634/375 435/632/375 420/605/375
f 414/609/376 429/635/376 428/633/376 413/607/376
f 422/610/377 437/636/377 436/634/377 421/608/377
f 415/611/378 430/637/378 429/635/378 414/609/378
f 423/612/379 438/624/379 437/636/379 422/610/379
f 416/613/380 431/625/380 430/637/380 415/611/380
f 428/633/381 443/639/381 442/638/381 427/631/381
f 436/634/382 451/641/382 450/640/382 435/632/382
f 429/635/383 444/642/383 443/639/383 428/633/383
f 437/636/384 452/643/384 451/641/384 436/634/384
f 430/637/385 445/644/385 444/642/385 429/635/385
f 438/624/386 453/645/386 452/643/386 437/636/386
f 431/625/387 446/646/387 445/644/387 430/637/387
f 424/622/388 439/648/388 161/647/388
f 168/649/389 453/645/389 438/624/389
f 432/626/390 447/650/390 446/646/390 431/625/390
f 425/627/391 440/651/391 439/648/391 424/622/391
f 433/628/392 448/652/392 447/650/392 432/626/392
f 426/629/393 441/653/393 440/651/393 425/627/393
f 434/630/394 449/654/394 448/652/394 433/628/394
f 427/631/395 442/638/395 441/653/395 426/629/395
f 435/632/396 450/640/396 449/654/396 434/630/396
f 447/650/397 462/656/397 461/655/397 446/646/397
f 440/651/398 455/658/398 454/657/398 439/648/398
f 448/652/399 463/659/399 462/656/399 447/650/399
f 441/653/400 456/660/400 455/658/400 440/651/400
f 449/654/401 464/661/401 463/659/401 448/652/401
f 442/638/402 457/662/402 456/660/402 441/653/402
f 450/640/403 465/663/403 464/661/403 449/654/403
f 443/639/404 458/664/404 457/662/404 442/638/404
f 451/641/405 466/665/405 465/663/405 450/640/405
f 444/642/406 459/666/406 458/664/406 443/639/406
f 452/643/407 467/667/407 466/665/407 451/641/407
f 445/644/408 460/668/408 459/666/408 444/642/408
f 453/645/409 468/669/409 467/667/409 452/643/409
f 446/646/410 461/655/410 460/668/410 445/644/410
f 439/648/411 454/657/411 161/670/411
f 168/671/412 468/669/412 453/645/412
f 466/665/413 481/673/413 480/672/413 465/663/413
f 459/666/414 474/675/414 473/674/414 458/664/414
f 467/667/415 482/676/415 481/673/415 466/665/415
f 460/668/416 475/677/416 474/675/416 459/666/416
f 468/669/417 483/678/417 482/676/417 467/667/417
f 461/655/418 476/679/418 475/677/418 460/668/418
f 454/657/419 469/681/419 161/680/419
f 168/682/420 483/678/420 468/669/420
f 462/656/421 477/683/421 476/679/421 461/655/421
f 455/658/422 470/684/422 469/681/422 454/657/422
f 463/659/423 478/685/423 477/683/423 462/656/423
f 456/660/424 471/686/424 470/684/424 455/658/424
f 464/661/425 479/687/425 478/685/425 463/659/425
f 457/662/426 472/688/426 471/686/426 456/660/426
f 465/663/427 480/672/427 479/687/427 464/661/427
f 458/664/428 473/674/428 472/688/428 457/662/428
f 470/684/429 485/690/429 484/689/429 469/681/429
f 478/685/430 493/692/430 492/691/430 477/683/430
f 471/686/431 486/693/431 485/690/431 470/684/431
f 479/687/432 494/694/432 493/692/432 478/685/432
f 472/688/433 487/695/433 486/693/433 471/686/433
f 480/672/434 495/696/434 494/694/434 479/687/434
f 473/674/435 488/697/435 487/695/435 472/688/435
f 481/673/436 496/698/436 495/696/436 480/672/436
f 474/675/437 489/699/437 488/697/437 473/674/437
f 482/676/438 497/700/438 496/698/438 481/673/438
f 475/677/439 490/701/439 489/699/439 474/675/439
f 483/678/440 498/702/440 497/700/440 482/676/440
f 476/679/441 491/703/441 490/701/441 475/677/441
f 469/681/442 484/689/442 161/704/442
f 168/705/443 498/702/443 483/678/443
f 477/683/444 492/691/444 491/703/444 476/679/444
f 489/699/445 504/707/445 503/706/445 488/697/445
f 497/700/446 512/709/446 511/708/446 496/698/446
f 490/701/447 505/710/447 504/707/447 489/699/447
f 498/702/448 513/711/448 512/709/448 497/700/448
f 491/703/449 506/712/449 505/710/449 490/701/449
f 484/689/450 499/714/450 161/713/450
f 168/715/451 513/711/451 498/702/451
f 492/691/452 507/716/452 506/712/452 491/703/452
f 485/690/453 500/717/453 499/714/453 484/689/453
f 493/692/454 508/718/454 507/716/454 492/691/454
f 486/693/455 501/719/455 500/717/455 485/690/455
f 494/694/456 509/720/456 508/718/456 493/692/456
f 487/695/457 502/721/457 501/719/457 486/693/457
f 495/696/458 510/722/458 509/720/458 494/694/458
f 488/697/459 503/706/459 502/721/459 487/695/459
f 496/698/460 511/708/460 510/722/460 495/696/460
f 508/718/461 523/724/461 522/723/461 507/716/461
f 501/719/462 516/726/462 515/725/462 500/717/462
f 509/720/463 524/727/463 523/724/463 508/718/463
f 502/721/464 517/728/464 516/726/464 501/719/464
f 510/722/465 525/729/465 524/727/465 509/720/465
f 503/706/466 518/730/466 517/728/466 502/721/466
f 511/708/467 526/731/467 525/729/467 510/722/467
f 504/707/468 519/732/468 518/730/468 503/706/468
f 512/709/469 527/733/469 526/731/469 511/708/469
f 505/710/470 520/734/470 519/732/470 504/707/470
f 513/711/471 528/735/471 527/733/471 512/709/471
f 506/712/472 521/736/472 520/734/472 505/710/472
f 499/714/473 514/738/473 161/737/473
f 168/739/474 528/735/474 513/711/474
f 507/716/475 522/723/475 521/736/475 506/712/475
f 500/717/476 515/725/476 514/738/476 499/714/476
f 527/740/477 542/743/477 541/742/477 526/741/477
f 520/744/478 535/747/478 534/746/478 519/745/478
f 528/748/479 543/749/479 542/743/479 527/740/479
f 521/750/480 536/751/480 535/747/480 520/744/480
f 514/752/481 529/754/481 161/753/481
f 168/755/482 543/749/482 528/748/482
f 522/756/483 537/757/483 536/751/483 521/750/483
f 515/758/484 530/759/484 529/754/484 514/752/484
f 523/760/485 538/761/485 537/757/485 522/756/485
f 516/762/486 531/763/486 530/759/486 515/758/486
f 524/764/487 539/765/487 538/761/487 523/760/487
f 517/766/488 532/767/488 531/763/488 516/762/488
f 525/768/489 540/769/489 539/765/489 524/764/489
f 518/770/490 533/771/490 532/767/490 517/766/490
f 526/741/491 541/742/491 540/769/491 525/768/491
f 519/745/492 534/746/492 533/771/492 518/770/492
f 539/765/493 554/773/493 553/772/493 538/761/493
f 532/767/494 547/775/494 546/774/494 531/763/494
f 540/769/495 555/776/495 554/773/495 539/765/495
f 533/771/496 548/777/496 547/775/496 532/767/496
f 541/742/497 556/778/497 555/776/497 540/769/497
f 534/746/498 549/779/498 548/777/498 533/771/498
f 542/743/499 557/780/499 556/778/499 541/742/499
f 535/747/500 550/781/500 549/779/500 534/746/500
f 543/749/501 558/782/501 557/780/501 542/743/501
f 536/751/502 551/783/502 550/781/502 535/747/502
f 529/754/503 544/785/503 161/784/503
f 168/786/504 558/782/504 543/749/504
f 537/757/505 552/787/505 551/783/505 536/751/505
f 530/759/506 545/788/506 544/785/506 529/754/506
f 538/761/507 553/772/507 552/787/507 537/757/507
f 531/763/508 546/774/508 545/788/508 530/759/508
f 558/782/509 573/790/509 572/789/509 557/780/509
f 551/783/510 566/792/510 565/791/510 550/781/510
f 544/785/511 559/794/511 161/793/511
f 168/795/512 573/790/512 558/782/512
f 552/787/513 567/796/513 566/792/513 551/783/513
f 545/788/514 560/797/514 559/794/514 544/785/514
f 553/772/515 568/798/515 567/796/515 552/787/515
f 546/774/516 561/799/516 560/797/516 545/788/516
f 554/773/517 569/800/517 568/798/517 553/772/517
f 547/775/518 562/801/518 561/799/518 546/774/518
f 555/776/519 570/802/519 569/800/519 554/773/519
f 548/777/520 563/803/520 562/801/520 547/775/520
f 556/778/521 571/804/521 570/802/521 555/776/521
f 549/779/522 564/805/522 563/803/522 548/777/522
f 557/780/523 572/789/523 571/804/523 556/778/523
f 550/781/524 565/791/524 564/805/524 549/779/524
f 562/801/525 577/807/525 576/806/525 561/799/525
f 570/802/526 585/809/526 584/808/526 569/800/526
f 563/803/527 578/810/527 577/807/527 562/801/527
f 571/804/528 586/811/528 585/809/528 570/802/528
f 564/805/529 579/812/529 578/810/529 563/803/529
f 572/789/530 587/813/530 586/811/530 571/804/530
f 565/791/531 580/814/531 579/812/531 564/805/531
f 573/790/532 588/815/532 587/813/532 572/789/532
f 566/792/533 581/816/533 580/814/533 565/791/533
f 559/794/534 574/818/534 161/817/534
f 168/819/535 588/815/535 573/790/535
f 567/796/536 582/820/536 581/816/536 566/792/536
f 560/797/537 575/821/537 574/818/537 559/794/537
f 568/798/538 583/822/538 582/820/538 567/796/538
f 561/799/539 576/806/539 575/821/539 560/797/539
f 569/800/540 584/808/540 583/822/540 568/798/540
f 581/816/541 596/824/541 595/823/541 580/814/541
f 574/818/542 589/826/542 161/825/542
f 168/827/543 603/828/543 588/815/543
f 582/820/544 597/829/544 596/824/544 581/816/544
f 575/821/545 590/830/545 589/826/545 574/818/545
f 583/822/546 598/831/546 597/829/546 582/820/546
f 576/806/547 591/832/547 590/830/547 575/821/547
f 584/808/548 599/833/548 598/831/548 583/822/548
f 577/807/549 592/834/549 591/832/549 576/806/549
f 585/809/550 600/835/550 599/833/550 584/808/550
f 578/810/551 593/836/551 592/834/551 577/807/551
f 586/811/552 601/837/552 600/835/552 585/809/552
f 579/812/553 594/838/553 593/836/553 578/810/553
f 587/813/554 602/839/554 601/837/554 586/811/554
f 580/814/555 595/823/555 594/838/555 579/812/555
f 588/815/556 603/828/556 602/839/556 587/813/556
f 600/835/557 615/841/557 614/840/557 599/833/557
f 593/836/558 608/843/558 607/842/558 592/834/558
f 601/837/559 616/844/559 615/841/559 600/835/559
f 594/838/560 609/845/560 608/843/560 593/836/560
f 602/839/561 617/846/561 616/844/561 601/837/561
f 595/823/562 610/847/562 609/845/562 594/838/562
f 603/828/563 618/848/563 617/846/563 602/839/563
f 596/824/564 611/849/564 610/847/564 595/823/564
f 589/826/565 604/851/565 161/850/565
f 168/852/566 618/848/566 603/828/566
f 597/829/567 612/853/567 611/849/567 596/824/567
f 590/830/568 605/854/568 604/851/568 589/826/568
f 598/831/569 613/855/569 612/853/569 597/829/569
f 591/832/570 606/856/570 605/854/570 590/830/570
f 599/833/571 614/840/571 613/855/571 598/831/571
f 592/834/572 607/842/572 606/856/572 591/832/572
f 604/851/573 619/858/573 161/857/573
f 168/859/574 633/860/574 618/848/574
f 612/853/575 627/862/575 626/861/575 611/849/575
f 605/854/576 620/863/576 619/858/576 604/851/576
f 613/855/577 628/864/577 627/862/577 612/853/577
f 606/856/578 621/865/578 620/863/578 605/854/578
f 614/840/579 629/866/579 628/864/579 613/855/579
f 607/842/580 622/867/580 621/865/580 606/856/580
f 615/841/581 630/868/581 629/866/581 614/840/581
f 608/843/582 623/869/582 622/867/582 607/842/582
f 616/844/583 631/870/583 630/868/583 615/841/583
f 609/845/584 624/871/584 623/869/584 608/843/584
f 617/846/585 632/872/585 631/870/585 616/844/585
f 610/847/586 625/873/586 624/871/586 609/845/586
f 618/848/587 633/860/587 632/872/587 617/846/587
f 611/849/588 626/861/588 625/873/588 610/847/588
f 623/869/589 163/321/589 636/322/589 622/867/589
f 631/870/590 640/325/590 639/317/590 630/868/590
f 624/871/591 637/327/591 163/321/591 623/869/591
f 632/872/592 641/329/592 640/325/592 631/870/592
f 625/873/593 164/331/593 637/327/593 624/871/593
f 633/860/594 642/333/594 641/329/594 632/872/594
f 626/861/595 165/335/595 164/331/595 625/873/595
f 619/858/596 634/337/596 161/874/596
f 168/875/597 642/333/597 633/860/597
f 627/862/598 166/341/598 165/335/598 626/861/598
f 620/863/599 635/343/599 634/337/599 619/858/599
f 628/864/600 638/345/600 166/341/600 627/862/600
f 621/865/601 162/347/601 635/343/601 620/863/601
f 629/866/602 167/318/602 638/345/602 628/864/602
f 622/867/603 636/322/603 162/347/603 621/865/603
f 630/868/604 639/317/604 167/318/604 629/866/604
