# Blender 5.2.0 LTS
# www.blender.org
mtllib ARM.mtl
o Cylinder
v 3.293162 -0.011702 -0.861314
v -3.293162 0.011702 -0.861314
v 3.293395 0.053796 -0.844764
v -3.292930 0.077200 -0.844764
v 3.293619 0.116776 -0.795750
v -3.292706 0.140181 -0.795750
v 3.293825 0.174820 -0.716156
v -3.292500 0.198224 -0.716156
v 3.294006 0.225695 -0.609041
v -3.292319 0.249099 -0.609041
v 3.294154 0.267447 -0.478520
v -3.292170 0.290852 -0.478520
v 3.294265 0.298472 -0.329611
v -3.292060 0.321877 -0.329611
v 3.294333 0.317577 -0.168034
v -3.291992 0.340982 -0.168034
v 3.294355 0.324028 0.000000
v -3.291969 0.347433 0.000000
v 3.294333 0.317577 0.168034
v -3.291992 0.340982 0.168034
v 3.294265 0.298472 0.329611
v -3.292060 0.321877 0.329611
v 3.294154 0.267447 0.478520
v -3.292170 0.290852 0.478520
v 3.294006 0.225695 0.609041
v -3.292319 0.249099 0.609041
v 3.293825 0.174820 0.716156
v -3.292500 0.198224 0.716156
v 3.293619 0.116776 0.795750
v -3.292706 0.140181 0.795750
v 3.293395 0.053796 0.844764
v -3.292930 0.077200 0.844764
v 3.293162 -0.011702 0.861314
v -3.293162 0.011702 0.861314
v 3.292930 -0.077200 0.844764
v -3.293395 -0.053796 0.844764
v 3.292706 -0.140181 0.795750
v -3.293619 -0.116776 0.795750
v 3.292500 -0.198224 0.716156
v -3.293825 -0.174820 0.716156
v 3.292319 -0.249099 0.609041
v -3.294006 -0.225695 0.609041
v 3.292170 -0.290852 0.478520
v -3.294154 -0.267447 0.478520
v 3.292060 -0.321877 0.329611
v -3.294265 -0.298472 0.329611
v 3.291992 -0.340982 0.168034
v -3.294333 -0.317577 0.168034
v 3.291969 -0.347433 0.000000
v -3.294355 -0.324028 0.000000
v 3.291992 -0.340982 -0.168034
v -3.294333 -0.317577 -0.168034
v 3.292060 -0.321877 -0.329611
v -3.294265 -0.298472 -0.329611
v 3.292170 -0.290852 -0.478520
v -3.294154 -0.267447 -0.478520
v 3.292319 -0.249099 -0.609041
v -3.294006 -0.225695 -0.609041
v 3.292500 -0.198224 -0.716156
v -3.293825 -0.174820 -0.716156
v 3.292706 -0.140181 -0.795750
v -3.293619 -0.116776 -0.795750
v 3.292930 -0.077200 -0.844764
v -3.293395 -0.053796 -0.844764
vn 0.0009 0.2450 -0.9695
vn 0.0022 0.6142 -0.7892
vn 0.0029 0.8080 -0.5892
vn 0.0032 0.9033 -0.4290
vn 0.0034 0.9524 -0.3047
vn 0.0035 0.9790 -0.2040
vn 0.0035 0.9931 -0.1174
vn 0.0036 0.9993 -0.0384
vn 0.0036 0.9993 0.0384
vn 0.0035 0.9931 0.1174
vn 0.0035 0.9790 0.2040
vn 0.0034 0.9524 0.3047
vn 0.0032 0.9033 0.4290
vn 0.0029 0.8080 0.5892
vn 0.0022 0.6142 0.7892
vn 0.0009 0.2450 0.9695
vn -0.0009 -0.2450 0.9695
vn -0.0022 -0.6142 0.7892
vn -0.0029 -0.8080 0.5892
vn -0.0032 -0.9033 0.4290
vn -0.0034 -0.9524 0.3047
vn -0.0035 -0.9790 0.2040
vn -0.0035 -0.9931 0.1174
vn -0.0036 -0.9993 0.0384
vn -0.0036 -0.9993 -0.0384
vn -0.0035 -0.9931 -0.1174
vn -0.0035 -0.9790 -0.2040
vn -0.0034 -0.9524 -0.3047
vn -0.0032 -0.9033 -0.4290
vn -0.0029 -0.8080 -0.5892
vn -1.0000 0.0036 -0.0000
vn -0.0022 -0.6142 -0.7892
vn -0.0009 -0.2450 -0.9695
vn 1.0000 -0.0036 -0.0000
vt 1.000000 0.500000
vt 1.000000 1.000000
vt 0.968750 1.000000
vt 0.968750 0.500000
vt 0.937500 1.000000
vt 0.937500 0.500000
vt 0.906250 1.000000
vt 0.906250 0.500000
vt 0.875000 1.000000
vt 0.875000 0.500000
vt 0.843750 1.000000
vt 0.843750 0.500000
vt 0.812500 1.000000
vt 0.812500 0.500000
vt 0.781250 1.000000
vt 0.781250 0.500000
vt 0.750000 1.000000
vt 0.750000 0.500000
vt 0.718750 1.000000
vt 0.718750 0.500000
vt 0.687500 1.000000
vt 0.687500 0.500000
vt 0.656250 1.000000
vt 0.656250 0.500000
vt 0.625000 1.000000
vt 0.625000 0.500000
vt 0.593750 1.000000
vt 0.593750 0.500000
vt 0.562500 1.000000
vt 0.562500 0.500000
vt 0.531250 1.000000
vt 0.531250 0.500000
vt 0.500000 1.000000
vt 0.500000 0.500000
vt 0.468750 1.000000
vt 0.468750 0.500000
vt 0.437500 1.000000
vt 0.437500 0.500000
vt 0.406250 1.000000
vt 0.406250 0.500000
vt 0.375000 1.000000
vt 0.375000 0.500000
vt 0.343750 1.000000
vt 0.343750 0.500000
vt 0.312500 1.000000
vt 0.312500 0.500000
vt 0.281250 1.000000
vt 0.281250 0.500000
vt 0.250000 1.000000
vt 0.250000 0.500000
vt 0.218750 1.000000
vt 0.218750 0.500000
vt 0.187500 1.000000
vt 0.187500 0.500000
vt 0.156250 1.000000
vt 0.156250 0.500000
vt 0.125000 1.000000
vt 0.125000 0.500000
vt 0.093750 1.000000
vt 0.093750 0.500000
vt 0.062500 1.000000
vt 0.062500 0.500000
vt 0.296822 0.485388
vt 0.250000 0.490000
vt 0.203178 0.485388
vt 0.158156 0.471731
vt 0.116663 0.449553
vt 0.080294 0.419706
vt 0.050447 0.383337
vt 0.028269 0.341844
vt 0.014612 0.296822
vt 0.010000 0.250000
vt 0.014612 0.203178
vt 0.028269 0.158156
vt 0.050447 0.116663
vt 0.080294 0.080294
vt 0.116663 0.050447
vt 0.158156 0.028269
vt 0.203178 0.014612
vt 0.250000 0.010000
vt 0.296822 0.014612
vt 0.341844 0.028269
vt 0.383337 0.050447
vt 0.419706 0.080294
vt 0.449553 0.116663
vt 0.471731 0.158156
vt 0.485388 0.203178
vt 0.490000 0.250000
vt 0.485388 0.296822
vt 0.471731 0.341844
vt 0.449553 0.383337
vt 0.419706 0.419706
vt 0.383337 0.449553
vt 0.341844 0.471731
vt 0.031250 1.000000
vt 0.031250 0.500000
vt 0.000000 1.000000
vt 0.000000 0.500000
vt 0.750000 0.490000
vt 0.796822 0.485388
vt 0.841844 0.471731
vt 0.883337 0.449553
vt 0.919706 0.419706
vt 0.949553 0.383337
vt 0.971731 0.341844
vt 0.985388 0.296822
vt 0.990000 0.250000
vt 0.985388 0.203178
vt 0.971731 0.158156
vt 0.949553 0.116663
vt 0.919706 0.080294
vt 0.883337 0.050447
vt 0.841844 0.028269
vt 0.796822 0.014612
vt 0.750000 0.010000
vt 0.703178 0.014612
vt 0.658156 0.028269
vt 0.616663 0.050447
vt 0.580294 0.080294
vt 0.550447 0.116663
vt 0.528269 0.158156
vt 0.514612 0.203178
vt 0.510000 0.250000
vt 0.514612 0.296822
vt 0.528269 0.341844
vt 0.550447 0.383337
vt 0.580294 0.419706
vt 0.616663 0.449553
vt 0.658156 0.471731
vt 0.703178 0.485388
s 0
f 1/1/1 2/2/1 4/3/1 3/4/1
f 3/4/2 4/3/2 6/5/2 5/6/2
f 5/6/3 6/5/3 8/7/3 7/8/3
f 7/8/4 8/7/4 10/9/4 9/10/4
f 9/10/5 10/9/5 12/11/5 11/12/5
f 11/12/6 12/11/6 14/13/6 13/14/6
f 13/14/7 14/13/7 16/15/7 15/16/7
f 15/16/8 16/15/8 18/17/8 17/18/8
f 17/18/9 18/17/9 20/19/9 19/20/9
f 19/20/10 20/19/10 22/21/10 21/22/10
f 21/22/11 22/21/11 24/23/11 23/24/11
f 23/24/12 24/23/12 26/25/12 25/26/12
f 25/26/13 26/25/13 28/27/13 27/28/13
f 27/28/14 28/27/14 30/29/14 29/30/14
f 29/30/15 30/29/15 32/31/15 31/32/15
f 31/32/16 32/31/16 34/33/16 33/34/16
f 33/34/17 34/33/17 36/35/17 35/36/17
f 35/36/18 36/35/18 38/37/18 37/38/18
f 37/38/19 38/37/19 40/39/19 39/40/19
f 39/40/20 40/39/20 42/41/20 41/42/20
f 41/42/21 42/41/21 44/43/21 43/44/21
f 43/44/22 44/43/22 46/45/22 45/46/22
f 45/46/23 46/45/23 48/47/23 47/48/23
f 47/48/24 48/47/24 50/49/24 49/50/24
f 49/50/25 50/49/25 52/51/25 51/52/25
f 51/52/26 52/51/26 54/53/26 53/54/26
f 53/54/27 54/53/27 56/55/27 55/56/27
f 55/56/28 56/55/28 58/57/28 57/58/28
f 57/58/29 58/57/29 60/59/29 59/60/29
f 59/60/30 60/59/30 62/61/30 61/62/30
f 4/63/31 2/64/31 64/65/31 62/66/31 60/67/31 58/68/31 56/69/31 54/70/31 52/71/31 50/72/31 48/73/31 46/74/31 44/75/31 42/76/31 40/77/31 38/78/31 36/79/31 34/80/31 32/81/31 30/82/31 28/83/31 26/84/31 24/85/31 22/86/31 20/87/31 18/88/31 16/89/31 14/90/31 12/91/31 10/92/31 8/93/31 6/94/31
f 61/62/32 62/61/32 64/95/32 63/96/32
f 63/96/33 64/95/33 2/97/33 1/98/33
f 1/99/34 3/100/34 5/101/34 7/102/34 9/103/34 11/104/34 13/105/34 15/106/34 17/107/34 19/108/34 21/109/34 23/110/34 25/111/34 27/112/34 29/113/34 31/114/34 33/115/34 35/116/34 37/117/34 39/118/34 41/119/34 43/120/34 45/121/34 47/122/34 49/123/34 51/124/34 53/125/34 55/126/34 57/127/34 59/128/34 61/129/34 63/130/34
o Cube
v -5.255548 -0.177494 0.802403
v -5.255548 0.198331 0.802403
v -5.255548 -0.177494 -0.795222
v -5.255548 0.198331 -0.795222
v -3.255548 -0.177494 0.802403
v -3.255548 0.198331 0.802403
v -3.255548 -0.177494 -0.795222
v -3.255548 0.198331 -0.795222
vn -1.0000 -0.0000 -0.0000
vn -0.0000 -0.0000 -1.0000
vn 1.0000 -0.0000 -0.0000
vn -0.0000 -0.0000 1.0000
vn -0.0000 -1.0000 -0.0000
vn -0.0000 1.0000 -0.0000
vt 0.375000 0.000000
vt 0.625000 0.000000
vt 0.625000 0.250000
vt 0.375000 0.250000
vt 0.625000 0.500000
vt 0.375000 0.500000
vt 0.625000 0.750000
vt 0.375000 0.750000
vt 0.625000 1.000000
vt 0.375000 1.000000
vt 0.125000 0.500000
vt 0.125000 0.750000
vt 0.875000 0.500000
vt 0.875000 0.750000
s 0
f 65/131/35 66/132/35 68/133/35 67/134/35
f 67/134/36 68/133/36 72/135/36 71/136/36
f 71/136/37 72/135/37 70/137/37 69/138/37
f 69/138/38 70/137/38 66/139/38 65/140/38
f 67/141/39 71/136/39 69/138/39 65/142/39
f 72/135/40 68/143/40 66/144/40 70/137/40
o Cube.001
v -3.745727 -0.177494 -1.597847
v -3.865956 -0.091055 -1.600829
v -3.735701 -0.091055 -2.002045
v -3.865956 0.111891 -1.600829
v -3.745727 0.198331 -1.597847
v -3.735701 0.111891 -2.002045
v -3.463451 -0.177494 -1.590845
v -3.453425 -0.091055 -1.995044
v -3.343222 -0.091055 -1.587863
v -3.463451 0.198331 -1.590845
v -3.343222 0.111891 -1.587863
v -3.453425 0.111891 -1.995044
v -3.769266 -0.177494 -0.648859
v -3.779293 -0.091055 -0.244660
v -3.889495 -0.091055 -0.651841
v -3.769266 0.198331 -0.648859
v -3.889495 0.111891 -0.651841
v -3.779293 0.111891 -0.244660
v -3.486990 -0.177494 -0.641857
v -3.366762 -0.091055 -0.638875
v -3.497017 -0.091055 -0.237658
v -3.486990 0.198331 -0.641857
v -3.497017 0.111891 -0.237658
v -3.366762 0.111891 -0.638875
vn -0.5706 -0.8001 -0.1852
vn -0.5706 0.8001 -0.1852
vn 0.5791 -0.8001 -0.1567
vn 0.5791 0.8001 -0.1567
vn -0.5791 -0.8001 0.1567
vn -0.5791 0.8001 0.1567
vn 0.5706 -0.8001 0.1852
vn 0.5706 0.8001 0.1852
vn 0.0052 -0.9779 -0.2090
vn -0.9511 -0.0000 -0.3088
vn 0.0052 0.9779 -0.2090
vn 0.9653 -0.0000 -0.2612
vn 0.5835 -0.8120 0.0145
vn 0.5835 0.8120 0.0145
vn 0.9511 -0.0000 0.3088
vn -0.0052 -0.9779 0.2090
vn -0.0052 0.9779 0.2090
vn -0.9653 -0.0000 0.2612
vn -0.5835 -0.8120 -0.0145
vn -0.5835 0.8120 -0.0145
vn -0.0000 -1.0000 -0.0000
vn 0.0248 -0.0000 -0.9997
vn -0.9997 -0.0000 -0.0248
vn -0.0000 1.0000 -0.0000
vn 0.9997 -0.0000 0.0248
vn -0.0248 -0.0000 0.9997
vt 0.182500 0.692500
vt 0.182500 0.750000
vt 0.125000 0.692500
vt 0.567500 0.000000
vt 0.625000 0.057500
vt 0.567500 0.057500
vt 0.182500 0.557500
vt 0.125000 0.557500
vt 0.182500 0.500000
vt 0.625000 0.230833
vt 0.567500 0.293125
vt 0.567500 0.192500
vt 0.317500 0.692500
vt 0.418125 0.692500
vt 0.375000 0.778750
vt 0.653750 0.750000
vt 0.567500 0.807500
vt 0.567500 0.706875
vt 0.317500 0.557500
vt 0.375000 0.471250
vt 0.418125 0.557500
vt 0.653750 0.500000
vt 0.567500 0.543125
vt 0.567500 0.442500
vt 0.432500 0.000000
vt 0.432500 0.057500
vt 0.432500 0.307500
vt 0.432500 0.192500
vt 0.625000 0.942500
vt 0.567500 0.942500
vt 0.432500 0.942500
vt 0.817500 0.557500
vt 0.817500 0.692500
s 0
f 73/145/41 74/146/41 75/147/41
f 76/148/42 77/149/42 78/150/42
f 79/151/43 80/152/43 81/153/43
f 82/154/44 83/155/44 84/156/44
f 85/157/45 86/158/45 87/159/45
f 88/160/46 89/161/46 90/162/46
f 91/163/47 92/164/47 93/165/47
f 94/166/48 95/167/48 96/168/48
f 79/151/49 73/145/49 75/147/49 80/152/49
f 74/169/50 76/148/50 78/150/50 75/170/50
f 77/149/51 82/154/51 84/156/51 78/150/51
f 83/155/52 81/171/52 80/172/52 84/156/52
f 91/163/53 79/151/53 81/153/53 92/164/53
f 82/154/54 94/166/54 96/168/54 83/155/54
f 95/167/55 93/165/55 92/164/55 96/168/55
f 85/157/56 91/163/56 93/165/56 86/158/56
f 94/166/57 88/160/57 90/162/57 95/167/57
f 89/161/58 87/159/58 86/158/58 90/162/58
f 73/145/59 85/157/59 87/159/59 74/146/59
f 88/160/60 77/173/60 76/174/60 89/161/60
f 79/151/61 91/163/61 85/157/61 73/145/61
f 75/170/62 78/150/62 84/156/62 80/172/62
f 87/159/63 89/161/63 76/174/63 74/175/63
f 94/166/64 82/176/64 77/177/64 88/160/64
f 81/171/65 83/155/65 96/168/65 92/164/65
f 93/165/66 95/167/66 90/162/66 86/158/66
o Cube.002
v -6.165664 -0.177494 0.663024
v -6.164718 -0.091055 0.783286
v -6.569974 -0.091055 0.666206
v -6.164718 0.111891 0.783286
v -6.165664 0.198331 0.663024
v -6.569974 0.111891 0.666206
v -6.167886 -0.177494 0.380670
v -6.572197 -0.091055 0.383852
v -6.168833 -0.091055 0.260408
v -6.167886 0.198331 0.380670
v -6.168833 0.111891 0.260408
v -6.572197 0.111891 0.383852
v -5.216414 -0.177494 0.655553
v -4.812103 -0.091055 0.652371
v -5.215467 -0.091055 0.775815
v -5.216414 0.198331 0.655553
v -5.215467 0.111891 0.775815
v -4.812103 0.111891 0.652371
v -5.218636 -0.177494 0.373199
v -5.219583 -0.091055 0.252937
v -4.814326 -0.091055 0.370017
v -5.218636 0.198331 0.373199
v -4.814326 0.111891 0.370017
v -5.219583 0.111891 0.252937
vn -0.1665 -0.8001 0.5764
vn -0.1665 0.8001 0.5764
vn -0.1756 -0.8001 -0.5737
vn -0.1756 0.8001 -0.5737
vn 0.1756 -0.8001 0.5737
vn 0.1756 0.8001 0.5737
vn 0.1665 -0.8001 -0.5764
vn 0.1665 0.8001 -0.5764
vn -0.2091 -0.9779 0.0016
vn -0.2776 -0.0000 0.9607
vn -0.2091 0.9779 0.0016
vn -0.2926 -0.0000 -0.9562
vn -0.0046 -0.8120 -0.5836
vn -0.0046 0.8120 -0.5836
vn 0.2776 -0.0000 -0.9607
vn 0.2091 -0.9779 -0.0016
vn 0.2091 0.9779 -0.0016
vn 0.2926 -0.0000 0.9562
vn 0.0046 -0.8120 0.5836
vn 0.0046 0.8120 0.5836
vn -0.0000 -1.0000 -0.0000
vn -1.0000 -0.0000 0.0079
vn 0.0079 -0.0000 1.0000
vn -0.0000 1.0000 -0.0000
vn -0.0079 -0.0000 -1.0000
vn 1.0000 -0.0000 -0.0079
vt 0.182500 0.692500
vt 0.182500 0.750000
vt 0.125000 0.692500
vt 0.567500 0.000000
vt 0.625000 0.057500
vt 0.567500 0.057500
vt 0.182500 0.557500
vt 0.125000 0.557500
vt 0.182500 0.500000
vt 0.625000 0.230833
vt 0.567500 0.293125
vt 0.567500 0.192500
vt 0.317500 0.692500
vt 0.418125 0.692500
vt 0.375000 0.778750
vt 0.653750 0.750000
vt 0.567500 0.807500
vt 0.567500 0.706875
vt 0.317500 0.557500
vt 0.375000 0.471250
vt 0.418125 0.557500
vt 0.653750 0.500000
vt 0.567500 0.543125
vt 0.567500 0.442500
vt 0.432500 0.000000
vt 0.432500 0.057500
vt 0.432500 0.307500
vt 0.432500 0.192500
vt 0.625000 0.942500
vt 0.567500 0.942500
vt 0.432500 0.942500
vt 0.817500 0.557500
vt 0.817500 0.692500
s 0
f 97/178/67 98/179/67 99/180/67
f 100/181/68 101/182/68 102/183/68
f 103/184/69 104/185/69 105/186/69
f 106/187/70 107/188/70 108/189/70
f 109/190/71 110/191/71 111/192/71
f 112/193/72 113/194/72 114/195/72
f 115/196/73 116/197/73 117/198/73
f 118/199/74 119/200/74 120/201/74
f 103/184/75 97/178/75 99/180/75 104/185/75
f 98/202/76 100/181/76 102/183/76 99/203/76
f 101/182/77 106/187/77 108/189/77 102/183/77
f 107/188/78 105/204/78 104/205/78 108/189/78
f 115/196/79 103/184/79 105/186/79 116/197/79
f 106/187/80 118/199/80 120/201/80 107/188/80
f 119/200/81 117/198/81 116/197/81 120/201/81
f 109/190/82 115/196/82 117/198/82 110/191/82
f 118/199/83 112/193/83 114/195/83 119/200/83
f 113/194/84 111/192/84 110/191/84 114/195/84
f 97/178/85 109/190/85 111/192/85 98/179/85
f 112/193/86 101/206/86 100/207/86 113/194/86
f 103/184/87 115/196/87 109/190/87 97/178/87
f 99/203/88 102/183/88 108/189/88 104/205/88
f 111/192/89 113/194/89 100/207/89 98/208/89
f 118/199/90 106/209/90 101/210/90 112/193/90
f 105/204/91 107/188/91 120/201/91 116/197/91
f 117/198/92 119/200/92 114/195/92 110/191/92
o Cube.003
v -6.165664 -0.177494 0.123749
v -6.164718 -0.091055 0.244011
v -6.569974 -0.091055 0.126931
v -6.164718 0.111891 0.244011
v -6.165664 0.198331 0.123749
v -6.569974 0.111891 0.126931
v -6.167886 -0.177494 -0.158605
v -6.572197 -0.091055 -0.155423
v -6.168833 -0.091055 -0.278866
v -6.167886 0.198331 -0.158605
v -6.168833 0.111891 -0.278866
v -6.572197 0.111891 -0.155423
v -5.216414 -0.177494 0.116279
v -4.812103 -0.091055 0.113097
v -5.215467 -0.091055 0.236541
v -5.216414 0.198331 0.116279
v -5.215467 0.111891 0.236541
v -4.812103 0.111891 0.113097
v -5.218636 -0.177494 -0.166075
v -5.219583 -0.091055 -0.286337
v -4.814326 -0.091055 -0.169257
v -5.218636 0.198331 -0.166075
v -4.814326 0.111891 -0.169257
v -5.219583 0.111891 -0.286337
vn -0.1665 -0.8001 0.5764
vn -0.1665 0.8001 0.5764
vn -0.1756 -0.8001 -0.5737
vn -0.1756 0.8001 -0.5737
vn 0.1756 -0.8001 0.5737
vn 0.1756 0.8001 0.5737
vn 0.1665 -0.8001 -0.5764
vn 0.1665 0.8001 -0.5764
vn -0.2091 -0.9779 0.0016
vn -0.2776 -0.0000 0.9607
vn -0.2091 0.9779 0.0016
vn -0.2926 -0.0000 -0.9562
vn -0.0046 -0.8120 -0.5836
vn -0.0046 0.8120 -0.5836
vn 0.2776 -0.0000 -0.9607
vn 0.2091 -0.9779 -0.0016
vn 0.2091 0.9779 -0.0016
vn 0.2926 -0.0000 0.9562
vn 0.0046 -0.8120 0.5836
vn 0.0046 0.8120 0.5836
vn -0.0000 -1.0000 -0.0000
vn -1.0000 -0.0000 0.0079
vn 0.0079 -0.0000 1.0000
vn -0.0000 1.0000 -0.0000
vn -0.0079 -0.0000 -1.0000
vn 1.0000 -0.0000 -0.0079
vt 0.182500 0.692500
vt 0.182500 0.750000
vt 0.125000 0.692500
vt 0.567500 0.000000
vt 0.625000 0.057500
vt 0.567500 0.057500
vt 0.182500 0.557500
vt 0.125000 0.557500
vt 0.182500 0.500000
vt 0.625000 0.230833
vt 0.567500 0.293125
vt 0.567500 0.192500
vt 0.317500 0.692500
vt 0.418125 0.692500
vt 0.375000 0.778750
vt 0.653750 0.750000
vt 0.567500 0.807500
vt 0.567500 0.706875
vt 0.317500 0.557500
vt 0.375000 0.471250
vt 0.418125 0.557500
vt 0.653750 0.500000
vt 0.567500 0.543125
vt 0.567500 0.442500
vt 0.432500 0.000000
vt 0.432500 0.057500
vt 0.432500 0.307500
vt 0.432500 0.192500
vt 0.625000 0.942500
vt 0.567500 0.942500
vt 0.432500 0.942500
vt 0.817500 0.557500
vt 0.817500 0.692500
s 0
f 121/211/93 122/212/93 123/213/93
f 124/214/94 125/215/94 126/216/94
f 127/217/95 128/218/95 129/219/95
f 130/220/96 131/221/96 132/222/96
f 133/223/97 134/224/97 135/225/97
f 136/226/98 137/227/98 138/228/98
f 139/229/99 140/230/99 141/231/99
f 142/232/100 143/233/100 144/234/100
f 127/217/101 121/211/101 123/213/101 128/218/101
f 122/235/102 124/214/102 126/216/102 123/236/102
f 125/215/103 130/220/103 132/222/103 126/216/103
f 131/221/104 129/237/104 128/238/104 132/222/104
f 139/229/105 127/217/105 129/219/105 140/230/105
f 130/220/106 142/232/106 144/234/106 131/221/106
f 143/233/107 141/231/107 140/230/107 144/234/107
f 133/223/108 139/229/108 141/231/108 134/224/108
f 142/232/109 136/226/109 138/228/109 143/233/109
f 137/227/110 135/225/110 134/224/110 138/228/110
f 121/211/111 133/223/111 135/225/111 122/212/111
f 136/226/112 125/239/112 124/240/112 137/227/112
f 127/217/113 139/229/113 133/223/113 121/211/113
f 123/236/114 126/216/114 132/222/114 128/238/114
f 135/225/115 137/227/115 124/240/115 122/241/115
f 142/232/116 130/242/116 125/243/116 136/226/116
f 129/237/117 131/221/117 144/234/117 140/230/117
f 141/231/118 143/233/118 138/228/118 134/224/118
o Cube.004
v -6.165664 -0.177494 -0.440625
v -6.164718 -0.091055 -0.320363
v -6.569974 -0.091055 -0.437443
v -6.164718 0.111891 -0.320363
v -6.165664 0.198331 -0.440625
v -6.569974 0.111891 -0.437443
v -6.167886 -0.177494 -0.722979
v -6.572197 -0.091055 -0.719797
v -6.168833 -0.091055 -0.843241
v -6.167886 0.198331 -0.722979
v -6.168833 0.111891 -0.843241
v -6.572197 0.111891 -0.719797
v -5.216414 -0.177494 -0.448096
v -4.812103 -0.091055 -0.451277
v -5.215467 -0.091055 -0.327834
v -5.216414 0.198331 -0.448096
v -5.215467 0.111891 -0.327834
v -4.812103 0.111891 -0.451277
v -5.218636 -0.177494 -0.730450
v -5.219583 -0.091055 -0.850711
v -4.814326 -0.091055 -0.733631
v -5.218636 0.198331 -0.730450
v -4.814326 0.111891 -0.733631
v -5.219583 0.111891 -0.850711
vn -0.1665 -0.8001 0.5764
vn -0.1665 0.8001 0.5764
vn -0.1756 -0.8001 -0.5737
vn -0.1756 0.8001 -0.5737
vn 0.1756 -0.8001 0.5737
vn 0.1756 0.8001 0.5737
vn 0.1665 -0.8001 -0.5764
vn 0.1665 0.8001 -0.5764
vn -0.2091 -0.9779 0.0016
vn -0.2776 -0.0000 0.9607
vn -0.2091 0.9779 0.0016
vn -0.2926 -0.0000 -0.9562
vn -0.0046 -0.8120 -0.5836
vn -0.0046 0.8120 -0.5836
vn 0.2776 -0.0000 -0.9607
vn 0.2091 -0.9779 -0.0016
vn 0.2091 0.9779 -0.0016
vn 0.2926 -0.0000 0.9562
vn 0.0046 -0.8120 0.5836
vn 0.0046 0.8120 0.5836
vn -0.0000 -1.0000 -0.0000
vn -1.0000 -0.0000 0.0079
vn 0.0079 -0.0000 1.0000
vn -0.0000 1.0000 -0.0000
vn -0.0079 -0.0000 -1.0000
vn 1.0000 -0.0000 -0.0079
vt 0.182500 0.692500
vt 0.182500 0.750000
vt 0.125000 0.692500
vt 0.567500 0.000000
vt 0.625000 0.057500
vt 0.567500 0.057500
vt 0.182500 0.557500
vt 0.125000 0.557500
vt 0.182500 0.500000
vt 0.625000 0.230833
vt 0.567500 0.293125
vt 0.567500 0.192500
vt 0.317500 0.692500
vt 0.418125 0.692500
vt 0.375000 0.778750
vt 0.653750 0.750000
vt 0.567500 0.807500
vt 0.567500 0.706875
vt 0.317500 0.557500
vt 0.375000 0.471250
vt 0.418125 0.557500
vt 0.653750 0.500000
vt 0.567500 0.543125
vt 0.567500 0.442500
vt 0.432500 0.000000
vt 0.432500 0.057500
vt 0.432500 0.307500
vt 0.432500 0.192500
vt 0.625000 0.942500
vt 0.567500 0.942500
vt 0.432500 0.942500
vt 0.817500 0.557500
vt 0.817500 0.692500
s 0
f 145/244/119 146/245/119 147/246/119
f 148/247/120 149/248/120 150/249/120
f 151/250/121 152/251/121 153/252/121
f 154/253/122 155/254/122 156/255/122
f 157/256/123 158/257/123 159/258/123
f 160/259/124 161/260/124 162/261/124
f 163/262/125 164/263/125 165/264/125
f 166/265/126 167/266/126 168/267/126
f 151/250/127 145/244/127 147/246/127 152/251/127
f 146/268/128 148/247/128 150/249/128 147/269/128
f 149/248/129 154/253/129 156/255/129 150/249/129
f 155/254/130 153/270/130 152/271/130 156/255/130
f 163/262/131 151/250/131 153/252/131 164/263/131
f 154/253/132 166/265/132 168/267/132 155/254/132
f 167/266/133 165/264/133 164/263/133 168/267/133
f 157/256/134 163/262/134 165/264/134 158/257/134
f 166/265/135 160/259/135 162/261/135 167/266/135
f 161/260/136 159/258/136 158/257/136 162/261/136
f 145/244/137 157/256/137 159/258/137 146/245/137
f 160/259/138 149/272/138 148/273/138 161/260/138
f 151/250/139 163/262/139 157/256/139 145/244/139
f 147/269/140 150/249/140 156/255/140 152/271/140
f 159/258/141 161/260/141 148/273/141 146/274/141
f 166/265/142 154/275/142 149/276/142 160/259/142
f 153/270/143 155/254/143 168/267/143 164/263/143
f 165/264/144 167/266/144 162/261/144 158/257/144
